# Created by DisUnity v0.3.2
v -0.6663769 0.5879983 -1.8339905
v -0.67395616 0.64268774 -1.7368658
v -0.67361546 0.59024274 -1.8348951
v -0.66687286 0.6398738 -1.7372688
v -0.67182326 0.6476041 -1.712371
v -0.6648249 0.64476216 -1.7134671
v -0.66784894 0.63945615 -1.6899874
v -0.6609373 0.63675714 -1.6917759
v -0.6514427 0.60085857 -1.6269501
v -0.6446364 0.5985956 -1.6295592
v -0.67361546 0.59024274 -1.8348951
v -0.68086946 0.6397349 -1.7355461
v -0.68037343 0.5878594 -1.8322678
v -0.67395616 0.64268774 -1.7368658
v -0.67882156 0.64462334 -1.7117443
v -0.67182326 0.6476041 -1.712371
v -0.6749339 0.63661826 -1.6900532
v -0.66784894 0.63945615 -1.6899874
v -0.65863305 0.59845674 -1.6278365
v -0.6514427 0.60085857 -1.6269501
v -0.68037343 0.5878594 -1.8322678
v -0.68356305 0.6327451 -1.7340829
v -0.682692 0.58224434 -1.8276472
v -0.68086946 0.6397349 -1.7355461
v -0.6817203 0.6375659 -1.711954
v -0.67882156 0.64462334 -1.7117443
v -0.6780419 0.62990594 -1.6919346
v -0.6749339 0.63661826 -1.6900532
v -0.66199523 0.59279716 -1.6316988
v -0.65863305 0.59845674 -1.6278365
v -0.682692 0.58224434 -1.8276472
v -0.68045896 0.6258127 -1.7333333
v -0.679213 0.5766868 -1.8237402
v -0.68356305 0.6327451 -1.7340829
v -0.67882156 0.630566 -1.7128773
v -0.6817203 0.6375659 -1.711954
v -0.67535233 0.62325114 -1.6945295
v -0.6780419 0.62990594 -1.6919346
v -0.6595599 0.5871951 -1.6362748
v -0.66199523 0.59279716 -1.6316988
v -0.679213 0.5766868 -1.8237402
v -0.67337567 0.6229988 -1.7337365
v -0.6719744 0.5744423 -1.8228353
v -0.68045896 0.6258127 -1.7333333
v -0.67182326 0.62772405 -1.7139734
v -0.67882156 0.630566 -1.7128773
v -0.66844064 0.6205521 -1.6963179
v -0.67535233 0.62325114 -1.6945295
v -0.6527536 0.58493215 -1.638884
v -0.6595599 0.5871951 -1.6362748
v -0.6719744 0.5744423 -1.8228353
v -0.66646236 0.6259516 -1.7350562
v -0.66521645 0.5768256 -1.8254629
v -0.67337567 0.6229988 -1.7337365
v -0.6648249 0.6307049 -1.7146001
v -0.67182326 0.62772405 -1.7139734
v -0.6613557 0.62339 -1.6962522
v -0.66844064 0.6205521 -1.6963179
v -0.64556324 0.5873339 -1.6379975
v -0.6527536 0.58493215 -1.638884
v -0.66521645 0.5768256 -1.8254629
v -0.6637688 0.6329414 -1.7365193
v -0.6628979 0.58244073 -1.8300834
v -0.66646236 0.6259516 -1.7350562
v -0.6619261 0.6377623 -1.7143904
v -0.6648249 0.6307049 -1.7146001
v -0.65824765 0.6301023 -1.6943709
v -0.6613557 0.62339 -1.6962522
v -0.64220107 0.59299356 -1.6341351
v -0.64556324 0.5873339 -1.6379975
v -0.6628979 0.58244073 -1.8300834
v -0.66687286 0.6398738 -1.7372688
v -0.6663769 0.5879983 -1.8339905
v -0.6637688 0.6329414 -1.7365193
v -0.6648249 0.64476216 -1.7134671
v -0.6619261 0.6377623 -1.7143904
v -0.6609373 0.63675714 -1.6917759
v -0.65824765 0.6301023 -1.6943709
v -0.6446364 0.5985956 -1.6295592
v -0.64220107 0.59299356 -1.6341351
v -0.4272389 0.60264236 -0.17523204
v -0.46556404 0.73273957 -0.9679042
v -0.47856048 0.7368186 -0.96636933
v -0.41424248 0.59856325 -0.17676696
v -0.4533551 0.7389664 -0.9676401
v -0.40203354 0.6047902 -0.17650287
v -0.44908553 0.7518518 -0.9657318
v -0.39776397 0.61767554 -0.17459449
v -0.45525634 0.7638474 -0.963297
v -0.40393478 0.62967116 -0.17215976
v -0.46825278 0.76792645 -0.9617621
v -0.4169312 0.63375026 -0.17062484
v -0.48046172 0.7616995 -0.9620262
v -0.42914015 0.6275233 -0.17088893
v -0.4847313 0.7488142 -0.9639346
v -0.43340975 0.614638 -0.1727973
v -0.47856048 0.7368186 -0.96636933
v -0.4272389 0.60264236 -0.17523204
v -0.5053028 0.77069974 -0.99961823
v -0.4947498 0.77793616 -1.0045346
v -0.61756986 0.8041154 -1.191409
v -0.621182 0.79089355 -1.1915982
v -0.50891495 0.7574779 -0.9998074
v -0.6157374 0.7794313 -1.1967824
v -0.5034703 0.7460156 -1.0049915
v -0.6070169 0.81135184 -1.1963255
v -0.48343784 0.774948 -1.0116769
v -0.59570485 0.8083637 -1.2034677
v -0.47799316 0.7634858 -1.0168611
v -0.5902602 0.79690146 -1.2086519
v -0.4816053 0.75026387 -1.0170503
v -0.5938723 0.78367954 -1.2088411
v -0.49215826 0.7430275 -1.0121337
v -0.6044253 0.7764432 -1.2039245
v -0.5034703 0.7460156 -1.0049915
v -0.6157374 0.7794313 -1.1967824
v -0.41424248 0.59856325 -0.17676696
v -0.4272389 0.60264236 -0.17523204
v -0.41558683 0.61615676 -0.1736959
v -0.40203354 0.6047902 -0.17650287
v -0.39776397 0.61767554 -0.17459449
v -0.40393478 0.62967116 -0.17215976
v -0.4169312 0.63375026 -0.17062484
v -0.42914015 0.6275233 -0.17088893
v -0.43340975 0.614638 -0.1727973
v -0.6157374 0.7794313 -1.1967824
v -0.6044253 0.7764432 -1.2039245
v -0.6057211 0.7938975 -1.2001251
v -0.5938723 0.78367954 -1.2088411
v -0.5902602 0.79690146 -1.2086519
v -0.59570485 0.8083637 -1.2034677
v -0.6070169 0.81135184 -1.1963255
v -0.61756986 0.8041154 -1.191409
v -0.621182 0.79089355 -1.1915982
v -0.21055654 0.29036635 -0.20207973
v -0.19490086 0.29665035 -2.5489137
v -0.20795107 0.3008449 -2.5489097
v -0.19750632 0.28617182 -0.202084
v -0.18270698 0.30291215 -2.5488722
v -0.18531246 0.29243362 -0.2020425
v -0.17851245 0.31596223 -2.548809
v -0.18111794 0.30548367 -0.20197956
v -0.18477435 0.328156 -2.5487618
v -0.18737984 0.31767747 -0.2019321
v -0.19782458 0.33235058 -2.5487576
v -0.20043007 0.32187203 -0.20192783
v -0.21001846 0.3260888 -2.548799
v -0.21262394 0.31561023 -0.20196933
v -0.21421298 0.31303868 -2.548862
v -0.21681847 0.30256015 -0.20203227
v -0.20795107 0.3008449 -2.5489097
v -0.21055654 0.29036635 -0.20207973
v -0.19750632 0.28617182 -0.202084
v -0.21055654 0.29036635 -0.20207973
v -0.1989682 0.30402192 -0.20200592
v -0.18531246 0.29243362 -0.2020425
v -0.18111794 0.30548367 -0.20197956
v -0.18737984 0.31767747 -0.2019321
v -0.20043007 0.32187203 -0.20192783
v -0.21262394 0.31561023 -0.20196933
v -0.21681847 0.30256015 -0.20203227
v -0.20795107 0.3008449 -2.5489097
v -0.19490086 0.29665035 -2.5489137
v -0.19636272 0.31450045 -2.5488358
v -0.18270698 0.30291215 -2.5488722
v -0.17851245 0.31596223 -2.548809
v -0.18477435 0.328156 -2.5487618
v -0.19782458 0.33235058 -2.5487576
v -0.21001846 0.3260888 -2.548799
v -0.21421298 0.31303868 -2.548862
v -0.63672173 0.641096 -1.3151251
v -0.62427235 0.6292821 -1.2811173
v -0.6275076 0.6217743 -1.284764
v -0.63342017 0.64846236 -1.3112564
v -0.6333185 0.6345223 -1.3201587
v -0.62417066 0.615342 -1.2900196
v -0.62520385 0.6325919 -1.3234078
v -0.6162162 0.6137529 -1.2938054
v -0.6171315 0.63643575 -1.3229698
v -0.6083036 0.617938 -1.2939035
v -0.61382985 0.6438019 -1.3191007
v -0.6050683 0.6254455 -1.2902563
v -0.61723316 0.65037566 -1.3140674
v -0.60840535 0.6318779 -1.2850012
v -0.62534773 0.65230614 -1.3108182
v -0.61635995 0.6334671 -1.2812154
v -0.63342017 0.64846236 -1.3112564
v -0.62427235 0.6292821 -1.2811173
v -0.65402657 0.70169336 -1.3972051
v -0.6454193 0.7041558 -1.3945364
v -0.63744587 0.7025898 -1.3983746
v -0.634777 0.6979133 -1.4064713
v -0.638976 0.69286513 -1.4140831
v -0.6475833 0.690403 -1.416752
v -0.6555567 0.6919687 -1.4129138
v -0.6582256 0.69664544 -1.4048173
v -0.65402657 0.70169336 -1.3972051
v -0.6484183 0.43848404 -1.3835495
v -0.6413512 0.4258474 -1.3483151
v -0.6446943 0.41860974 -1.3523859
v -0.6450491 0.4455763 -1.3792506
v -0.6449474 0.4316363 -1.3881528
v -0.6412496 0.4119074 -1.3572174
v -0.63666964 0.4290444 -1.3903645
v -0.633035 0.40966633 -1.3599789
v -0.628434 0.43222672 -1.3888887
v -0.62486225 0.41319948 -1.3590534
v -0.62506473 0.43931895 -1.3845899
v -0.62151927 0.42043704 -1.3549823
v -0.6285357 0.44616672 -1.3799864
v -0.62496406 0.42713946 -1.3501512
v -0.63681346 0.44875857 -1.3777748
v -0.6331787 0.42938048 -1.3473893
v -0.6450491 0.4455763 -1.3792506
v -0.6413512 0.4258474 -1.3483151
v -0.65903944 0.59059703 -1.6127919
v -0.65082645 0.59401417 -1.6116945
v -0.6427352 0.59335554 -1.6170192
v -0.6395054 0.5890066 -1.6256468
v -0.6430289 0.58351505 -1.6325234
v -0.65124196 0.5800979 -1.633621
v -0.6593332 0.58075666 -1.6282961
v -0.662563 0.5851056 -1.6196685
v -0.65903944 0.59059703 -1.6127919
v -0.75842446 0.7494464 -2.0937004
v -0.5751737 0.35952035 -1.4542422
v -0.5875618 0.3534441 -1.4546849
v -0.7460363 0.7555226 -2.0932577
v -0.56272054 0.35669166 -1.4594864
v -0.7335832 0.75269395 -2.098502
v -0.5574973 0.34661514 -1.4673454
v -0.72836 0.7426174 -2.1063612
v -0.5625637 0.33519337 -1.4732155
v -0.73342633 0.7311957 -2.112231
v -0.5749518 0.32911712 -1.4736581
v -0.7458145 0.7251194 -2.1126735
v -0.5874049 0.3319458 -1.468414
v -0.7582676 0.72794807 -2.1074295
v -0.5926282 0.34202236 -1.460555
v -0.7634908 0.7380246 -2.0995705
v -0.5875618 0.3534441 -1.4546849
v -0.75842446 0.7494464 -2.0937004
v -0.572235 0.32404625 -1.4084758
v -0.5771901 0.3124078 -1.4140053
v -0.5720781 0.30254793 -1.4222049
v -0.5598935 0.30024245 -1.4282713
v -0.5477738 0.30684185 -1.428651
v -0.54281867 0.3184803 -1.4231215
v -0.54793066 0.32834017 -1.414922
v -0.5601153 0.33064562 -1.4088554
v -0.572235 0.32404625 -1.4084758
v -0.66188216 0.53019446 -1.7546959
v -0.6521762 0.685894 -1.4729991
v -0.66493046 0.68122894 -1.4705197
v -0.64912784 0.53485954 -1.7571752
v -0.6394219 0.68122894 -1.4705197
v -0.6363735 0.53019446 -1.7546959
v -0.6341389 0.6699665 -1.4645339
v -0.6310905 0.51893204 -1.7487102
v -0.6394219 0.65870404 -1.4585481
v -0.6363735 0.50766957 -1.7427243
v -0.6521762 0.65403897 -1.4560686
v -0.64912784 0.5030045 -1.7402449
v -0.66493046 0.65870404 -1.4585481
v -0.66188216 0.50766957 -1.7427243
v -0.6702135 0.6699665 -1.4645339
v -0.6671652 0.51893204 -1.7487102
v -0.66493046 0.68122894 -1.4705197
v -0.66188216 0.53019446 -1.7546959
v -0.6624454 0.70789427 -1.420348
v -0.66771185 0.6968282 -1.4139928
v -0.6624454 0.6853694 -1.4083765
v -0.6497312 0.68023026 -1.4067891
v -0.63701695 0.6844213 -1.4101603
v -0.6317505 0.6954873 -1.4165156
v -0.63701695 0.7069462 -1.4221319
v -0.6497312 0.71208525 -1.4237193
v -0.6624454 0.70789427 -1.420348
v -0.63385296 0.81037945 -1.228121
v -0.63913596 0.79911697 -1.2221352
v -0.63385296 0.7878545 -1.2161494
v -0.62109864 0.78318954 -1.21367
v -0.6083443 0.7878545 -1.2161494
v -0.6030613 0.79911697 -1.2221352
v -0.6083443 0.81037945 -1.228121
v -0.62109864 0.8150445 -1.2306004
v -0.63385296 0.81037945 -1.228121
v -0.34457374 0.29316214 -0.19695278
v -0.35610312 0.29027784 -0.95671576
v -0.36914667 0.29447106 -0.95628643
v -0.33153015 0.28896892 -0.19738212
v -0.34391588 0.29654095 -0.95709926
v -0.31934294 0.29523203 -0.1977657
v -0.33972412 0.30959156 -0.9572125
v -0.31515115 0.30828264 -0.19787887
v -0.34598327 0.32178482 -0.956989
v -0.32141033 0.32047588 -0.19765529
v -0.35902685 0.32597804 -0.9565596
v -0.33445388 0.32466915 -0.19722594
v -0.3712141 0.31971493 -0.956176
v -0.34664112 0.31840602 -0.19684239
v -0.37540588 0.30666432 -0.95606285
v -0.35083288 0.3053554 -0.1967292
v -0.36914667 0.29447106 -0.95628643
v -0.34457374 0.29316214 -0.19695278
v -0.33153015 0.28896892 -0.19738212
v -0.34457374 0.29316214 -0.19695278
v -0.33299202 0.30681902 -0.19730404
v -0.31934294 0.29523203 -0.1977657
v -0.31515115 0.30828264 -0.19787887
v -0.32141033 0.32047588 -0.19765529
v -0.33445388 0.32466915 -0.19722594
v -0.34664112 0.31840602 -0.19684239
v -0.35083288 0.3053554 -0.1967292
v -0.36914667 0.29447106 -0.95628643
v -0.35610312 0.29027784 -0.95671576
v -0.357565 0.30812794 -0.9566377
v -0.34391588 0.29654095 -0.95709926
v -0.33972412 0.30959156 -0.9572125
v -0.34598327 0.32178482 -0.956989
v -0.35902685 0.32597804 -0.9565596
v -0.3712141 0.31971493 -0.956176
v -0.37540588 0.30666432 -0.95606285
v 0.4272389 0.60264236 -0.17523204
v 0.46556404 0.73273957 -0.9679042
v 0.41424248 0.59856325 -0.17676696
v 0.47856048 0.7368186 -0.96636933
v 0.4533551 0.7389664 -0.9676401
v 0.40203354 0.6047902 -0.17650287
v 0.44908553 0.7518518 -0.9657318
v 0.39776397 0.61767554 -0.17459449
v 0.45525634 0.7638474 -0.963297
v 0.40393478 0.62967116 -0.17215976
v 0.46825278 0.76792645 -0.9617621
v 0.4169312 0.63375026 -0.17062484
v 0.48046172 0.7616995 -0.9620262
v 0.42914015 0.6275233 -0.17088893
v 0.4847313 0.7488142 -0.9639346
v 0.43340975 0.614638 -0.1727973
v 0.47856048 0.7368186 -0.96636933
v 0.4272389 0.60264236 -0.17523204
v 0.5053028 0.77069974 -0.99961823
v 0.4947498 0.77793616 -1.0045346
v 0.61756986 0.8041154 -1.191409
v 0.621182 0.79089355 -1.1915982
v 0.50891495 0.7574779 -0.9998074
v 0.6157374 0.7794313 -1.1967824
v 0.5034703 0.7460156 -1.0049915
v 0.6070169 0.81135184 -1.1963255
v 0.48343784 0.774948 -1.0116769
v 0.59570485 0.8083637 -1.2034677
v 0.47799316 0.7634858 -1.0168611
v 0.5902602 0.79690146 -1.2086519
v 0.4816053 0.75026387 -1.0170503
v 0.5938723 0.78367954 -1.2088411
v 0.49215826 0.7430275 -1.0121337
v 0.6044253 0.7764432 -1.2039245
v 0.5034703 0.7460156 -1.0049915
v 0.6157374 0.7794313 -1.1967824
v 0.41424248 0.59856325 -0.17676696
v 0.41558683 0.61615676 -0.1736959
v 0.4272389 0.60264236 -0.17523204
v 0.40203354 0.6047902 -0.17650287
v 0.39776397 0.61767554 -0.17459449
v 0.40393478 0.62967116 -0.17215976
v 0.4169312 0.63375026 -0.17062484
v 0.42914015 0.6275233 -0.17088893
v 0.43340975 0.614638 -0.1727973
v 0.6157374 0.7794313 -1.1967824
v 0.6057211 0.7938975 -1.2001251
v 0.6044253 0.7764432 -1.2039245
v 0.5938723 0.78367954 -1.2088411
v 0.5902602 0.79690146 -1.2086519
v 0.59570485 0.8083637 -1.2034677
v 0.6070169 0.81135184 -1.1963255
v 0.61756986 0.8041154 -1.191409
v 0.621182 0.79089355 -1.1915982
v 0.21055654 0.29036635 -0.20207973
v 0.19490086 0.29665035 -2.5489137
v 0.19750632 0.28617182 -0.202084
v 0.20795107 0.3008449 -2.5489097
v 0.18270698 0.30291215 -2.5488722
v 0.18531246 0.29243362 -0.2020425
v 0.17851245 0.31596223 -2.548809
v 0.18111794 0.30548367 -0.20197956
v 0.18477435 0.328156 -2.5487618
v 0.18737984 0.31767747 -0.2019321
v 0.19782458 0.33235058 -2.5487576
v 0.20043007 0.32187203 -0.20192783
v 0.21001846 0.3260888 -2.548799
v 0.21262394 0.31561023 -0.20196933
v 0.21421298 0.31303868 -2.548862
v 0.21681847 0.30256015 -0.20203227
v 0.20795107 0.3008449 -2.5489097
v 0.21055654 0.29036635 -0.20207973
v 0.19750632 0.28617182 -0.202084
v 0.1989682 0.30402192 -0.20200592
v 0.21055654 0.29036635 -0.20207973
v 0.18531246 0.29243362 -0.2020425
v 0.18111794 0.30548367 -0.20197956
v 0.18737984 0.31767747 -0.2019321
v 0.20043007 0.32187203 -0.20192783
v 0.21262394 0.31561023 -0.20196933
v 0.21681847 0.30256015 -0.20203227
v 0.20795107 0.3008449 -2.5489097
v 0.19636272 0.31450045 -2.5488358
v 0.19490086 0.29665035 -2.5489137
v 0.18270698 0.30291215 -2.5488722
v 0.17851245 0.31596223 -2.548809
v 0.18477435 0.328156 -2.5487618
v 0.19782458 0.33235058 -2.5487576
v 0.21001846 0.3260888 -2.548799
v 0.21421298 0.31303868 -2.548862
v 0.63672173 0.641096 -1.3151251
v 0.62427235 0.6292821 -1.2811173
v 0.63342017 0.64846236 -1.3112564
v 0.6275076 0.6217743 -1.284764
v 0.6333185 0.6345223 -1.3201587
v 0.62417066 0.615342 -1.2900196
v 0.62520385 0.6325919 -1.3234078
v 0.6162162 0.6137529 -1.2938054
v 0.6171315 0.63643575 -1.3229698
v 0.6083036 0.617938 -1.2939035
v 0.61382985 0.6438019 -1.3191007
v 0.6050683 0.6254455 -1.2902563
v 0.61723316 0.65037566 -1.3140674
v 0.60840535 0.6318779 -1.2850012
v 0.62534773 0.65230614 -1.3108182
v 0.61635995 0.6334671 -1.2812154
v 0.63342017 0.64846236 -1.3112564
v 0.62427235 0.6292821 -1.2811173
v 0.65402657 0.70169336 -1.3972051
v 0.6454193 0.7041558 -1.3945364
v 0.63744587 0.7025898 -1.3983746
v 0.634777 0.6979133 -1.4064713
v 0.638976 0.69286513 -1.4140831
v 0.6475833 0.690403 -1.416752
v 0.6555567 0.6919687 -1.4129138
v 0.6582256 0.69664544 -1.4048173
v 0.65402657 0.70169336 -1.3972051
v 0.6484183 0.43848404 -1.3835495
v 0.6413512 0.4258474 -1.3483151
v 0.6450491 0.4455763 -1.3792506
v 0.6446943 0.41860974 -1.3523859
v 0.6449474 0.4316363 -1.3881528
v 0.6412496 0.4119074 -1.3572174
v 0.63666964 0.4290444 -1.3903645
v 0.633035 0.40966633 -1.3599789
v 0.628434 0.43222672 -1.3888887
v 0.62486225 0.41319948 -1.3590534
v 0.62506473 0.43931895 -1.3845899
v 0.62151927 0.42043704 -1.3549823
v 0.6285357 0.44616672 -1.3799864
v 0.62496406 0.42713946 -1.3501512
v 0.63681346 0.44875857 -1.3777748
v 0.6331787 0.42938048 -1.3473893
v 0.6450491 0.4455763 -1.3792506
v 0.6413512 0.4258474 -1.3483151
v 0.65903944 0.59059703 -1.6127919
v 0.65082645 0.59401417 -1.6116945
v 0.6427352 0.59335554 -1.6170192
v 0.6395054 0.5890066 -1.6256468
v 0.6430289 0.58351505 -1.6325234
v 0.65124196 0.5800979 -1.633621
v 0.6593332 0.58075666 -1.6282961
v 0.662563 0.5851056 -1.6196685
v 0.65903944 0.59059703 -1.6127919
v 0.75842446 0.7494464 -2.0937004
v 0.5751737 0.35952035 -1.4542422
v 0.7460363 0.7555226 -2.0932577
v 0.5875618 0.3534441 -1.4546849
v 0.56272054 0.35669166 -1.4594864
v 0.7335832 0.75269395 -2.098502
v 0.5574973 0.34661514 -1.4673454
v 0.72836 0.7426174 -2.1063612
v 0.5625637 0.33519337 -1.4732155
v 0.73342633 0.7311957 -2.112231
v 0.5749518 0.32911712 -1.4736581
v 0.7458145 0.7251194 -2.1126735
v 0.5874049 0.3319458 -1.468414
v 0.7582676 0.72794807 -2.1074295
v 0.5926282 0.34202236 -1.460555
v 0.7634908 0.7380246 -2.0995705
v 0.5875618 0.3534441 -1.4546849
v 0.75842446 0.7494464 -2.0937004
v 0.572235 0.32404625 -1.4084758
v 0.5771901 0.3124078 -1.4140053
v 0.5720781 0.30254793 -1.4222049
v 0.5598935 0.30024245 -1.4282713
v 0.5477738 0.30684185 -1.428651
v 0.54281867 0.3184803 -1.4231215
v 0.54793066 0.32834017 -1.414922
v 0.5601153 0.33064562 -1.4088554
v 0.572235 0.32404625 -1.4084758
v 0.66188216 0.53019446 -1.7546959
v 0.6521762 0.685894 -1.4729991
v 0.64912784 0.53485954 -1.7571752
v 0.66493046 0.68122894 -1.4705197
v 0.6394219 0.68122894 -1.4705197
v 0.6363735 0.53019446 -1.7546959
v 0.6341389 0.6699665 -1.4645339
v 0.6310905 0.51893204 -1.7487102
v 0.6394219 0.65870404 -1.4585481
v 0.6363735 0.50766957 -1.7427243
v 0.6521762 0.65403897 -1.4560686
v 0.64912784 0.5030045 -1.7402449
v 0.66493046 0.65870404 -1.4585481
v 0.66188216 0.50766957 -1.7427243
v 0.6702135 0.6699665 -1.4645339
v 0.6671652 0.51893204 -1.7487102
v 0.66493046 0.68122894 -1.4705197
v 0.66188216 0.53019446 -1.7546959
v 0.6624454 0.70789427 -1.420348
v 0.66771185 0.6968282 -1.4139928
v 0.6624454 0.6853694 -1.4083765
v 0.6497312 0.68023026 -1.4067891
v 0.63701695 0.6844213 -1.4101603
v 0.6317505 0.6954873 -1.4165156
v 0.63701695 0.7069462 -1.4221319
v 0.6497312 0.71208525 -1.4237193
v 0.6624454 0.70789427 -1.420348
v 0.63385296 0.81037945 -1.228121
v 0.63913596 0.79911697 -1.2221352
v 0.63385296 0.7878545 -1.2161494
v 0.62109864 0.78318954 -1.21367
v 0.6083443 0.7878545 -1.2161494
v 0.6030613 0.79911697 -1.2221352
v 0.6083443 0.81037945 -1.228121
v 0.62109864 0.8150445 -1.2306004
v 0.63385296 0.81037945 -1.228121
v 0.34457374 0.29316214 -0.19695278
v 0.35610312 0.29027784 -0.95671576
v 0.33153015 0.28896892 -0.19738212
v 0.36914667 0.29447106 -0.95628643
v 0.34391588 0.29654095 -0.95709926
v 0.31934294 0.29523203 -0.1977657
v 0.33972412 0.30959156 -0.9572125
v 0.31515115 0.30828264 -0.19787887
v 0.34598327 0.32178482 -0.956989
v 0.32141033 0.32047588 -0.19765529
v 0.35902685 0.32597804 -0.9565596
v 0.33445388 0.32466915 -0.19722594
v 0.3712141 0.31971493 -0.956176
v 0.34664112 0.31840602 -0.19684239
v 0.37540588 0.30666432 -0.95606285
v 0.35083288 0.3053554 -0.1967292
v 0.36914667 0.29447106 -0.95628643
v 0.34457374 0.29316214 -0.19695278
v 0.33153015 0.28896892 -0.19738212
v 0.33299202 0.30681902 -0.19730404
v 0.34457374 0.29316214 -0.19695278
v 0.31934294 0.29523203 -0.1977657
v 0.31515115 0.30828264 -0.19787887
v 0.32141033 0.32047588 -0.19765529
v 0.33445388 0.32466915 -0.19722594
v 0.34664112 0.31840602 -0.19684239
v 0.35083288 0.3053554 -0.1967292
v 0.36914667 0.29447106 -0.95628643
v 0.357565 0.30812794 -0.9566377
v 0.35610312 0.29027784 -0.95671576
v 0.34391588 0.29654095 -0.95709926
v 0.33972412 0.30959156 -0.9572125
v 0.34598327 0.32178482 -0.956989
v 0.35902685 0.32597804 -0.9565596
v 0.3712141 0.31971493 -0.956176
v 0.37540588 0.30666432 -0.95606285
vn 0.3117078 0.83813787 -0.4476195
vn 0.33044437 0.8827456 -0.33401603
vn 0.3117078 0.83813787 -0.4476195
vn 0.33044437 0.8827456 -0.33401603
vn 0.38421777 0.92306197 0.018254163
vn 0.38421777 0.92306197 0.018254163
vn 0.4132605 0.8517694 0.32203212
vn 0.4132605 0.8517694 0.32203212
vn 0.42135948 0.81811774 0.3913306
vn 0.42135948 0.81811774 0.3913306
vn -0.4331168 0.79375225 -0.42704472
vn -0.42410418 0.8576413 -0.29083854
vn -0.4331168 0.79375225 -0.42704472
vn -0.42410418 0.8576413 -0.29083854
vn -0.38702312 0.9144267 0.11847753
vn -0.38702312 0.9144267 0.11847753
vn -0.33170068 0.81921136 0.46783277
vn -0.33170068 0.81921136 0.46783277
vn -0.31910673 0.76865476 0.55438316
vn -0.31910673 0.76865476 0.55438316
vn -0.94124895 0.29453483 -0.16522573
vn -0.93907243 0.33361998 -0.08270794
vn -0.94124895 0.29453483 -0.16522573
vn -0.93907243 0.33361998 -0.08270794
vn -0.9206698 0.36137727 0.14755881
vn -0.9206698 0.36137727 0.14755881
vn -0.8857632 0.30949 0.34588936
vn -0.8857632 0.30949 0.34588936
vn -0.87551105 0.2726937 0.39889672
vn -0.87551105 0.2726937 0.39889672
vn -0.89535505 -0.395853 0.20405826
vn -0.9006305 -0.39410546 0.1831546
vn -0.89535505 -0.395853 0.20405826
vn -0.9006305 -0.39410546 0.1831546
vn -0.91665196 -0.38884634 0.0924537
vn -0.91665196 -0.38884634 0.0924537
vn -0.9221932 -0.38644987 0.014702348
vn -0.9221932 -0.38644987 0.014702348
vn -0.92108464 -0.38929725 0.0071233716
vn -0.92108464 -0.38929725 0.0071233716
vn -0.31128237 -0.83664834 0.45069152
vn -0.32743913 -0.8784052 0.34812054
vn -0.31128237 -0.83664834 0.45069152
vn -0.32743913 -0.8784052 0.34812054
vn -0.38523316 -0.92266166 -0.017054414
vn -0.38523316 -0.92266166 -0.017054414
vn -0.41381437 -0.8469692 -0.33376762
vn -0.41381437 -0.8469692 -0.33376762
vn -0.42144486 -0.8177636 -0.39197826
vn -0.42144486 -0.8177636 -0.39197826
vn 0.43365103 -0.7887789 0.43563133
vn 0.42451987 -0.8505988 0.3102652
vn 0.43365103 -0.7887789 0.43563133
vn 0.42451987 -0.8505988 0.3102652
vn 0.3884255 -0.91378325 -0.118851826
vn 0.3884255 -0.91378325 -0.118851826
vn 0.3278794 -0.81069684 -0.4850419
vn 0.3278794 -0.81069684 -0.4850419
vn 0.31806007 -0.76474667 -0.56035733
vn 0.31806007 -0.76474667 -0.56035733
vn 0.941157 -0.29253554 0.16925259
vn 0.9390189 -0.332274 0.08852947
vn 0.941157 -0.29253554 0.16925259
vn 0.9390189 -0.332274 0.08852947
vn 0.9209433 -0.36046132 -0.14809124
vn 0.9209433 -0.36046132 -0.14809124
vn 0.8842331 -0.3073951 -0.35162485
vn 0.8842331 -0.3073951 -0.35162485
vn 0.87463707 -0.27069482 -0.4021621
vn 0.87463707 -0.27069482 -0.4021621
vn 0.89525217 0.39502838 -0.20609716
vn 0.900823 0.3937689 -0.18293169
vn 0.89525217 0.39502838 -0.20609716
vn 0.900823 0.3937689 -0.18293169
vn 0.9166742 0.38897243 -0.09169978
vn 0.9166742 0.38897243 -0.09169978
vn 0.92238545 0.38601437 -0.014073321
vn 0.92238545 0.38601437 -0.014073321
vn 0.9215707 0.38818038 -0.0048430893
vn 0.9215707 0.38818038 -0.0048430893
vn -0.65058786 -0.7545719 -0.08577097
vn 0.06593155 -0.97503746 -0.21202575
vn -0.6206134 -0.78247374 0.050733287
vn 0.075060986 -0.9823256 -0.17147078
vn 0.72158885 -0.6042358 -0.33794767
vn 0.75674397 -0.634646 -0.15672582
vn 0.95665807 0.12485952 -0.26308832
vn 0.99513394 0.084800765 -0.050172955
vn 0.6255063 0.7793215 -0.03741383
vn 0.6505896 0.7545705 0.08577044
vn -0.06364304 0.97384405 0.21812226
vn -0.07506428 0.98232526 0.17147128
vn -0.71313006 0.60106766 0.3607814
vn -0.75674397 0.63464594 0.15672609
vn -0.94692284 -0.13085206 0.29362372
vn -0.995134 -0.08480005 0.050172787
vn -0.6206134 -0.78247374 0.050733287
vn -0.65058786 -0.7545719 -0.08577097
vn -0.65017617 0.55604196 0.51777244
vn -0.06223008 0.9691754 0.23838305
vn -0.6615699 0.5705159 0.48665902
vn -0.863252 -0.16772254 0.47609374
vn -0.85158974 -0.16805057 0.4965419
vn -0.5592534 -0.8077141 0.18663752
vn -0.56856424 -0.80117184 0.18670413
vn -0.07235103 0.97455573 0.21214744
vn 0.57477236 0.7997053 -0.1735172
vn 0.5592513 0.80771554 -0.18663742
vn 0.86796856 0.16319092 -0.46904087
vn 0.8632515 0.16772723 -0.4760929
vn 0.6615411 -0.56172514 -0.49681807
vn 0.66157013 -0.5705151 -0.48665947
vn 0.064526886 -0.97049934 -0.2323086
vn 0.072348885 -0.97455573 -0.21214774
vn -0.56856424 -0.80117184 0.18670413
vn -0.5592534 -0.8077141 0.18663752
vn 0.06382753 -0.16687047 0.9839107
vn 0.06382713 -0.16686913 0.983911
vn 0.0638267 -0.16687016 0.9839108
vn 0.06382659 -0.16687076 0.98391074
vn 0.06382619 -0.16686943 0.983911
vn 0.06382651 -0.1668697 0.9839109
vn 0.06382774 -0.16687112 0.98391056
vn 0.06382658 -0.16687106 0.9839107
vn 0.06382535 -0.16686964 0.983911
vn -0.49956137 0.14868778 -0.85342276
vn -0.49955374 0.14868413 -0.8534279
vn -0.499559 0.14869031 -0.8534237
vn -0.49955627 0.1486863 -0.85342604
vn -0.49955806 0.14869185 -0.85342395
vn -0.49955532 0.14869519 -0.853425
vn -0.49956146 0.14869516 -0.85342145
vn -0.4995628 0.14869198 -0.8534212
vn -0.4995624 0.14869006 -0.8534217
vn -0.64703053 -0.7624529 -0.004122673
vn 0.08162271 -0.99665374 -0.004359423
vn -0.64703053 -0.7624529 -0.004122673
vn 0.08162271 -0.99665374 -0.004359423
vn 0.76246345 -0.647028 -0.0020424756
vn 0.76246345 -0.647028 -0.0020424756
vn 0.9966627 0.081617475 0.0014709263
vn 0.9966627 0.081617475 0.0014709263
vn 0.6470311 0.7624525 0.0041226735
vn 0.6470311 0.7624525 0.0041226735
vn -0.0816224 0.9966538 0.0043594064
vn -0.0816224 0.9966538 0.0043594064
vn -0.762463 0.6470286 0.0020424656
vn -0.762463 0.6470286 0.0020424656
vn -0.9966626 -0.08161817 -0.001470924
vn -0.9966626 -0.08161817 -0.001470924
vn -0.64703053 -0.7624529 -0.004122673
vn -0.64703053 -0.7624529 -0.004122673
vn -0.0011091672 -0.004465381 0.9999894
vn -0.0011095848 -0.0044638035 0.99998945
vn -0.0011099024 -0.004464783 0.9999894
vn -0.001110428 -0.0044657537 0.9999894
vn -0.0011100067 -0.0044641797 0.9999894
vn -0.0011091662 -0.004463813 0.99998945
vn -0.0011095894 -0.0044653937 0.9999894
vn -0.0011104303 -0.004465763 0.9999894
vn -0.0011108461 -0.0044641774 0.9999894
vn 0.0011100089 0.00446934 -0.9999894
vn 0.0011100081 0.004467507 -0.9999894
vn 0.0011133715 0.004467432 -0.9999894
vn 0.0011167343 0.004474016 -0.9999894
vn 0.001130189 0.004468051 -0.9999894
vn 0.0011100081 0.004461539 -0.99998945
vn 0.0011100118 0.004467519 -0.9999894
vn 0.0011167349 0.004464834 -0.9999894
vn 0.0011032774 0.0044666524 -0.9999894
vn -0.9745698 -0.1256183 0.18556346
vn -0.6895312 0.49778548 0.5260764
vn -0.9687278 -0.13853027 0.20585379
vn -0.6943996 0.50942606 0.5082267
vn -0.683834 -0.68700814 -0.2457458
vn -0.6808386 -0.69375837 -0.23485763
vn 0.007406498 -0.84600234 -0.5331277
vn 0.0061434754 -0.84277767 -0.5382268
vn 0.6943865 -0.5093999 -0.50827074
vn 0.6895056 -0.4977283 -0.52616405
vn 0.97454906 0.12567031 -0.18563709
vn 0.9686828 0.13862345 -0.20600264
vn 0.68382233 0.68703574 0.24570094
vn 0.68081313 0.6938134 0.23476894
vn -0.0074077533 0.8460101 0.5331155
vn -0.0061505213 0.8427955 0.5381988
vn -0.6943996 0.50942606 0.5082267
vn -0.6895312 0.49778548 0.5260764
vn -0.698936 0.52082294 0.49013457
vn -0.008664559 0.8491923 0.5280126
vn 0.6867121 0.6801382 0.25659007
vn 0.97981465 0.112637945 -0.16515435
vn 0.69893384 -0.52082676 -0.49013358
vn 0.008669084 -0.84919447 -0.52800906
vn -0.686711 -0.6801388 -0.25659147
vn -0.97981536 -0.112627745 0.16515687
vn -0.698936 0.52082294 0.49013457
vn -0.99711853 -0.045868304 0.0604218
vn -0.70807487 0.55394995 0.43791488
vn -0.994942 -0.059121273 0.08121005
vn -0.7096958 0.5658741 0.4196646
vn -0.7004256 -0.6306686 -0.33415717
vn -0.69937825 -0.6375958 -0.3230195
vn 0.0064881784 -0.8460717 -0.5330296
vn 0.006147359 -0.84277797 -0.53822625
vn 0.7096934 -0.5658446 -0.4197085
vn 0.7080646 -0.5538935 -0.4380028
vn 0.9971119 0.045916937 -0.060493775
vn 0.99492425 0.05922001 -0.08135575
vn 0.70041704 0.6306992 0.3341174
vn 0.69936484 0.6376536 0.32293454
vn -0.0064969677 0.84608 0.53301626
vn -0.006158054 0.8427945 0.53820026
vn -0.7096958 0.5658741 0.4196646
vn -0.70807487 0.55394995 0.43791488
vn -0.71097755 0.57752776 0.40121388
vn -0.0068355943 0.8493332 0.5278128
vn 0.70134705 0.6236347 0.34524205
vn 0.9986845 0.03258389 -0.039591894
vn 0.7109813 -0.5775239 -0.40121284
vn 0.0068287095 -0.8493329 -0.5278134
vn -0.7013517 -0.62363225 -0.34523714
vn -0.9986844 -0.0325856 0.039593976
vn -0.71097755 0.57752776 0.40121388
vn -0.69571215 0.51231396 0.5035066
vn -0.00749419 0.84587306 0.5333316
vn -0.6907527 0.5010967 0.52130866
vn -0.008835315 0.8489222 0.528444
vn 0.68006027 0.6951717 0.23292562
vn 0.6832524 0.68826747 0.24383193
vn 0.9693101 0.13730614 -0.20392369
vn 0.9750916 0.12439704 -0.183635
vn 0.69073534 -0.50107324 -0.52135426
vn 0.69570506 -0.5123201 -0.5035103
vn 0.007487949 -0.84586513 -0.5333442
vn 0.008828326 -0.8489226 -0.52844346
vn -0.6800726 -0.6951448 -0.23296997
vn -0.68325037 -0.6882693 -0.24383228
vn -0.9693326 -0.13725872 0.2038492
vn -0.9750914 -0.12439923 0.18363431
vn -0.6907527 0.5010967 0.52130866
vn -0.69571215 0.51231396 0.5035066
vn -0.6854703 0.4896452 0.53886735
vn -0.96298593 -0.15003325 0.2239378
vn -0.6767754 -0.70189846 -0.22206688
vn 0.006147138 -0.84277767 -0.5382267
vn 0.68544126 -0.48959094 -0.53895366
vn 0.9629366 0.15012962 -0.22408514
vn 0.6767479 0.701953 0.22197826
vn -0.0061526345 0.84279406 0.53820103
vn -0.6854703 0.4896452 0.53886735
vn -0.7070867 0.6212443 -0.33776307
vn 8.7101523E-7 0.8830273 -0.46932158
vn -0.70698225 0.63009775 -0.32117432
vn 9.1935567E-7 0.8830313 -0.469314
vn 0.7069826 0.6187075 -0.34260282
vn 0.7070886 0.6275282 -0.32593554
vn 0.99985206 -0.008073433 -0.0151911415
vn 0.9999551 0.00444426 0.008364148
vn 0.7069837 -0.63012 0.32112744
vn 0.7070874 -0.6212427 0.3377645
vn 1.0242503E-6 -0.88303447 0.4693081
vn 7.0967775E-7 -0.88303095 0.46931472
vn -0.7069829 -0.6187338 0.34255448
vn -0.7070862 -0.62753093 0.32593557
vn -0.9998536 0.008030656 0.015110112
vn -0.9999551 -0.004445297 -0.008363618
vn -0.70698225 0.63009775 -0.32117432
vn -0.7070867 0.6212443 -0.33776307
vn -0.70482945 0.6527566 -0.2777129
vn -0.9962042 0.040859494 0.0768616
vn -0.70477444 -0.5949415 0.3864424
vn 3.713623E-5 -0.882713 0.46991244
vn 0.70485395 -0.652642 0.2779196
vn 0.99623966 -0.040668424 -0.076502636
vn 0.7047937 0.5950563 -0.38623038
vn -3.046403E-5 0.88274634 -0.46984994
vn -0.70482945 0.6527566 -0.2777129
vn -0.70238525 0.66618687 -0.2506989
vn -0.9914846 0.06113004 0.11498445
vn -0.7022341 -0.579587 0.4134564
vn 7.295512E-5 -0.88238746 0.47052357
vn 0.70244807 -0.6659267 0.25121376
vn 0.99161416 -0.060666364 -0.11410958
vn 0.7022925 0.57988083 -0.41294494
vn -6.176946E-5 0.8824688 -0.47037092
vn -0.70238525 0.66618687 -0.2506989
vn -0.64665854 -0.76252747 0.01961225
vn 0.08162217 -0.9966538 -0.0043594125
vn -0.64665854 -0.76252747 0.01961225
vn 0.08162217 -0.9966538 -0.0043594125
vn 0.7620917 -0.6469557 -0.025777373
vn 0.7620917 -0.6469557 -0.025777373
vn 0.9961383 0.08172151 -0.032095373
vn 0.9961383 0.08172151 -0.032095373
vn 0.6466599 0.7625263 -0.019612301
vn 0.6466599 0.7625263 -0.019612301
vn -0.08162126 0.99665385 0.0043593715
vn -0.08162126 0.99665385 0.0043593715
vn -0.7620921 0.6469553 0.025777405
vn -0.7620921 0.6469553 0.025777405
vn -0.99613804 -0.08172403 0.032095384
vn -0.99613804 -0.08172403 0.032095384
vn -0.64665854 -0.76252747 0.01961225
vn -0.64665854 -0.76252747 0.01961225
vn 0.032343663 -0.0017234536 0.9994753
vn 0.032345343 -0.0017233224 0.9994753
vn 0.032343797 -0.0017227458 0.9994753
vn 0.03234245 -0.0017222604 0.99947536
vn 0.032344177 -0.0017221054 0.9994753
vn 0.03234456 -0.0017231939 0.9994753
vn 0.032343246 -0.0017234011 0.99947536
vn 0.032342866 -0.0017222079 0.99947536
vn 0.032344125 -0.0017220236 0.9994753
vn -0.032348394 0.0017232491 -0.9994752
vn -0.032338254 0.0017215648 -0.9994755
vn -0.03234449 0.0017227436 -0.9994753
vn -0.032338172 0.0017194847 -0.99947554
vn -0.032341536 0.0017191953 -0.9994754
vn -0.032344818 0.0017232641 -0.9994753
vn -0.032346494 0.0017253398 -0.99947524
vn -0.032346588 0.0017249768 -0.99947524
vn -0.032351684 0.0017248743 -0.99947506
vn 0.650588 -0.75457186 -0.08577105
vn -0.06593211 -0.9750374 -0.21202584
vn -0.075061165 -0.9823256 -0.17147075
vn 0.62061286 -0.7824742 0.050733108
vn -0.72158897 -0.60423565 -0.33794776
vn -0.75674397 -0.634646 -0.15672585
vn -0.95665795 0.12485939 -0.26308873
vn -0.9951339 0.08480097 -0.05017304
vn -0.62550634 0.7793215 -0.037414525
vn -0.65058935 0.75457066 0.085770346
vn 0.06364324 0.97384405 0.218122
vn 0.07506452 0.98232526 0.1714713
vn 0.7131304 0.60106695 0.36078188
vn 0.7567438 0.6346462 0.15672599
vn 0.9469226 -0.13085324 0.29362386
vn 0.99513406 -0.084799364 0.050172623
vn 0.62061286 -0.7824742 0.050733108
vn 0.650588 -0.75457186 -0.08577105
vn 0.6501765 0.5560409 0.5177731
vn 0.062230222 0.9691754 0.23838277
vn 0.66156995 0.5705155 0.48665938
vn 0.86325175 -0.16772221 0.47609416
vn 0.85158926 -0.16805188 0.49654233
vn 0.559254 -0.80771375 0.18663755
vn 0.568564 -0.8011721 0.18670398
vn 0.07235117 0.97455573 0.21214731
vn -0.57477283 0.7997047 -0.17351814
vn -0.5592522 0.8077148 -0.18663804
vn -0.8679685 0.16318992 -0.46904132
vn -0.8632516 0.16772571 -0.47609317
vn -0.66154104 -0.561725 -0.4968184
vn -0.66156995 -0.570515 -0.48665997
vn -0.06452733 -0.97049916 -0.23230918
vn -0.07234889 -0.9745556 -0.21214876
vn 0.568564 -0.8011721 0.18670398
vn 0.559254 -0.80771375 0.18663755
vn -0.063826896 -0.16687055 0.98391074
vn -0.063826315 -0.16687012 0.98391086
vn -0.06382691 -0.16686934 0.9839109
vn -0.06382576 -0.16687039 0.98391086
vn -0.063825764 -0.16686916 0.98391104
vn -0.06382621 -0.1668697 0.9839109
vn -0.06382704 -0.16687092 0.9839107
vn -0.06382638 -0.16687103 0.9839107
vn -0.06382556 -0.16686982 0.983911
vn 0.49956387 0.14868836 -0.8534212
vn 0.4995615 0.14869004 -0.8534223
vn 0.4995555 0.14868416 -0.8534268
vn 0.49955425 0.14868647 -0.8534271
vn 0.4995573 0.14869225 -0.8534244
vn 0.49955958 0.14869446 -0.8534226
vn 0.4995669 0.14869396 -0.8534184
vn 0.4995682 0.14869082 -0.8534182
vn 0.49956626 0.14868975 -0.85341954
vn 0.6470308 -0.7624527 -0.004122677
vn -0.081622556 -0.9966538 -0.004359416
vn -0.081622556 -0.9966538 -0.004359416
vn 0.6470308 -0.7624527 -0.004122677
vn -0.76246345 -0.647028 -0.002042466
vn -0.76246345 -0.647028 -0.002042466
vn -0.9966627 0.08161765 0.0014709263
vn -0.9966627 0.08161765 0.0014709263
vn -0.64703107 0.7624525 0.004122673
vn -0.64703107 0.7624525 0.004122673
vn 0.08162222 0.9966538 0.004359412
vn 0.08162222 0.9966538 0.004359412
vn 0.7624628 0.6470289 0.0020424696
vn 0.7624628 0.6470289 0.0020424696
vn 0.9966626 -0.0816178 -0.001470926
vn 0.9966626 -0.0816178 -0.001470926
vn 0.6470308 -0.7624527 -0.004122677
vn 0.6470308 -0.7624527 -0.004122677
vn 0.0011091667 -0.0044653793 0.9999894
vn 0.0011101911 -0.004464782 0.9999894
vn 0.0011091628 -0.004463798 0.99998945
vn 0.0011108489 -0.0044657537 0.9999894
vn 0.0011100062 -0.0044641797 0.9999894
vn 0.0011100067 -0.004463816 0.99998945
vn 0.0011108515 -0.004465398 0.9999894
vn 0.0011107457 -0.004465763 0.9999894
vn 0.0011107401 -0.0044641737 0.9999894
vn -0.001098237 0.0044693467 -0.9999894
vn -0.0011121107 0.0044674366 -0.9999894
vn -0.0011032809 0.004467514 -0.9999894
vn -0.0011167356 0.0044740243 -0.9999894
vn -0.00113019 0.004468055 -0.9999894
vn -0.0011167354 0.004461538 -0.99998945
vn -0.0011167385 0.00446752 -0.9999894
vn -0.0011167349 0.0044648373 -0.9999894
vn -0.0010982333 0.004466658 -0.99998945
vn 0.9745698 -0.12561871 0.18556286
vn 0.6895311 0.49778584 0.5260762
vn 0.69439906 0.5094268 0.5082266
vn 0.968728 -0.1385307 0.2058525
vn 0.68383235 -0.68700945 -0.24574633
vn 0.6808383 -0.69375855 -0.234858
vn -0.007407685 -0.84600264 -0.5331271
vn -0.006144105 -0.8427779 -0.5382264
vn -0.6943868 -0.50939953 -0.50827086
vn -0.6895069 -0.4977274 -0.5261631
vn -0.9745491 0.12567069 -0.18563648
vn -0.9686828 0.13862586 -0.20600104
vn -0.68382293 0.68703485 0.2457016
vn -0.680812 0.6938142 0.23476993
vn 0.0074064694 0.8460101 0.5331155
vn 0.006149614 0.8427953 0.53819907
vn 0.69439906 0.5094268 0.5082266
vn 0.6895311 0.49778584 0.5260762
vn 0.69893515 0.52082413 0.4901345
vn 0.008662898 0.8491926 0.5280122
vn -0.6867147 0.6801355 0.25659046
vn -0.97981477 0.112636276 -0.16515476
vn -0.698933 -0.5208269 -0.49013475
vn -0.008670826 -0.84919494 -0.52800834
vn 0.6867081 -0.6801414 -0.2565923
vn 0.9798153 -0.112628125 0.16515696
vn 0.69893515 0.52082413 0.4901345
vn 0.9971185 -0.045869462 0.060421664
vn 0.70807415 0.55395037 0.4379155
vn 0.70969486 0.565875 0.41966486
vn 0.9949419 -0.0591233 0.08120953
vn 0.70042455 -0.63066983 -0.3341573
vn 0.6993763 -0.63759756 -0.32302022
vn -0.00648905 -0.84607166 -0.5330297
vn -0.0061490675 -0.842778 -0.53822625
vn -0.7096935 -0.5658444 -0.4197085
vn -0.7080647 -0.55389386 -0.43800214
vn -0.9971119 0.045916613 -0.06049397
vn -0.9949243 0.05921886 -0.08135584
vn -0.7004168 0.63069963 0.33411708
vn -0.69936424 0.6376544 0.32293433
vn 0.0064961812 0.84608036 0.5330157
vn 0.006158015 0.84279466 0.53819996
vn 0.70969486 0.565875 0.41966486
vn 0.70807415 0.55395037 0.4379155
vn 0.7109765 0.57752925 0.40121382
vn 0.00683406 0.84933376 0.527812
vn -0.70134705 0.6236348 0.3452416
vn -0.9986845 0.032584418 -0.039592214
vn -0.7109815 -0.57752323 -0.40121347
vn -0.006828745 -0.8493328 -0.5278135
vn 0.70135146 -0.6236327 -0.34523657
vn 0.9986844 -0.032585885 0.039594203
vn 0.7109765 0.57752925 0.40121382
vn 0.6957119 0.5123144 0.5035066
vn 0.007495069 0.8458731 0.5333315
vn 0.0088357525 0.8489221 0.5284442
vn 0.69075257 0.5010969 0.5213087
vn -0.68006086 0.6951711 0.2329259
vn -0.68325347 0.6882664 0.2438321
vn -0.9693104 0.1373058 -0.20392278
vn -0.9750918 0.12439559 -0.18363464
vn -0.69073623 -0.5010723 -0.52135414
vn -0.69570506 -0.51232 -0.5035103
vn -0.007488094 -0.845865 -0.53334445
vn -0.008827731 -0.8489223 -0.528444
vn 0.6800721 -0.69514513 -0.23297009
vn 0.6832498 -0.68827003 -0.2438322
vn 0.9693325 -0.13725877 0.20384943
vn 0.9750913 -0.12439965 0.18363476
vn 0.69075257 0.5010969 0.5213087
vn 0.6957119 0.5123144 0.5035066
vn 0.6854704 0.489645 0.53886735
vn 0.962986 -0.15003292 0.22393778
vn 0.6767753 -0.70189834 -0.22206724
vn -0.006148023 -0.8427776 -0.5382268
vn -0.685443 -0.48958912 -0.5389532
vn -0.9629369 0.1501304 -0.22408362
vn -0.6767479 0.70195276 0.2219786
vn 0.0061539547 0.84279424 0.53820074
vn 0.6854704 0.489645 0.53886735
vn 0.7070862 0.62124467 -0.3377635
vn -8.7101483E-7 0.88302743 -0.46932137
vn -9.516132E-7 0.8830312 -0.46931434
vn 0.7069817 0.6300983 -0.32117438
vn -0.7069823 0.6187077 -0.34260288
vn -0.70708835 0.6275283 -0.3259361
vn -0.99985206 -0.008073083 -0.015191172
vn -0.9999551 0.0044445638 0.008363958
vn -0.70698375 -0.63011974 0.32112774
vn -0.7070879 -0.6212423 0.33776444
vn -0.0 -0.8830344 0.46930826
vn -6.7741956E-7 -0.8830312 0.46931437
vn 0.7069835 -0.6187329 0.34255487
vn 0.7070867 -0.6275305 0.32593545
vn 0.9998536 0.008031452 0.015110541
vn 0.9999551 -0.0044445535 -0.008363759
vn 0.7069817 0.6300983 -0.32117438
vn 0.7070862 0.62124467 -0.3377635
vn 0.70482904 0.65275717 -0.27771255
vn 0.99620414 0.04086037 0.07686182
vn 0.7047747 -0.5949412 0.38644242
vn -3.610354E-5 -0.8827129 0.46991265
vn -0.7048535 -0.65264237 0.2779201
vn -0.99623966 -0.040668238 -0.07650269
vn -0.70479363 0.59505624 -0.3862304
vn 3.0609248E-5 0.8827464 -0.46984977
vn 0.70482904 0.65275717 -0.27771255
vn 0.70238507 0.6661873 -0.2506985
vn 0.99148464 0.06113093 0.114983924
vn 0.7022339 -0.57958764 0.41345587
vn -7.2729104E-5 -0.8823875 0.47052333
vn -0.70244735 -0.66592723 0.2512141
vn -0.9916141 -0.060666382 -0.114109784
vn -0.7022926 0.5798801 -0.4129455
vn 6.2027735E-5 0.88246864 -0.4703713
vn 0.70238507 0.6661873 -0.2506985
vn 0.64665836 -0.7625275 0.019612284
vn -0.08162217 -0.9966538 -0.004359415
vn -0.08162217 -0.9966538 -0.004359415
vn 0.64665836 -0.7625275 0.019612284
vn -0.7620919 -0.6469555 -0.025777373
vn -0.7620919 -0.6469555 -0.025777373
vn -0.9961383 0.08172153 -0.03209532
vn -0.9961383 0.08172153 -0.03209532
vn -0.6466601 0.76252615 -0.01961229
vn -0.6466601 0.76252615 -0.01961229
vn 0.08162113 0.9966539 0.0043593463
vn 0.08162113 0.9966539 0.0043593463
vn 0.7620921 0.64695525 0.025777368
vn 0.7620921 0.64695525 0.025777368
vn 0.99613804 -0.08172455 0.032095384
vn 0.99613804 -0.08172455 0.032095384
vn 0.64665836 -0.7625275 0.019612284
vn 0.64665836 -0.7625275 0.019612284
vn -0.032343227 -0.0017234527 0.99947536
vn -0.03234385 -0.0017227422 0.9994753
vn -0.032344904 -0.0017233476 0.9994753
vn -0.03234267 -0.0017222478 0.99947536
vn -0.0323444 -0.0017220929 0.9994753
vn -0.032345008 -0.0017231822 0.9994753
vn -0.03234322 -0.0017233867 0.99947536
vn -0.03234282 -0.0017221925 0.99947536
vn -0.032344557 -0.0017220374 0.9994753
vn 0.03234713 0.0017233016 -0.99947524
vn 0.032345574 0.0017227684 -0.99947524
vn 0.03233827 0.0017215654 -0.9994755
vn 0.032338213 0.0017195129 -0.9994755
vn 0.032341983 0.0017192494 -0.99947536
vn 0.032348648 0.001723293 -0.9994752
vn 0.032351617 0.0017253306 -0.99947506
vn 0.032348312 0.0017249659 -0.9994752
vn 0.032350436 0.0017249279 -0.9994751
vt 0.332166 0.7406301
vt 0.3411031 0.68162465
vt 0.3411031 0.7406301
vt 0.332166 0.68162465
vt 0.3411031 0.6711655
vt 0.332166 0.6711655
vt 0.3411031 0.6621724
vt 0.332166 0.6621724
vt 0.3411031 0.6106583
vt 0.332166 0.6106583
vt 0.3411031 0.7406301
vt 0.3500402 0.68162465
vt 0.3500402 0.7406301
vt 0.3411031 0.68162465
vt 0.3500402 0.6711655
vt 0.3411031 0.6711655
vt 0.3500402 0.6621724
vt 0.3411031 0.6621724
vt 0.3500402 0.6106583
vt 0.3411031 0.6106583
vt 0.3500402 0.7406301
vt 0.35897735 0.68162465
vt 0.35897735 0.7406301
vt 0.3500402 0.68162465
vt 0.35897735 0.6711655
vt 0.3500402 0.6711655
vt 0.35897735 0.6621724
vt 0.3500402 0.6621724
vt 0.35897735 0.6106583
vt 0.3500402 0.6106583
vt 0.35897735 0.7406301
vt 0.36791438 0.68162465
vt 0.36791438 0.7406301
vt 0.35897735 0.68162465
vt 0.36791438 0.6711655
vt 0.35897735 0.6711655
vt 0.36791438 0.6621724
vt 0.35897735 0.6621724
vt 0.36791438 0.6106583
vt 0.35897735 0.6106583
vt 0.36791438 0.7406301
vt 0.3768515 0.68162465
vt 0.3768515 0.7406301
vt 0.36791438 0.68162465
vt 0.3768515 0.6711655
vt 0.36791438 0.6711655
vt 0.3768515 0.6621724
vt 0.36791438 0.6621724
vt 0.3768515 0.6106583
vt 0.36791438 0.6106583
vt 0.3768515 0.7406301
vt 0.38578856 0.68162465
vt 0.38578856 0.7406301
vt 0.3768515 0.68162465
vt 0.38578856 0.6711655
vt 0.3768515 0.6711655
vt 0.38578856 0.6621724
vt 0.3768515 0.6621724
vt 0.38578856 0.6106583
vt 0.3768515 0.6106583
vt 0.38578856 0.7406301
vt 0.39472568 0.68162465
vt 0.39472568 0.7406301
vt 0.38578856 0.68162465
vt 0.39472568 0.6711655
vt 0.38578856 0.6711655
vt 0.39472568 0.6621724
vt 0.38578856 0.6621724
vt 0.39472568 0.6106583
vt 0.38578856 0.6106583
vt 0.39472568 0.7406301
vt 0.4036628 0.68162465
vt 0.4036628 0.7406301
vt 0.39472568 0.68162465
vt 0.4036628 0.6711655
vt 0.39472568 0.6711655
vt 0.4036628 0.6621724
vt 0.39472568 0.6621724
vt 0.4036628 0.6106583
vt 0.39472568 0.6106583
vt 0.32814944 0.9962985
vt 0.33764392 0.81677264
vt 0.32814944 0.81677264
vt 0.33764392 0.9962985
vt 0.3471385 0.81677264
vt 0.3471385 0.9962985
vt 0.35663313 0.81677264
vt 0.35663313 0.9962985
vt 0.36612767 0.81677264
vt 0.36612767 0.9962985
vt 0.37562227 0.81677264
vt 0.37562227 0.9962985
vt 0.38511682 0.81677264
vt 0.38511682 0.9962985
vt 0.39461142 0.81677264
vt 0.39461142 0.9962985
vt 0.40410587 0.81677264
vt 0.40410587 0.9962985
vt 0.38511682 0.8051604
vt 0.37562227 0.8051604
vt 0.38511682 0.7549846
vt 0.39461142 0.7549846
vt 0.39461142 0.8051604
vt 0.40410587 0.7549846
vt 0.40410587 0.8051604
vt 0.37562227 0.7549846
vt 0.36612767 0.8051604
vt 0.36612767 0.7549846
vt 0.35663313 0.8051604
vt 0.35663313 0.7549846
vt 0.3471385 0.8051604
vt 0.3471385 0.7549846
vt 0.33764392 0.8051604
vt 0.33764392 0.7549846
vt 0.32814944 0.8051604
vt 0.32814944 0.7549846
vt 0.56918496 0.99723786
vt 0.5814838 0.9921435
vt 0.56918496 0.9805404
vt 0.5568861 0.9921435
vt 0.5517918 0.9798447
vt 0.5568861 0.96754587
vt 0.56918496 0.96245146
vt 0.5814838 0.96754587
vt 0.58657813 0.9798447
vt 0.6205328 0.9673383
vt 0.60823405 0.96224403
vt 0.60823405 0.9803329
vt 0.5959352 0.9673383
vt 0.5908409 0.9796372
vt 0.5959352 0.991936
vt 0.60823405 0.9970304
vt 0.6205328 0.991936
vt 0.6256272 0.9796372
vt 0.0015605688 0.9967091
vt 0.010464966 0.0019919872
vt 0.0015605688 0.0019919872
vt 0.010464966 0.9967091
vt 0.019369423 0.0019919872
vt 0.019369423 0.9967091
vt 0.02827385 0.0019919872
vt 0.02827385 0.9967091
vt 0.03717822 0.0019919872
vt 0.03717822 0.9967091
vt 0.046082705 0.0019919872
vt 0.046082705 0.9967091
vt 0.054987133 0.0019919872
vt 0.054987133 0.9967091
vt 0.06389153 0.0019919872
vt 0.06389153 0.9967091
vt 0.07279593 0.0019919872
vt 0.07279593 0.9967091
vt 0.64728343 0.99723786
vt 0.65958226 0.9921435
vt 0.64728343 0.9805404
vt 0.6349846 0.9921435
vt 0.62989026 0.9798447
vt 0.6349846 0.96754587
vt 0.64728343 0.96245146
vt 0.65958226 0.96754587
vt 0.6646766 0.9798447
vt 0.69863164 0.9673383
vt 0.6863328 0.96224403
vt 0.6863328 0.9803329
vt 0.67403406 0.9673383
vt 0.6689397 0.9796372
vt 0.67403406 0.991936
vt 0.6863328 0.9970304
vt 0.69863164 0.991936
vt 0.703726 0.9796372
vt 0.5370871 0.8894237
vt 0.5451257 0.8782804
vt 0.5370964 0.87827367
vt 0.54511636 0.8894304
vt 0.5290578 0.889417
vt 0.52906716 0.878267
vt 0.5210285 0.88941026
vt 0.5210378 0.87826025
vt 0.5129992 0.8894036
vt 0.51300853 0.8782535
vt 0.5049699 0.88939685
vt 0.5049792 0.87824684
vt 0.4969406 0.8893901
vt 0.49694994 0.8782401
vt 0.4889113 0.88938344
vt 0.4889207 0.8782334
vt 0.48088205 0.8893767
vt 0.48089135 0.87822664
vt 0.4807942 0.99438506
vt 0.4888238 0.99403393
vt 0.496853 0.9941351
vt 0.5048819 0.9946333
vt 0.51291066 0.99524057
vt 0.5209397 0.9956051
vt 0.52896905 0.9955174
vt 0.53699875 0.99503267
vt 0.54502857 0.9944388
vt 0.46601802 0.8039962
vt 0.47404826 0.79284686
vt 0.46601894 0.79284614
vt 0.4740473 0.80399686
vt 0.45798874 0.8039955
vt 0.4579897 0.7928455
vt 0.44995943 0.80399483
vt 0.44996038 0.7928448
vt 0.44193012 0.8039941
vt 0.44193107 0.7928441
vt 0.43390083 0.80399346
vt 0.43390176 0.7928434
vt 0.42587152 0.80399275
vt 0.4258725 0.79284275
vt 0.4178422 0.80399203
vt 0.41784316 0.79284203
vt 0.4098129 0.8039914
vt 0.40981388 0.7928414
vt 0.4097966 0.9950847
vt 0.4178259 0.995145
vt 0.4258552 0.9956361
vt 0.43388438 0.99627066
vt 0.44191366 0.9966774
vt 0.449943 0.9966185
vt 0.45797235 0.9961288
vt 0.46600163 0.9954956
vt 0.474031 0.9950902
vt 0.24295232 0.99800795
vt 0.2528932 0.69126785
vt 0.24295232 0.69126785
vt 0.2528932 0.99800795
vt 0.26283413 0.69126785
vt 0.26283413 0.99800795
vt 0.27277508 0.69126785
vt 0.27277508 0.99800795
vt 0.28271598 0.69126785
vt 0.28271598 0.99800795
vt 0.29265687 0.69126785
vt 0.29265687 0.99800795
vt 0.30259782 0.69126785
vt 0.30259782 0.99800795
vt 0.3125387 0.69126785
vt 0.3125387 0.99800795
vt 0.32247964 0.69126785
vt 0.32247964 0.99800795
vt 0.32247964 0.67337906
vt 0.3125387 0.67337906
vt 0.30259782 0.67337906
vt 0.29265687 0.67337906
vt 0.28271598 0.67337906
vt 0.27277508 0.67337906
vt 0.26283413 0.67337906
vt 0.2528932 0.67337906
vt 0.24295232 0.67337906
vt 0.16308004 0.995826
vt 0.17233601 0.78598344
vt 0.16308004 0.78598344
vt 0.17233601 0.995826
vt 0.18159199 0.78598344
vt 0.18159199 0.995826
vt 0.190848 0.78598344
vt 0.190848 0.995826
vt 0.20010397 0.78598344
vt 0.20010397 0.995826
vt 0.20935993 0.78598344
vt 0.20935993 0.995826
vt 0.21861593 0.78598344
vt 0.21861593 0.995826
vt 0.22787191 0.78598344
vt 0.22787191 0.995826
vt 0.23712789 0.78598344
vt 0.23712789 0.995826
vt 0.23712789 0.7495941
vt 0.22787191 0.7495941
vt 0.21861593 0.7495941
vt 0.20935993 0.7495941
vt 0.20010397 0.7495941
vt 0.190848 0.7495941
vt 0.18159199 0.7495941
vt 0.17233601 0.7495941
vt 0.16308004 0.7495941
vt 0.23712789 0.5637635
vt 0.22787191 0.5637635
vt 0.21861593 0.5637635
vt 0.20935993 0.5637635
vt 0.20010397 0.5637635
vt 0.190848 0.5637635
vt 0.18159199 0.5637635
vt 0.17233601 0.5637635
vt 0.16308004 0.5637635
vt 0.07965788 0.99698067
vt 0.089262426 0.4561121
vt 0.07965788 0.4561121
vt 0.089262426 0.99698067
vt 0.09886694 0.4561121
vt 0.09886694 0.99698067
vt 0.10847151 0.4561121
vt 0.10847151 0.99698067
vt 0.11807603 0.4561121
vt 0.11807603 0.99698067
vt 0.12768054 0.4561121
vt 0.12768054 0.99698067
vt 0.13728508 0.4561121
vt 0.13728508 0.99698067
vt 0.1468896 0.4561121
vt 0.1468896 0.99698067
vt 0.15649414 0.4561121
vt 0.15649414 0.99698067
vt 0.72538227 0.99723786
vt 0.73768103 0.9921435
vt 0.72538227 0.9805404
vt 0.71308345 0.9921435
vt 0.7079891 0.9798447
vt 0.71308345 0.96754587
vt 0.72538227 0.96245146
vt 0.73768103 0.96754587
vt 0.74277544 0.9798447
vt 0.7767304 0.9673383
vt 0.76443166 0.96224403
vt 0.76443166 0.9803329
vt 0.7521329 0.9673383
vt 0.7470385 0.9796372
vt 0.7521329 0.991936
vt 0.76443166 0.9970304
vt 0.7767304 0.991936
vt 0.7818248 0.9796372
vt 0.32814944 0.9962985
vt 0.33764392 0.81677264
vt 0.33764392 0.9962985
vt 0.32814944 0.81677264
vt 0.3471385 0.81677264
vt 0.3471385 0.9962985
vt 0.35663313 0.81677264
vt 0.35663313 0.9962985
vt 0.36612767 0.81677264
vt 0.36612767 0.9962985
vt 0.37562227 0.81677264
vt 0.37562227 0.9962985
vt 0.38511682 0.81677264
vt 0.38511682 0.9962985
vt 0.39461142 0.81677264
vt 0.39461142 0.9962985
vt 0.40410587 0.81677264
vt 0.40410587 0.9962985
vt 0.38511682 0.8051604
vt 0.37562227 0.8051604
vt 0.38511682 0.7549846
vt 0.39461142 0.7549846
vt 0.39461142 0.8051604
vt 0.40410587 0.7549846
vt 0.40410587 0.8051604
vt 0.37562227 0.7549846
vt 0.36612767 0.8051604
vt 0.36612767 0.7549846
vt 0.35663313 0.8051604
vt 0.35663313 0.7549846
vt 0.3471385 0.8051604
vt 0.3471385 0.7549846
vt 0.33764392 0.8051604
vt 0.33764392 0.7549846
vt 0.32814944 0.8051604
vt 0.32814944 0.7549846
vt 0.56918496 0.99723786
vt 0.56918496 0.9805404
vt 0.5814838 0.9921435
vt 0.5568861 0.9921435
vt 0.5517918 0.9798447
vt 0.5568861 0.96754587
vt 0.56918496 0.96245146
vt 0.5814838 0.96754587
vt 0.58657813 0.9798447
vt 0.6205328 0.9673383
vt 0.60823405 0.9803329
vt 0.60823405 0.96224403
vt 0.5959352 0.9673383
vt 0.5908409 0.9796372
vt 0.5959352 0.991936
vt 0.60823405 0.9970304
vt 0.6205328 0.991936
vt 0.6256272 0.9796372
vt 0.0015605688 0.9967091
vt 0.010464966 0.0019919872
vt 0.010464966 0.9967091
vt 0.0015605688 0.0019919872
vt 0.019369423 0.0019919872
vt 0.019369423 0.9967091
vt 0.02827385 0.0019919872
vt 0.02827385 0.9967091
vt 0.03717822 0.0019919872
vt 0.03717822 0.9967091
vt 0.046082705 0.0019919872
vt 0.046082705 0.9967091
vt 0.054987133 0.0019919872
vt 0.054987133 0.9967091
vt 0.06389153 0.0019919872
vt 0.06389153 0.9967091
vt 0.07279593 0.0019919872
vt 0.07279593 0.9967091
vt 0.64728343 0.99723786
vt 0.64728343 0.9805404
vt 0.65958226 0.9921435
vt 0.6349846 0.9921435
vt 0.62989026 0.9798447
vt 0.6349846 0.96754587
vt 0.64728343 0.96245146
vt 0.65958226 0.96754587
vt 0.6646766 0.9798447
vt 0.69863164 0.9673383
vt 0.6863328 0.9803329
vt 0.6863328 0.96224403
vt 0.67403406 0.9673383
vt 0.6689397 0.9796372
vt 0.67403406 0.991936
vt 0.6863328 0.9970304
vt 0.69863164 0.991936
vt 0.703726 0.9796372
vt 0.5370871 0.8894237
vt 0.5451257 0.8782804
vt 0.54511636 0.8894304
vt 0.5370964 0.87827367
vt 0.5290578 0.889417
vt 0.52906716 0.878267
vt 0.5210285 0.88941026
vt 0.5210378 0.87826025
vt 0.5129992 0.8894036
vt 0.51300853 0.8782535
vt 0.5049699 0.88939685
vt 0.5049792 0.87824684
vt 0.4969406 0.8893901
vt 0.49694994 0.8782401
vt 0.4889113 0.88938344
vt 0.4889207 0.8782334
vt 0.48088205 0.8893767
vt 0.48089135 0.87822664
vt 0.4807942 0.99438506
vt 0.4888238 0.99403393
vt 0.496853 0.9941351
vt 0.5048819 0.9946333
vt 0.51291066 0.99524057
vt 0.5209397 0.9956051
vt 0.52896905 0.9955174
vt 0.53699875 0.99503267
vt 0.54502857 0.9944388
vt 0.46601802 0.8039962
vt 0.47404826 0.79284686
vt 0.4740473 0.80399686
vt 0.46601894 0.79284614
vt 0.45798874 0.8039955
vt 0.4579897 0.7928455
vt 0.44995943 0.80399483
vt 0.44996038 0.7928448
vt 0.44193012 0.8039941
vt 0.44193107 0.7928441
vt 0.43390083 0.80399346
vt 0.43390176 0.7928434
vt 0.42587152 0.80399275
vt 0.4258725 0.79284275
vt 0.4178422 0.80399203
vt 0.41784316 0.79284203
vt 0.4098129 0.8039914
vt 0.40981388 0.7928414
vt 0.4097966 0.9950847
vt 0.4178259 0.995145
vt 0.4258552 0.9956361
vt 0.43388438 0.99627066
vt 0.44191366 0.9966774
vt 0.449943 0.9966185
vt 0.45797235 0.9961288
vt 0.46600163 0.9954956
vt 0.474031 0.9950902
vt 0.24295232 0.99800795
vt 0.2528932 0.69126785
vt 0.2528932 0.99800795
vt 0.24295232 0.69126785
vt 0.26283413 0.69126785
vt 0.26283413 0.99800795
vt 0.27277508 0.69126785
vt 0.27277508 0.99800795
vt 0.28271598 0.69126785
vt 0.28271598 0.99800795
vt 0.29265687 0.69126785
vt 0.29265687 0.99800795
vt 0.30259782 0.69126785
vt 0.30259782 0.99800795
vt 0.3125387 0.69126785
vt 0.3125387 0.99800795
vt 0.32247964 0.69126785
vt 0.32247964 0.99800795
vt 0.32247964 0.67337906
vt 0.3125387 0.67337906
vt 0.30259782 0.67337906
vt 0.29265687 0.67337906
vt 0.28271598 0.67337906
vt 0.27277508 0.67337906
vt 0.26283413 0.67337906
vt 0.2528932 0.67337906
vt 0.24295232 0.67337906
vt 0.16308004 0.995826
vt 0.17233601 0.78598344
vt 0.17233601 0.995826
vt 0.16308004 0.78598344
vt 0.18159199 0.78598344
vt 0.18159199 0.995826
vt 0.190848 0.78598344
vt 0.190848 0.995826
vt 0.20010397 0.78598344
vt 0.20010397 0.995826
vt 0.20935993 0.78598344
vt 0.20935993 0.995826
vt 0.21861593 0.78598344
vt 0.21861593 0.995826
vt 0.22787191 0.78598344
vt 0.22787191 0.995826
vt 0.23712789 0.78598344
vt 0.23712789 0.995826
vt 0.23712789 0.7495941
vt 0.22787191 0.7495941
vt 0.21861593 0.7495941
vt 0.20935993 0.7495941
vt 0.20010397 0.7495941
vt 0.190848 0.7495941
vt 0.18159199 0.7495941
vt 0.17233601 0.7495941
vt 0.16308004 0.7495941
vt 0.23712789 0.5637635
vt 0.22787191 0.5637635
vt 0.21861593 0.5637635
vt 0.20935993 0.5637635
vt 0.20010397 0.5637635
vt 0.190848 0.5637635
vt 0.18159199 0.5637635
vt 0.17233601 0.5637635
vt 0.16308004 0.5637635
vt 0.07965788 0.99698067
vt 0.089262426 0.4561121
vt 0.089262426 0.99698067
vt 0.07965788 0.4561121
vt 0.09886694 0.4561121
vt 0.09886694 0.99698067
vt 0.10847151 0.4561121
vt 0.10847151 0.99698067
vt 0.11807603 0.4561121
vt 0.11807603 0.99698067
vt 0.12768054 0.4561121
vt 0.12768054 0.99698067
vt 0.13728508 0.4561121
vt 0.13728508 0.99698067
vt 0.1468896 0.4561121
vt 0.1468896 0.99698067
vt 0.15649414 0.4561121
vt 0.15649414 0.99698067
vt 0.72538227 0.99723786
vt 0.72538227 0.9805404
vt 0.73768103 0.9921435
vt 0.71308345 0.9921435
vt 0.7079891 0.9798447
vt 0.71308345 0.96754587
vt 0.72538227 0.96245146
vt 0.73768103 0.96754587
vt 0.74277544 0.9798447
vt 0.7767304 0.9673383
vt 0.76443166 0.9803329
vt 0.76443166 0.96224403
vt 0.7521329 0.9673383
vt 0.7470385 0.9796372
vt 0.7521329 0.991936
vt 0.76443166 0.9970304
vt 0.7767304 0.991936
vt 0.7818248 0.9796372

g Slingshot_Frame1
s 1
usemtl Slingshot_Frame1_0
f 3/3/3 2/2/2 1/1/1 
f 2/2/2 4/4/4 1/1/1 
f 2/2/2 5/5/5 4/4/4 
f 5/5/5 6/6/6 4/4/4 
f 5/5/5 7/7/7 6/6/6 
f 7/7/7 8/8/8 6/6/6 
f 7/7/7 9/9/9 8/8/8 
f 9/9/9 10/10/10 8/8/8 
f 13/13/13 12/12/12 11/11/11 
f 12/12/12 14/14/14 11/11/11 
f 12/12/12 15/15/15 14/14/14 
f 15/15/15 16/16/16 14/14/14 
f 15/15/15 17/17/17 16/16/16 
f 17/17/17 18/18/18 16/16/16 
f 17/17/17 19/19/19 18/18/18 
f 19/19/19 20/20/20 18/18/18 
f 23/23/23 22/22/22 21/21/21 
f 22/22/22 24/24/24 21/21/21 
f 22/22/22 25/25/25 24/24/24 
f 25/25/25 26/26/26 24/24/24 
f 25/25/25 27/27/27 26/26/26 
f 27/27/27 28/28/28 26/26/26 
f 27/27/27 29/29/29 28/28/28 
f 29/29/29 30/30/30 28/28/28 
f 33/33/33 32/32/32 31/31/31 
f 32/32/32 34/34/34 31/31/31 
f 32/32/32 35/35/35 34/34/34 
f 35/35/35 36/36/36 34/34/34 
f 35/35/35 37/37/37 36/36/36 
f 37/37/37 38/38/38 36/36/36 
f 37/37/37 39/39/39 38/38/38 
f 39/39/39 40/40/40 38/38/38 
f 43/43/43 42/42/42 41/41/41 
f 42/42/42 44/44/44 41/41/41 
f 42/42/42 45/45/45 44/44/44 
f 45/45/45 46/46/46 44/44/44 
f 45/45/45 47/47/47 46/46/46 
f 47/47/47 48/48/48 46/46/46 
f 47/47/47 49/49/49 48/48/48 
f 49/49/49 50/50/50 48/48/48 
f 53/53/53 52/52/52 51/51/51 
f 52/52/52 54/54/54 51/51/51 
f 52/52/52 55/55/55 54/54/54 
f 55/55/55 56/56/56 54/54/54 
f 55/55/55 57/57/57 56/56/56 
f 57/57/57 58/58/58 56/56/56 
f 57/57/57 59/59/59 58/58/58 
f 59/59/59 60/60/60 58/58/58 
f 63/63/63 62/62/62 61/61/61 
f 62/62/62 64/64/64 61/61/61 
f 62/62/62 65/65/65 64/64/64 
f 65/65/65 66/66/66 64/64/64 
f 65/65/65 67/67/67 66/66/66 
f 67/67/67 68/68/68 66/66/66 
f 67/67/67 69/69/69 68/68/68 
f 69/69/69 70/70/70 68/68/68 
f 73/73/73 72/72/72 71/71/71 
f 72/72/72 74/74/74 71/71/71 
f 72/72/72 75/75/75 74/74/74 
f 75/75/75 76/76/76 74/74/74 
f 75/75/75 77/77/77 76/76/76 
f 77/77/77 78/78/78 76/76/76 
f 77/77/77 79/79/79 78/78/78 
f 79/79/79 80/80/80 78/78/78 

usemtl Slingshot_Frame1_1
f 83/83/83 82/82/82 81/81/81 
f 82/82/82 84/84/84 81/81/81 
f 82/82/82 85/85/85 84/84/84 
f 85/85/85 86/86/86 84/84/84 
f 85/85/85 87/87/87 86/86/86 
f 87/87/87 88/88/88 86/86/86 
f 87/87/87 89/89/89 88/88/88 
f 89/89/89 90/90/90 88/88/88 
f 89/89/89 91/91/91 90/90/90 
f 91/91/91 92/92/92 90/90/90 
f 91/91/91 93/93/93 92/92/92 
f 93/93/93 94/94/94 92/92/92 
f 93/93/93 95/95/95 94/94/94 
f 95/95/95 96/96/96 94/94/94 
f 95/95/95 97/97/97 96/96/96 
f 97/97/97 98/98/98 96/96/96 
f 99/99/99 93/93/93 91/91/91 
f 100/100/100 99/99/99 91/91/91 
f 100/100/100 91/91/91 89/89/89 
f 101/101/101 99/99/99 100/100/100 
f 101/101/101 102/102/102 99/99/99 
f 102/102/102 103/103/103 99/99/99 
f 99/99/99 103/103/103 93/93/93 
f 103/103/103 95/95/95 93/93/93 
f 102/102/102 104/104/104 103/103/103 
f 104/104/104 105/105/105 103/103/103 
f 103/103/103 105/105/105 95/95/95 
f 105/105/105 97/97/97 95/95/95 
f 106/106/106 101/101/101 100/100/100 
f 106/106/106 100/100/100 107/107/107 
f 108/108/108 106/106/106 107/107/107 
f 108/108/108 107/107/107 109/109/109 
f 110/110/110 108/108/108 109/109/109 
f 110/110/110 109/109/109 111/111/111 
f 112/112/112 110/110/110 111/111/111 
f 112/112/112 111/111/111 113/113/113 
f 114/114/114 112/112/112 113/113/113 
f 114/114/114 113/113/113 115/115/115 
f 116/116/116 114/114/114 115/115/115 
f 109/109/109 107/107/107 87/87/87 
f 107/107/107 89/89/89 87/87/87 
f 107/107/107 100/100/100 89/89/89 
f 111/111/111 109/109/109 85/85/85 
f 109/109/109 87/87/87 85/85/85 
f 113/113/113 111/111/111 82/82/82 
f 111/111/111 85/85/85 82/82/82 
f 115/115/115 113/113/113 83/83/83 
f 113/113/113 82/82/82 83/83/83 
f 119/119/119 118/118/118 117/117/117 
f 119/119/119 117/117/117 120/120/120 
f 119/119/119 120/120/120 121/121/121 
f 119/119/119 121/121/121 122/122/122 
f 119/119/119 122/122/122 123/123/123 
f 119/119/119 123/123/123 124/124/124 
f 119/119/119 124/124/124 125/125/125 
f 119/119/119 125/125/125 118/118/118 
f 128/128/128 127/127/127 126/126/126 
f 128/128/128 129/129/129 127/127/127 
f 128/128/128 130/130/130 129/129/129 
f 128/128/128 131/131/131 130/130/130 
f 128/128/128 132/132/132 131/131/131 
f 128/128/128 133/133/133 132/132/132 
f 128/128/128 134/134/134 133/133/133 
f 128/128/128 126/126/126 134/134/134 
f 137/137/137 136/136/136 135/135/135 
f 136/136/136 138/138/138 135/135/135 
f 136/136/136 139/139/139 138/138/138 
f 139/139/139 140/140/140 138/138/138 
f 139/139/139 141/141/141 140/140/140 
f 141/141/141 142/142/142 140/140/140 
f 141/141/141 143/143/143 142/142/142 
f 143/143/143 144/144/144 142/142/142 
f 143/143/143 145/145/145 144/144/144 
f 145/145/145 146/146/146 144/144/144 
f 145/145/145 147/147/147 146/146/146 
f 147/147/147 148/148/148 146/146/146 
f 147/147/147 149/149/149 148/148/148 
f 149/149/149 150/150/150 148/148/148 
f 149/149/149 151/151/151 150/150/150 
f 151/151/151 152/152/152 150/150/150 
f 155/155/155 154/154/154 153/153/153 
f 155/155/155 153/153/153 156/156/156 
f 155/155/155 156/156/156 157/157/157 
f 155/155/155 157/157/157 158/158/158 
f 155/155/155 158/158/158 159/159/159 
f 155/155/155 159/159/159 160/160/160 
f 155/155/155 160/160/160 161/161/161 
f 155/155/155 161/161/161 154/154/154 
f 164/164/164 163/163/163 162/162/162 
f 164/164/164 165/165/165 163/163/163 
f 164/164/164 166/166/166 165/165/165 
f 164/164/164 167/167/167 166/166/166 
f 164/164/164 168/168/168 167/167/167 
f 164/164/164 169/169/169 168/168/168 
f 164/164/164 170/170/170 169/169/169 
f 164/164/164 162/162/162 170/170/170 
f 173/173/173 172/172/172 171/171/171 
f 172/172/172 174/174/174 171/171/171 
f 173/173/173 171/171/171 175/175/175 
f 176/176/176 173/173/173 175/175/175 
f 176/176/176 175/175/175 177/177/177 
f 178/178/178 176/176/176 177/177/177 
f 178/178/178 177/177/177 179/179/179 
f 180/180/180 178/178/178 179/179/179 
f 180/180/180 179/179/179 181/181/181 
f 182/182/182 180/180/180 181/181/181 
f 182/182/182 181/181/181 183/183/183 
f 184/184/184 182/182/182 183/183/183 
f 184/184/184 183/183/183 185/185/185 
f 186/186/186 184/184/184 185/185/185 
f 186/186/186 185/185/185 187/187/187 
f 188/188/188 186/186/186 187/187/187 
f 187/187/187 185/185/185 189/189/189 
f 185/185/185 190/190/190 189/189/189 
f 185/185/185 183/183/183 190/190/190 
f 183/183/183 191/191/191 190/190/190 
f 183/183/183 181/181/181 191/191/191 
f 181/181/181 192/192/192 191/191/191 
f 181/181/181 179/179/179 192/192/192 
f 179/179/179 193/193/193 192/192/192 
f 179/179/179 177/177/177 193/193/193 
f 177/177/177 194/194/194 193/193/193 
f 177/177/177 175/175/175 194/194/194 
f 175/175/175 195/195/195 194/194/194 
f 175/175/175 171/171/171 195/195/195 
f 171/171/171 196/196/196 195/195/195 
f 171/171/171 174/174/174 196/196/196 
f 174/174/174 197/197/197 196/196/196 
f 200/200/200 199/199/199 198/198/198 
f 199/199/199 201/201/201 198/198/198 
f 200/200/200 198/198/198 202/202/202 
f 203/203/203 200/200/200 202/202/202 
f 203/203/203 202/202/202 204/204/204 
f 205/205/205 203/203/203 204/204/204 
f 205/205/205 204/204/204 206/206/206 
f 207/207/207 205/205/205 206/206/206 
f 207/207/207 206/206/206 208/208/208 
f 209/209/209 207/207/207 208/208/208 
f 209/209/209 208/208/208 210/210/210 
f 211/211/211 209/209/209 210/210/210 
f 211/211/211 210/210/210 212/212/212 
f 213/213/213 211/211/211 212/212/212 
f 213/213/213 212/212/212 214/214/214 
f 215/215/215 213/213/213 214/214/214 
f 214/214/214 212/212/212 216/216/216 
f 212/212/212 217/217/217 216/216/216 
f 212/212/212 210/210/210 217/217/217 
f 210/210/210 218/218/218 217/217/217 
f 210/210/210 208/208/208 218/218/218 
f 208/208/208 219/219/219 218/218/218 
f 208/208/208 206/206/206 219/219/219 
f 206/206/206 220/220/220 219/219/219 
f 206/206/206 204/204/204 220/220/220 
f 204/204/204 221/221/221 220/220/220 
f 204/204/204 202/202/202 221/221/221 
f 202/202/202 222/222/222 221/221/221 
f 202/202/202 198/198/198 222/222/222 
f 198/198/198 223/223/223 222/222/222 
f 198/198/198 201/201/201 223/223/223 
f 201/201/201 224/224/224 223/223/223 
f 227/227/227 226/226/226 225/225/225 
f 226/226/226 228/228/228 225/225/225 
f 226/226/226 229/229/229 228/228/228 
f 229/229/229 230/230/230 228/228/228 
f 229/229/229 231/231/231 230/230/230 
f 231/231/231 232/232/232 230/230/230 
f 231/231/231 233/233/233 232/232/232 
f 233/233/233 234/234/234 232/232/232 
f 233/233/233 235/235/235 234/234/234 
f 235/235/235 236/236/236 234/234/234 
f 235/235/235 237/237/237 236/236/236 
f 237/237/237 238/238/238 236/236/236 
f 237/237/237 239/239/239 238/238/238 
f 239/239/239 240/240/240 238/238/238 
f 239/239/239 241/241/241 240/240/240 
f 241/241/241 242/242/242 240/240/240 
f 243/243/243 241/241/241 239/239/239 
f 244/244/244 243/243/243 239/239/239 
f 244/244/244 239/239/239 237/237/237 
f 245/245/245 244/244/244 237/237/237 
f 245/245/245 237/237/237 235/235/235 
f 246/246/246 245/245/245 235/235/235 
f 246/246/246 235/235/235 233/233/233 
f 247/247/247 246/246/246 233/233/233 
f 247/247/247 233/233/233 231/231/231 
f 248/248/248 247/247/247 231/231/231 
f 248/248/248 231/231/231 229/229/229 
f 249/249/249 248/248/248 229/229/229 
f 249/249/249 229/229/229 226/226/226 
f 250/250/250 249/249/249 226/226/226 
f 250/250/250 226/226/226 227/227/227 
f 251/251/251 250/250/250 227/227/227 
f 254/254/254 253/253/253 252/252/252 
f 253/253/253 255/255/255 252/252/252 
f 253/253/253 256/256/256 255/255/255 
f 256/256/256 257/257/257 255/255/255 
f 256/256/256 258/258/258 257/257/257 
f 258/258/258 259/259/259 257/257/257 
f 258/258/258 260/260/260 259/259/259 
f 260/260/260 261/261/261 259/259/259 
f 260/260/260 262/262/262 261/261/261 
f 262/262/262 263/263/263 261/261/261 
f 262/262/262 264/264/264 263/263/263 
f 264/264/264 265/265/265 263/263/263 
f 264/264/264 266/266/266 265/265/265 
f 266/266/266 267/267/267 265/265/265 
f 266/266/266 268/268/268 267/267/267 
f 268/268/268 269/269/269 267/267/267 
f 270/270/270 268/268/268 266/266/266 
f 271/271/271 270/270/270 266/266/266 
f 271/271/271 266/266/266 264/264/264 
f 272/272/272 271/271/271 264/264/264 
f 272/272/272 264/264/264 262/262/262 
f 273/273/273 272/272/272 262/262/262 
f 273/273/273 262/262/262 260/260/260 
f 274/274/274 273/273/273 260/260/260 
f 274/274/274 260/260/260 258/258/258 
f 275/275/275 274/274/274 258/258/258 
f 275/275/275 258/258/258 256/256/256 
f 276/276/276 275/275/275 256/256/256 
f 276/276/276 256/256/256 253/253/253 
f 277/277/277 276/276/276 253/253/253 
f 277/277/277 253/253/253 254/254/254 
f 278/278/278 277/277/277 254/254/254 
f 279/279/279 270/270/270 271/271/271 
f 280/280/280 279/279/279 271/271/271 
f 280/280/280 271/271/271 272/272/272 
f 281/281/281 280/280/280 272/272/272 
f 281/281/281 272/272/272 273/273/273 
f 282/282/282 281/281/281 273/273/273 
f 282/282/282 273/273/273 274/274/274 
f 283/283/283 282/282/282 274/274/274 
f 283/283/283 274/274/274 275/275/275 
f 284/284/284 283/283/283 275/275/275 
f 284/284/284 275/275/275 276/276/276 
f 285/285/285 284/284/284 276/276/276 
f 285/285/285 276/276/276 277/277/277 
f 286/286/286 285/285/285 277/277/277 
f 286/286/286 277/277/277 278/278/278 
f 287/287/287 286/286/286 278/278/278 
f 290/290/290 289/289/289 288/288/288 
f 289/289/289 291/291/291 288/288/288 
f 289/289/289 292/292/292 291/291/291 
f 292/292/292 293/293/293 291/291/291 
f 292/292/292 294/294/294 293/293/293 
f 294/294/294 295/295/295 293/293/293 
f 294/294/294 296/296/296 295/295/295 
f 296/296/296 297/297/297 295/295/295 
f 296/296/296 298/298/298 297/297/297 
f 298/298/298 299/299/299 297/297/297 
f 298/298/298 300/300/300 299/299/299 
f 300/300/300 301/301/301 299/299/299 
f 300/300/300 302/302/302 301/301/301 
f 302/302/302 303/303/303 301/301/301 
f 302/302/302 304/304/304 303/303/303 
f 304/304/304 305/305/305 303/303/303 
f 308/308/308 307/307/307 306/306/306 
f 308/308/308 306/306/306 309/309/309 
f 308/308/308 309/309/309 310/310/310 
f 308/308/308 310/310/310 311/311/311 
f 308/308/308 311/311/311 312/312/312 
f 308/308/308 312/312/312 313/313/313 
f 308/308/308 313/313/313 314/314/314 
f 308/308/308 314/314/314 307/307/307 
f 317/317/317 316/316/316 315/315/315 
f 317/317/317 318/318/318 316/316/316 
f 317/317/317 319/319/319 318/318/318 
f 317/317/317 320/320/320 319/319/319 
f 317/317/317 321/321/321 320/320/320 
f 317/317/317 322/322/322 321/321/321 
f 317/317/317 323/323/323 322/322/322 
f 317/317/317 315/315/315 323/323/323 
f 326/326/326 325/325/325 324/324/324 
f 325/325/325 327/327/327 324/324/324 
f 328/328/328 325/325/325 326/326/326 
f 329/329/329 328/328/328 326/326/326 
f 330/330/330 328/328/328 329/329/329 
f 331/331/331 330/330/330 329/329/329 
f 332/332/332 330/330/330 331/331/331 
f 333/333/333 332/332/332 331/331/331 
f 334/334/334 332/332/332 333/333/333 
f 335/335/335 334/334/334 333/333/333 
f 336/336/336 334/334/334 335/335/335 
f 337/337/337 336/336/336 335/335/335 
f 338/338/338 336/336/336 337/337/337 
f 339/339/339 338/338/338 337/337/337 
f 340/340/340 338/338/338 339/339/339 
f 341/341/341 340/340/340 339/339/339 
f 336/336/336 342/342/342 334/334/334 
f 342/342/342 343/343/343 334/334/334 
f 334/334/334 343/343/343 332/332/332 
f 342/342/342 344/344/344 343/343/343 
f 345/345/345 344/344/344 342/342/342 
f 346/346/346 345/345/345 342/342/342 
f 338/338/338 346/346/346 336/336/336 
f 346/346/346 342/342/342 336/336/336 
f 347/347/347 345/345/345 346/346/346 
f 348/348/348 347/347/347 346/346/346 
f 340/340/340 348/348/348 338/338/338 
f 348/348/348 346/346/346 338/338/338 
f 344/344/344 349/349/349 343/343/343 
f 343/343/343 349/349/349 350/350/350 
f 349/349/349 351/351/351 350/350/350 
f 350/350/350 351/351/351 352/352/352 
f 351/351/351 353/353/353 352/352/352 
f 352/352/352 353/353/353 354/354/354 
f 353/353/353 355/355/355 354/354/354 
f 354/354/354 355/355/355 356/356/356 
f 355/355/355 357/357/357 356/356/356 
f 356/356/356 357/357/357 358/358/358 
f 357/357/357 359/359/359 358/358/358 
f 350/350/350 352/352/352 330/330/330 
f 332/332/332 350/350/350 330/330/330 
f 343/343/343 350/350/350 332/332/332 
f 330/330/330 352/352/352 328/328/328 
f 352/352/352 354/354/354 328/328/328 
f 328/328/328 354/354/354 325/325/325 
f 354/354/354 356/356/356 325/325/325 
f 325/325/325 356/356/356 327/327/327 
f 356/356/356 358/358/358 327/327/327 
f 362/362/362 361/361/361 360/360/360 
f 360/360/360 361/361/361 363/363/363 
f 363/363/363 361/361/361 364/364/364 
f 364/364/364 361/361/361 365/365/365 
f 365/365/365 361/361/361 366/366/366 
f 366/366/366 361/361/361 367/367/367 
f 367/367/367 361/361/361 368/368/368 
f 368/368/368 361/361/361 362/362/362 
f 371/371/371 370/370/370 369/369/369 
f 372/372/372 370/370/370 371/371/371 
f 373/373/373 370/370/370 372/372/372 
f 374/374/374 370/370/370 373/373/373 
f 375/375/375 370/370/370 374/374/374 
f 376/376/376 370/370/370 375/375/375 
f 377/377/377 370/370/370 376/376/376 
f 369/369/369 370/370/370 377/377/377 
f 380/380/380 379/379/379 378/378/378 
f 379/379/379 381/381/381 378/378/378 
f 382/382/382 379/379/379 380/380/380 
f 383/383/383 382/382/382 380/380/380 
f 384/384/384 382/382/382 383/383/383 
f 385/385/385 384/384/384 383/383/383 
f 386/386/386 384/384/384 385/385/385 
f 387/387/387 386/386/386 385/385/385 
f 388/388/388 386/386/386 387/387/387 
f 389/389/389 388/388/388 387/387/387 
f 390/390/390 388/388/388 389/389/389 
f 391/391/391 390/390/390 389/389/389 
f 392/392/392 390/390/390 391/391/391 
f 393/393/393 392/392/392 391/391/391 
f 394/394/394 392/392/392 393/393/393 
f 395/395/395 394/394/394 393/393/393 
f 398/398/398 397/397/397 396/396/396 
f 396/396/396 397/397/397 399/399/399 
f 399/399/399 397/397/397 400/400/400 
f 400/400/400 397/397/397 401/401/401 
f 401/401/401 397/397/397 402/402/402 
f 402/402/402 397/397/397 403/403/403 
f 403/403/403 397/397/397 404/404/404 
f 404/404/404 397/397/397 398/398/398 
f 407/407/407 406/406/406 405/405/405 
f 408/408/408 406/406/406 407/407/407 
f 409/409/409 406/406/406 408/408/408 
f 410/410/410 406/406/406 409/409/409 
f 411/411/411 406/406/406 410/410/410 
f 412/412/412 406/406/406 411/411/411 
f 413/413/413 406/406/406 412/412/412 
f 405/405/405 406/406/406 413/413/413 
f 416/416/416 415/415/415 414/414/414 
f 415/415/415 417/417/417 414/414/414 
f 414/414/414 417/417/417 418/418/418 
f 417/417/417 419/419/419 418/418/418 
f 418/418/418 419/419/419 420/420/420 
f 419/419/419 421/421/421 420/420/420 
f 420/420/420 421/421/421 422/422/422 
f 421/421/421 423/423/423 422/422/422 
f 422/422/422 423/423/423 424/424/424 
f 423/423/423 425/425/425 424/424/424 
f 424/424/424 425/425/425 426/426/426 
f 425/425/425 427/427/427 426/426/426 
f 426/426/426 427/427/427 428/428/428 
f 427/427/427 429/429/429 428/428/428 
f 428/428/428 429/429/429 430/430/430 
f 429/429/429 431/431/431 430/430/430 
f 428/428/428 430/430/430 432/432/432 
f 433/433/433 428/428/428 432/432/432 
f 426/426/426 428/428/428 433/433/433 
f 434/434/434 426/426/426 433/433/433 
f 424/424/424 426/426/426 434/434/434 
f 435/435/435 424/424/424 434/434/434 
f 422/422/422 424/424/424 435/435/435 
f 436/436/436 422/422/422 435/435/435 
f 420/420/420 422/422/422 436/436/436 
f 437/437/437 420/420/420 436/436/436 
f 418/418/418 420/420/420 437/437/437 
f 438/438/438 418/418/418 437/437/437 
f 414/414/414 418/418/418 438/438/438 
f 439/439/439 414/414/414 438/438/438 
f 416/416/416 414/414/414 439/439/439 
f 440/440/440 416/416/416 439/439/439 
f 443/443/443 442/442/442 441/441/441 
f 442/442/442 444/444/444 441/441/441 
f 441/441/441 444/444/444 445/445/445 
f 444/444/444 446/446/446 445/445/445 
f 445/445/445 446/446/446 447/447/447 
f 446/446/446 448/448/448 447/447/447 
f 447/447/447 448/448/448 449/449/449 
f 448/448/448 450/450/450 449/449/449 
f 449/449/449 450/450/450 451/451/451 
f 450/450/450 452/452/452 451/451/451 
f 451/451/451 452/452/452 453/453/453 
f 452/452/452 454/454/454 453/453/453 
f 453/453/453 454/454/454 455/455/455 
f 454/454/454 456/456/456 455/455/455 
f 455/455/455 456/456/456 457/457/457 
f 456/456/456 458/458/458 457/457/457 
f 455/455/455 457/457/457 459/459/459 
f 460/460/460 455/455/455 459/459/459 
f 453/453/453 455/455/455 460/460/460 
f 461/461/461 453/453/453 460/460/460 
f 451/451/451 453/453/453 461/461/461 
f 462/462/462 451/451/451 461/461/461 
f 449/449/449 451/451/451 462/462/462 
f 463/463/463 449/449/449 462/462/462 
f 447/447/447 449/449/449 463/463/463 
f 464/464/464 447/447/447 463/463/463 
f 445/445/445 447/447/447 464/464/464 
f 465/465/465 445/445/445 464/464/464 
f 441/441/441 445/445/445 465/465/465 
f 466/466/466 441/441/441 465/465/465 
f 443/443/443 441/441/441 466/466/466 
f 467/467/467 443/443/443 466/466/466 
f 470/470/470 469/469/469 468/468/468 
f 469/469/469 471/471/471 468/468/468 
f 472/472/472 469/469/469 470/470/470 
f 473/473/473 472/472/472 470/470/470 
f 474/474/474 472/472/472 473/473/473 
f 475/475/475 474/474/474 473/473/473 
f 476/476/476 474/474/474 475/475/475 
f 477/477/477 476/476/476 475/475/475 
f 478/478/478 476/476/476 477/477/477 
f 479/479/479 478/478/478 477/477/477 
f 480/480/480 478/478/478 479/479/479 
f 481/481/481 480/480/480 479/479/479 
f 482/482/482 480/480/480 481/481/481 
f 483/483/483 482/482/482 481/481/481 
f 484/484/484 482/482/482 483/483/483 
f 485/485/485 484/484/484 483/483/483 
f 484/484/484 486/486/486 482/482/482 
f 486/486/486 487/487/487 482/482/482 
f 482/482/482 487/487/487 480/480/480 
f 487/487/487 488/488/488 480/480/480 
f 480/480/480 488/488/488 478/478/478 
f 488/488/488 489/489/489 478/478/478 
f 478/478/478 489/489/489 476/476/476 
f 489/489/489 490/490/490 476/476/476 
f 476/476/476 490/490/490 474/474/474 
f 490/490/490 491/491/491 474/474/474 
f 474/474/474 491/491/491 472/472/472 
f 491/491/491 492/492/492 472/472/472 
f 472/472/472 492/492/492 469/469/469 
f 492/492/492 493/493/493 469/469/469 
f 469/469/469 493/493/493 471/471/471 
f 493/493/493 494/494/494 471/471/471 
f 497/497/497 496/496/496 495/495/495 
f 496/496/496 498/498/498 495/495/495 
f 499/499/499 496/496/496 497/497/497 
f 500/500/500 499/499/499 497/497/497 
f 501/501/501 499/499/499 500/500/500 
f 502/502/502 501/501/501 500/500/500 
f 503/503/503 501/501/501 502/502/502 
f 504/504/504 503/503/503 502/502/502 
f 505/505/505 503/503/503 504/504/504 
f 506/506/506 505/505/505 504/504/504 
f 507/507/507 505/505/505 506/506/506 
f 508/508/508 507/507/507 506/506/506 
f 509/509/509 507/507/507 508/508/508 
f 510/510/510 509/509/509 508/508/508 
f 511/511/511 509/509/509 510/510/510 
f 512/512/512 511/511/511 510/510/510 
f 511/511/511 513/513/513 509/509/509 
f 513/513/513 514/514/514 509/509/509 
f 509/509/509 514/514/514 507/507/507 
f 514/514/514 515/515/515 507/507/507 
f 507/507/507 515/515/515 505/505/505 
f 515/515/515 516/516/516 505/505/505 
f 505/505/505 516/516/516 503/503/503 
f 516/516/516 517/517/517 503/503/503 
f 503/503/503 517/517/517 501/501/501 
f 517/517/517 518/518/518 501/501/501 
f 501/501/501 518/518/518 499/499/499 
f 518/518/518 519/519/519 499/499/499 
f 499/499/499 519/519/519 496/496/496 
f 519/519/519 520/520/520 496/496/496 
f 496/496/496 520/520/520 498/498/498 
f 520/520/520 521/521/521 498/498/498 
f 513/513/513 522/522/522 514/514/514 
f 522/522/522 523/523/523 514/514/514 
f 514/514/514 523/523/523 515/515/515 
f 523/523/523 524/524/524 515/515/515 
f 515/515/515 524/524/524 516/516/516 
f 524/524/524 525/525/525 516/516/516 
f 516/516/516 525/525/525 517/517/517 
f 525/525/525 526/526/526 517/517/517 
f 517/517/517 526/526/526 518/518/518 
f 526/526/526 527/527/527 518/518/518 
f 518/518/518 527/527/527 519/519/519 
f 527/527/527 528/528/528 519/519/519 
f 519/519/519 528/528/528 520/520/520 
f 528/528/528 529/529/529 520/520/520 
f 520/520/520 529/529/529 521/521/521 
f 529/529/529 530/530/530 521/521/521 
f 533/533/533 532/532/532 531/531/531 
f 532/532/532 534/534/534 531/531/531 
f 535/535/535 532/532/532 533/533/533 
f 536/536/536 535/535/535 533/533/533 
f 537/537/537 535/535/535 536/536/536 
f 538/538/538 537/537/537 536/536/536 
f 539/539/539 537/537/537 538/538/538 
f 540/540/540 539/539/539 538/538/538 
f 541/541/541 539/539/539 540/540/540 
f 542/542/542 541/541/541 540/540/540 
f 543/543/543 541/541/541 542/542/542 
f 544/544/544 543/543/543 542/542/542 
f 545/545/545 543/543/543 544/544/544 
f 546/546/546 545/545/545 544/544/544 
f 547/547/547 545/545/545 546/546/546 
f 548/548/548 547/547/547 546/546/546 
f 551/551/551 550/550/550 549/549/549 
f 549/549/549 550/550/550 552/552/552 
f 552/552/552 550/550/550 553/553/553 
f 553/553/553 550/550/550 554/554/554 
f 554/554/554 550/550/550 555/555/555 
f 555/555/555 550/550/550 556/556/556 
f 556/556/556 550/550/550 557/557/557 
f 557/557/557 550/550/550 551/551/551 
f 560/560/560 559/559/559 558/558/558 
f 561/561/561 559/559/559 560/560/560 
f 562/562/562 559/559/559 561/561/561 
f 563/563/563 559/559/559 562/562/562 
f 564/564/564 559/559/559 563/563/563 
f 565/565/565 559/559/559 564/564/564 
f 566/566/566 559/559/559 565/565/565 
f 558/558/558 559/559/559 566/566/566 

