# Created by DisUnity v0.3.2
v 0.04774269 1.1500702 -3.2900317
v 0.05101343 1.1677281 -3.2088645
v 0.045674928 1.1586848 -3.2750847
v 0.057573788 1.1541914 -3.2087219
v 0.0658629 1.1628406 -3.0751889
v 0.0599796 1.1769583 -3.0753925
v 0.07210087 1.1636589 -2.9105654
v 0.06432043 1.1818904 -2.910567
v 0.068732955 1.1633431 -2.7789454
v 0.063032 1.1771601 -2.7787259
v 0.05349023 1.1718819 -2.663057
v 0.060502958 1.1568602 -2.6436477
v 0.04307884 1.232145 -2.6736724
v 0.051222567 1.2338493 -2.781292
v 0.053477976 1.229943 -2.9115605
v 0.04778626 1.2195898 -3.0789087
v 0.042571105 1.1953398 -3.201094
v 0.037363235 1.2540561 -3.0723782
v 0.038236763 1.2881913 -2.9317315
v 0.031944625 1.307634 -2.946851
v 0.03827701 1.2935437 -2.791923
v 0.032651506 1.2923752 -2.6941326
v 0.028281674 1.318571 -2.7158675
v 0.032860544 1.3172897 -2.7961202
v 0.029636642 1.3277649 -2.8893435
v 0.03412553 1.3099465 -2.878065
v 0.038795646 1.2312486 -2.6170697
v 0.042496372 1.1658003 -2.5297863
v 0.0508748 1.147713 -2.5427873
v 0.02636572 1.3454983 -2.8428857
v 0.030585673 1.3286783 -2.8318574
v 0.024914494 1.3514084 -2.8070557
v 0.027321972 1.3409606 -2.8002849
v 0.023946611 1.34038 -2.7278235
v 0.021993032 1.3509641 -2.7362895
v -0.04883747 1.1500702 -3.2900317
v -0.05210821 1.1677281 -3.2088645
v -0.05866857 1.1541914 -3.2087219
v -0.04676971 1.1586848 -3.2750847
v -0.06695768 1.1628406 -3.0751889
v -0.06107438 1.1769583 -3.0753925
v -0.07319565 1.1636589 -2.9105654
v -0.06541521 1.1818904 -2.910567
v -0.06982773 1.1633431 -2.7789454
v -0.06412678 1.1771601 -2.7787259
v -0.054585006 1.1718819 -2.663057
v -0.06159774 1.1568602 -2.6436477
v -0.04417362 1.232145 -2.6736724
v -0.052317347 1.2338493 -2.781292
v -0.054572757 1.229943 -2.9115605
v -0.04888104 1.2195898 -3.0789087
v -0.043665886 1.1953398 -3.201094
v -0.038458016 1.2540561 -3.0723782
v -0.039331548 1.2881913 -2.9317315
v -0.033039406 1.307634 -2.946851
v -0.039371796 1.2935437 -2.791923
v -0.033746287 1.2923752 -2.6941326
v -0.029376457 1.318571 -2.7158675
v -0.033955324 1.3172897 -2.7961202
v -0.030731425 1.3277649 -2.8893435
v -0.03522031 1.3099465 -2.878065
v -0.03989043 1.2312486 -2.6170697
v -0.04359115 1.1658003 -2.5297863
v -0.05196958 1.147713 -2.5427873
v -0.027460502 1.3454983 -2.8428857
v -0.031680454 1.3286783 -2.8318574
v -0.026009275 1.3514084 -2.8070557
v -0.028416755 1.3409606 -2.8002849
v -0.025041394 1.34038 -2.7278235
v -0.023087813 1.3509641 -2.7362895
v -0.1877729 0.69963515 -3.0259695
v -0.20247084 0.72776306 -3.0242345
v -0.20428646 0.7082255 -3.0352643
v -0.18326166 0.71777046 -3.0134223
v -0.2266651 0.72817135 -3.024701
v -0.22508554 0.7085765 -3.0356655
v -0.24660304 0.71883947 -3.0146441
v -0.2422256 0.70055413 -3.02702
v -0.2546691 0.7033318 -2.9979055
v -0.24915974 0.68722266 -3.01263
v -0.24778226 0.68757176 -2.9808774
v -0.24323934 0.6736742 -2.9979916
v -0.22857311 0.67757916 -2.9700658
v -0.2267258 0.6650839 -2.9886968
v -0.20437884 0.6771709 -2.9695985
v -0.20592672 0.6647329 -2.9882956
v -0.1844409 0.6865029 -2.9796555
v -0.18878666 0.67275524 -2.996941
v -0.17637485 0.70201045 -2.9963946
v -0.1818525 0.6860867 -3.011331
v -0.18326166 0.71777046 -3.0134223
v -0.1877729 0.69963515 -3.0259695
v -0.18341184 0.8695781 -2.8728554
v -0.17652506 0.8538182 -2.8558276
v -0.18459108 0.8383106 -2.8390884
v -0.20452905 0.82897866 -2.8290312
v -0.22872329 0.8293869 -2.8294985
v -0.24793245 0.8393795 -2.8403108
v -0.25481924 0.85513943 -2.8573384
v -0.24675323 0.8706472 -2.8740773
v -0.22681525 0.8799791 -2.884134
v -0.202621 0.8795707 -2.8836675
v -0.18341184 0.8695781 -2.8728554
v -0.24241367 0.8906668 -2.850984
v -0.22527361 0.89868915 -2.8596299
v -0.20447452 0.89833814 -2.8592284
v -0.18796098 0.88974786 -2.8499336
v -0.24342743 0.86378694 -2.8219562
v -0.22691387 0.8551966 -2.8126612
v -0.24934782 0.8773353 -2.836594
v -0.2061148 0.8548456 -2.8122597
v -0.18897472 0.86286795 -2.8209054
v -0.18204059 0.8761994 -2.8352954
v -0.18796098 0.88974786 -2.8499336
v -0.2209133 0.41670775 0.11239748
v 0.26374787 0.5923609 0.10147052
v 0.2209133 0.41670775 0.11239748
v -0.26374787 0.5923609 0.10147052
v -0.1877729 0.69963515 -3.0259695
v -0.20247084 0.72776306 -3.0242345
v -0.18326166 0.71777046 -3.0134223
v -0.20428646 0.7082255 -3.0352643
v -0.2266651 0.72817135 -3.024701
v -0.22508554 0.7085765 -3.0356655
v -0.24660304 0.71883947 -3.0146441
v -0.2422256 0.70055413 -3.02702
v -0.2546691 0.7033318 -2.9979055
v -0.24915974 0.68722266 -3.01263
v -0.24778226 0.68757176 -2.9808774
v -0.24323934 0.6736742 -2.9979916
v -0.22857311 0.67757916 -2.9700658
v -0.2267258 0.6650839 -2.9886968
v -0.20437884 0.6771709 -2.9695985
v -0.20592672 0.6647329 -2.9882956
v -0.1844409 0.6865029 -2.9796555
v -0.18878666 0.67275524 -2.996941
v -0.17637485 0.70201045 -2.9963946
v -0.1818525 0.6860867 -3.011331
v -0.18326166 0.71777046 -3.0134223
v -0.1877729 0.69963515 -3.0259695
v -0.18341184 0.8695781 -2.8728554
v -0.17652506 0.8538182 -2.8558276
v -0.18459108 0.8383106 -2.8390884
v -0.20452905 0.82897866 -2.8290312
v -0.22872329 0.8293869 -2.8294985
v -0.24793245 0.8393795 -2.8403108
v -0.25481924 0.85513943 -2.8573384
v -0.24675323 0.8706472 -2.8740773
v -0.22681525 0.8799791 -2.884134
v -0.202621 0.8795707 -2.8836675
v -0.18341184 0.8695781 -2.8728554
v -0.24241367 0.8906668 -2.850984
v -0.22527361 0.89868915 -2.8596299
v -0.20447452 0.89833814 -2.8592284
v -0.18796098 0.88974786 -2.8499336
v -0.24342743 0.86378694 -2.8219562
v -0.22691387 0.8551966 -2.8126612
v -0.24934782 0.8773353 -2.836594
v -0.2061148 0.8548456 -2.8122597
v -0.18897472 0.86286795 -2.8209054
v -0.18204059 0.8761994 -2.8352954
v -0.18796098 0.88974786 -2.8499336
vn 0.8912741 0.4343114 -0.13039981
vn 0.92561525 0.3630722 -0.10684135
vn 0.9171591 0.37833625 -0.12522349
vn 0.900448 0.42127335 -0.10826865
vn 0.91515243 0.3984313 -0.06122502
vn 0.94093096 0.33259097 -0.06349868
vn 0.9215343 0.3882456 -0.006321976
vn 0.9509257 0.30926242 -0.00985385
vn 0.9067025 0.41830924 0.053924404
vn 0.94837046 0.31293026 0.051653884
vn 0.9440851 0.31694105 0.0908382
vn 0.8918093 0.4422055 0.09555379
vn 0.97789663 0.19376263 0.07857667
vn 0.9763996 0.2119558 0.041455675
vn 0.9726509 0.23152746 -0.018581165
vn 0.95979184 0.27159822 -0.07095127
vn 0.94698185 0.30410212 -0.103669204
vn 0.95144033 0.2949829 -0.08801334
vn 0.969236 0.24381183 -0.033724535
vn 0.96164185 0.2683071 -0.05706388
vn 0.97547626 0.2181412 0.029334806
vn 0.9758898 0.20771608 0.06703093
vn 0.97311795 0.22421128 0.052637756
vn 0.97590184 0.21671541 0.02549489
vn 0.9698409 0.2419547 -0.02943855
vn 0.9741065 0.22555375 -0.015556643
vn 0.97918236 0.1860181 0.08123553
vn 0.94600385 0.30925673 0.09714452
vn 0.89351416 0.4360845 0.107063785
vn 0.9719337 0.23511623 -0.008074443
vn 0.9742389 0.22547866 -0.0042498005
vn 0.9714517 0.23602149 0.02398857
vn 0.9736249 0.22675331 0.025247822
vn 0.97179306 0.23110761 0.04698366
vn 0.97132915 0.23356046 0.044375017
vn -0.89127487 0.4343098 -0.1303994
vn -0.92561525 0.36307207 -0.1068414
vn -0.90044826 0.42127278 -0.10826865
vn -0.9171592 0.37833592 -0.12522344
vn -0.9151525 0.3984313 -0.061225045
vn -0.940931 0.33259094 -0.06349867
vn -0.9215342 0.3882458 -0.0063218037
vn -0.95092565 0.30926266 -0.009853733
vn -0.90670246 0.4183095 0.05392426
vn -0.9483704 0.31293046 0.05165391
vn -0.94408524 0.3169408 0.09083825
vn -0.89180946 0.44220516 0.095553815
vn -0.9778966 0.19376272 0.07857669
vn -0.97639954 0.21195588 0.041455705
vn -0.9726509 0.23152755 -0.018581152
vn -0.95979184 0.27159807 -0.070951276
vn -0.9469817 0.30410236 -0.10366938
vn -0.9514404 0.2949828 -0.08801343
vn -0.969236 0.24381159 -0.033724483
vn -0.961642 0.26830631 -0.057063736
vn -0.9754762 0.21814133 0.029334763
vn -0.9758898 0.20771623 0.06703087
vn -0.9731179 0.22421145 0.052637782
vn -0.97590184 0.21671572 0.025494924
vn -0.96984124 0.24195322 -0.029438378
vn -0.97410667 0.22555324 -0.0155565385
vn -0.9791823 0.18601832 0.08123551
vn -0.9460039 0.30925652 0.09714469
vn -0.8935143 0.43608433 0.10706416
vn -0.97193366 0.2351165 -0.008073997
vn -0.9742388 0.22547896 -0.004249499
vn -0.97145146 0.23602232 0.02398889
vn -0.97362477 0.22675389 0.025247993
vn -0.9717931 0.23110747 0.046983633
vn -0.9713294 0.2335598 0.04437493
vn 0.79906166 0.19478077 -0.56882405
vn 0.33082408 0.5454955 -0.77005845
vn 0.32336947 0.44223458 -0.8365768
vn 0.81762576 0.29226318 -0.49605468
vn -0.28230274 0.55584186 -0.7818855
vn -0.27577493 0.4523458 -0.8481341
vn -0.7875594 0.31935662 -0.5270309
vn -0.76950216 0.22125542 -0.599093
vn -0.99196935 -0.07363596 -0.102832876
vn -0.96924543 -0.162769 -0.18457933
vn -0.8174445 -0.47302526 0.3286816
vn -0.798702 -0.5530482 0.23709252
vn -0.33064976 -0.7262551 0.6026809
vn -0.3230144 -0.800499 0.50483954
vn 0.2824773 -0.73660296 0.61451006
vn 0.27612263 -0.81061083 0.5163976
vn 0.787743 -0.50011265 0.3596503
vn 0.7698598 -0.57951546 0.2673532
vn 0.9921485 -0.10712244 -0.0645453
vn 0.9696011 -0.1954924 -0.14716096
vn 0.81762576 0.29226318 -0.49605468
vn 0.79906166 0.19478077 -0.56882405
vn 0.82044095 0.4496593 -0.35310516
vn 0.99560064 0.04881915 0.07997564
vn 0.79045033 -0.34559894 0.5057171
vn 0.28335157 -0.5829459 0.76150244
vn -0.3320076 -0.57256305 0.74962825
vn -0.820573 -0.31841257 0.47462988
vn -0.9957306 0.08242574 0.04155235
vn -0.79057753 0.47684833 -0.3841911
vn -0.2834795 0.7141935 -0.6399743
vn 0.3318712 0.7038108 -0.6281018
vn 0.82044095 0.4496593 -0.35310516
vn -0.7811471 0.53690463 -0.3186575
vn -0.2801379 0.7714009 -0.5713697
vn 0.32782185 0.7611421 -0.55963874
vn 0.81051755 0.51004636 -0.287948
vn -0.8107811 -0.2488011 0.5298415
vn -0.328084 -0.49989697 0.80153847
vn -0.9838334 0.1472215 0.10196932
vn 0.27988505 -0.5101523 0.81327057
vn 0.7808876 -0.27565935 0.56055903
vn 0.98357445 0.1140194 0.13993189
vn 0.81051755 0.51004636 -0.287948
vn -0.0 0.06208754 0.9980707
vn -0.0 0.06208754 0.9980707
vn -0.0 0.06208754 0.9980707
vn -0.0 0.06208754 0.9980707
vn -0.79906094 -0.19478072 0.5688251
vn -0.330824 -0.5454954 0.77005863
vn -0.81762516 -0.29226345 0.49605563
vn -0.3233705 -0.44223404 0.83657676
vn 0.28230262 -0.5558414 0.7818859
vn 0.2757738 -0.45234513 0.8481349
vn 0.78755957 -0.31935585 0.5270311
vn 0.7695013 -0.22125486 0.5990943
vn 0.9919692 0.0736365 0.10283357
vn 0.969245 0.16276984 0.18458098
vn 0.8174438 0.47302645 -0.32868177
vn 0.7987014 0.5530494 -0.23709172
vn 0.33064902 0.72625554 -0.6026807
vn 0.3230134 0.8004999 -0.5048389
vn -0.2824759 0.7366037 -0.61450994
vn -0.27612227 0.8106115 -0.5163966
vn -0.7877416 0.5001143 -0.3596509
vn -0.7698583 0.57951736 -0.26735324
vn -0.9921484 0.10712346 0.06454535
vn -0.9696008 0.19549361 0.14716189
vn -0.81762516 -0.29226345 0.49605563
vn -0.79906094 -0.19478072 0.5688251
vn -0.820441 -0.44965896 0.35310537
vn -0.99560064 -0.04881797 -0.07997606
vn -0.79044974 0.34559953 -0.50571746
vn -0.28334948 0.58294624 -0.7615029
vn 0.33200753 0.57256275 -0.7496285
vn 0.8205723 0.31841305 -0.4746306
vn 0.9957306 -0.08242566 -0.041551992
vn 0.79057837 -0.4768478 0.38419008
vn 0.28348044 -0.7141936 0.63997364
vn -0.3318705 -0.703811 0.62810194
vn -0.820441 -0.44965896 0.35310537
vn 0.7811476 -0.5369046 0.3186564
vn 0.28013876 -0.7714014 0.57136863
vn -0.32782182 -0.7611424 0.5596384
vn -0.8105185 -0.510045 0.28794777
vn 0.8107807 0.24880122 -0.52984196
vn 0.32808432 0.49989647 -0.8015386
vn 0.98383343 -0.14722162 -0.1019683
vn -0.2798833 0.5101526 -0.8132709
vn -0.78088784 0.27565932 -0.5605588
vn -0.98357457 -0.114017844 -0.13993192
vn -0.8105185 -0.510045 0.28794777
vt 0.9306072 0.30044317
vt 0.8386598 0.2752236
vt 0.9136753 0.28813946
vt 0.8384985 0.2945572
vt 0.68723094 0.28220415
vt 0.6874613 0.2620405
vt 0.5007437 0.28103542
vt 0.50074536 0.2549963
vt 0.35164326 0.2814864
vt 0.3513942 0.26175237
vt 0.22036359 0.26929092
vt 0.1983763 0.2907455
vt 0.2323887 0.18322098
vt 0.35430127 0.18078673
vt 0.501871 0.18636572
vt 0.69144475 0.20115268
vt 0.82985777 0.23578751
vt 0.6840471 0.15192664
vt 0.52472085 0.103173256
vt 0.5418484 0.075404644
vt 0.36634445 0.09552884
vt 0.2555661 0.09719789
vt 0.2801878 0.059783936
vt 0.37109888 0.061613917
vt 0.47670332 0.046652913
vt 0.46392688 0.07210171
vt 0.16826841 0.18450105
vt 0.0693928 0.27797687
vt 0.08412048 0.30381
vt 0.4240753 0.021325469
vt 0.41158244 0.045348406
vt 0.3834866 0.012884378
vt 0.3758167 0.027806163
vt 0.2937315 0.028635621
vt 0.30332205 0.013519049
vt 0.0693928 0.5914069
vt 0.16134018 0.56618726
vt 0.16150156 0.5855209
vt 0.08632469 0.5791032
vt 0.31276906 0.57316786
vt 0.31253868 0.5530042
vt 0.49925628 0.57199913
vt 0.49925464 0.54596
vt 0.64835674 0.5724501
vt 0.6486058 0.5527161
vt 0.7796364 0.5602546
vt 0.8016237 0.5817092
vt 0.76761127 0.47418463
vt 0.6456987 0.47175044
vt 0.49812904 0.4773295
vt 0.30855528 0.4921164
vt 0.17014223 0.5267513
vt 0.3159529 0.4428903
vt 0.47527915 0.39413697
vt 0.45815158 0.36636835
vt 0.63365555 0.38649255
vt 0.7444339 0.38816154
vt 0.7198122 0.35074764
vt 0.6289011 0.35257763
vt 0.5232967 0.33761662
vt 0.5360731 0.36306542
vt 0.83173156 0.47546476
vt 0.9306072 0.5689405
vt 0.9158795 0.59477365
vt 0.5759247 0.31228912
vt 0.58841753 0.33631206
vt 0.61651343 0.3038481
vt 0.6241833 0.3187698
vt 0.7062685 0.31959927
vt 0.6966779 0.3044827
vt 0.01283282 0.9847079
vt 0.052207053 0.931973
vt 0.052207053 0.9847079
vt 0.012832819 0.931973
vt 0.091581285 0.931973
vt 0.091581285 0.9847079
vt 0.13095552 0.931973
vt 0.13095552 0.9847079
vt 0.17032978 0.931973
vt 0.17032978 0.9847079
vt 0.20970398 0.931973
vt 0.20970398 0.9847079
vt 0.24907815 0.931973
vt 0.24907815 0.9847079
vt 0.28845233 0.931973
vt 0.28845233 0.9847079
vt 0.3278265 0.931973
vt 0.3278265 0.9847079
vt 0.36720073 0.931973
vt 0.36720073 0.9847079
vt 0.4065749 0.931973
vt 0.4065749 0.9847079
vt 0.4065749 0.67390573
vt 0.36720073 0.67390573
vt 0.3278265 0.67390573
vt 0.28845233 0.67390573
vt 0.24907815 0.67390573
vt 0.20970398 0.67390573
vt 0.17032978 0.67390573
vt 0.13095552 0.67390573
vt 0.091581285 0.67390573
vt 0.052207053 0.67390573
vt 0.01283282 0.67390573
vt 0.13095552 0.60876805
vt 0.091581285 0.60876805
vt 0.052207053 0.60876805
vt 0.01283282 0.60876805
vt 0.20970398 0.60876805
vt 0.24907815 0.60876805
vt 0.17032978 0.60876805
vt 0.28845233 0.60876805
vt 0.3278265 0.60876805
vt 0.36720073 0.60876805
vt 0.4065749 0.60876805
vt 0.47311163 0.9880365
vt 0.9945979 0.76829803
vt 0.94850886 0.9880365
vt 0.4270225 0.76829803
vt 0.01283282 0.9847079
vt 0.052207053 0.931973
vt 0.012832819 0.931973
vt 0.052207053 0.9847079
vt 0.091581285 0.931973
vt 0.091581285 0.9847079
vt 0.13095552 0.931973
vt 0.13095552 0.9847079
vt 0.17032978 0.931973
vt 0.17032978 0.9847079
vt 0.20970398 0.931973
vt 0.20970398 0.9847079
vt 0.24907815 0.931973
vt 0.24907815 0.9847079
vt 0.28845233 0.931973
vt 0.28845233 0.9847079
vt 0.3278265 0.931973
vt 0.3278265 0.9847079
vt 0.36720073 0.931973
vt 0.36720073 0.9847079
vt 0.4065749 0.931973
vt 0.4065749 0.9847079
vt 0.4065749 0.67390573
vt 0.36720073 0.67390573
vt 0.3278265 0.67390573
vt 0.28845233 0.67390573
vt 0.24907815 0.67390573
vt 0.20970398 0.67390573
vt 0.17032978 0.67390573
vt 0.13095552 0.67390573
vt 0.091581285 0.67390573
vt 0.052207053 0.67390573
vt 0.01283282 0.67390573
vt 0.13095552 0.60876805
vt 0.091581285 0.60876805
vt 0.052207053 0.60876805
vt 0.01283282 0.60876805
vt 0.20970398 0.60876805
vt 0.24907815 0.60876805
vt 0.17032978 0.60876805
vt 0.28845233 0.60876805
vt 0.3278265 0.60876805
vt 0.36720073 0.60876805
vt 0.4065749 0.60876805

g Slingshot_Trans
s 1
usemtl Slingshot_Trans
f 3/3/3 2/2/2 1/1/1 
f 2/2/2 4/4/4 1/1/1 
f 4/4/4 2/2/2 5/5/5 
f 2/2/2 6/6/6 5/5/5 
f 5/5/5 6/6/6 7/7/7 
f 6/6/6 8/8/8 7/7/7 
f 7/7/7 8/8/8 9/9/9 
f 8/8/8 10/10/10 9/9/9 
f 10/10/10 11/11/11 9/9/9 
f 11/11/11 12/12/12 9/9/9 
f 11/11/11 10/10/10 13/13/13 
f 10/10/10 14/14/14 13/13/13 
f 10/10/10 8/8/8 14/14/14 
f 8/8/8 15/15/15 14/14/14 
f 8/8/8 6/6/6 15/15/15 
f 6/6/6 16/16/16 15/15/15 
f 6/6/6 2/2/2 16/16/16 
f 17/17/17 2/2/2 3/3/3 
f 2/2/2 17/17/17 16/16/16 
f 17/17/17 18/18/18 16/16/16 
f 16/16/16 18/18/18 19/19/19 
f 15/15/15 19/19/19 14/14/14 
f 19/19/19 15/15/15 16/16/16 
f 18/18/18 20/20/20 19/19/19 
f 19/19/19 21/21/21 14/14/14 
f 21/21/21 22/22/22 14/14/14 
f 22/22/22 13/13/13 14/14/14 
f 22/22/22 21/21/21 23/23/23 
f 21/21/21 24/24/24 23/23/23 
f 20/20/20 25/25/25 19/19/19 
f 25/25/25 26/26/26 19/19/19 
f 24/24/24 21/21/21 26/26/26 
f 21/21/21 19/19/19 26/26/26 
f 22/22/22 27/27/27 13/13/13 
f 11/11/11 13/13/13 27/27/27 
f 28/28/28 11/11/11 27/27/27 
f 11/11/11 28/28/28 12/12/12 
f 28/28/28 29/29/29 12/12/12 
f 25/25/25 30/30/30 26/26/26 
f 30/30/30 31/31/31 26/26/26 
f 24/24/24 26/26/26 31/31/31 
f 30/30/30 32/32/32 31/31/31 
f 32/32/32 33/33/33 31/31/31 
f 33/33/33 24/24/24 31/31/31 
f 33/33/33 32/32/32 34/34/34 
f 23/23/23 24/24/24 34/34/34 
f 24/24/24 33/33/33 34/34/34 
f 32/32/32 35/35/35 34/34/34 
f 38/38/38 37/37/37 36/36/36 
f 37/37/37 39/39/39 36/36/36 
f 37/37/37 38/38/38 40/40/40 
f 41/41/41 37/37/37 40/40/40 
f 41/41/41 40/40/40 42/42/42 
f 43/43/43 41/41/41 42/42/42 
f 43/43/43 42/42/42 44/44/44 
f 45/45/45 43/43/43 44/44/44 
f 46/46/46 45/45/45 44/44/44 
f 47/47/47 46/46/46 44/44/44 
f 45/45/45 46/46/46 48/48/48 
f 49/49/49 45/45/45 48/48/48 
f 43/43/43 45/45/45 49/49/49 
f 50/50/50 43/43/43 49/49/49 
f 41/41/41 43/43/43 50/50/50 
f 51/51/51 41/41/41 50/50/50 
f 37/37/37 41/41/41 51/51/51 
f 37/37/37 52/52/52 39/39/39 
f 52/52/52 37/37/37 51/51/51 
f 53/53/53 52/52/52 51/51/51 
f 53/53/53 51/51/51 54/54/54 
f 54/54/54 50/50/50 49/49/49 
f 50/50/50 54/54/54 51/51/51 
f 55/55/55 53/53/53 54/54/54 
f 56/56/56 54/54/54 49/49/49 
f 48/48/48 57/57/57 49/49/49 
f 57/57/57 56/56/56 49/49/49 
f 56/56/56 57/57/57 58/58/58 
f 59/59/59 56/56/56 58/58/58 
f 60/60/60 55/55/55 54/54/54 
f 61/61/61 60/60/60 54/54/54 
f 54/54/54 56/56/56 61/61/61 
f 56/56/56 59/59/59 61/61/61 
f 62/62/62 57/57/57 48/48/48 
f 48/48/48 46/46/46 62/62/62 
f 46/46/46 63/63/63 62/62/62 
f 63/63/63 46/46/46 47/47/47 
f 64/64/64 63/63/63 47/47/47 
f 65/65/65 60/60/60 61/61/61 
f 66/66/66 65/65/65 61/61/61 
f 61/61/61 59/59/59 66/66/66 
f 67/67/67 65/65/65 66/66/66 
f 68/68/68 67/67/67 66/66/66 
f 59/59/59 68/68/68 66/66/66 
f 67/67/67 68/68/68 69/69/69 
f 68/68/68 59/59/59 69/69/69 
f 59/59/59 58/58/58 69/69/69 
f 70/70/70 67/67/67 69/69/69 
f 73/73/73 72/72/72 71/71/71 
f 72/72/72 74/74/74 71/71/71 
f 75/75/75 72/72/72 73/73/73 
f 76/76/76 75/75/75 73/73/73 
f 77/77/77 75/75/75 76/76/76 
f 78/78/78 77/77/77 76/76/76 
f 79/79/79 77/77/77 78/78/78 
f 80/80/80 79/79/79 78/78/78 
f 81/81/81 79/79/79 80/80/80 
f 82/82/82 81/81/81 80/80/80 
f 83/83/83 81/81/81 82/82/82 
f 84/84/84 83/83/83 82/82/82 
f 85/85/85 83/83/83 84/84/84 
f 86/86/86 85/85/85 84/84/84 
f 87/87/87 85/85/85 86/86/86 
f 88/88/88 87/87/87 86/86/86 
f 89/89/89 87/87/87 88/88/88 
f 90/90/90 89/89/89 88/88/88 
f 91/91/91 89/89/89 90/90/90 
f 92/92/92 91/91/91 90/90/90 
f 91/91/91 93/93/93 89/89/89 
f 93/93/93 94/94/94 89/89/89 
f 89/89/89 94/94/94 87/87/87 
f 94/94/94 95/95/95 87/87/87 
f 87/87/87 95/95/95 85/85/85 
f 95/95/95 96/96/96 85/85/85 
f 85/85/85 96/96/96 83/83/83 
f 96/96/96 97/97/97 83/83/83 
f 83/83/83 97/97/97 81/81/81 
f 97/97/97 98/98/98 81/81/81 
f 81/81/81 98/98/98 79/79/79 
f 98/98/98 99/99/99 79/79/79 
f 79/79/79 99/99/99 77/77/77 
f 99/99/99 100/100/100 77/77/77 
f 77/77/77 100/100/100 75/75/75 
f 100/100/100 101/101/101 75/75/75 
f 75/75/75 101/101/101 72/72/72 
f 101/101/101 102/102/102 72/72/72 
f 72/72/72 102/102/102 74/74/74 
f 102/102/102 103/103/103 74/74/74 
f 100/100/100 104/104/104 101/101/101 
f 104/104/104 105/105/105 101/101/101 
f 101/101/101 105/105/105 102/102/102 
f 105/105/105 106/106/106 102/102/102 
f 102/102/102 106/106/106 103/103/103 
f 106/106/106 107/107/107 103/103/103 
f 98/98/98 108/108/108 99/99/99 
f 109/109/109 108/108/108 98/98/98 
f 108/108/108 110/110/110 99/99/99 
f 99/99/99 110/110/110 100/100/100 
f 110/110/110 104/104/104 100/100/100 
f 111/111/111 109/109/109 97/97/97 
f 96/96/96 111/111/111 97/97/97 
f 112/112/112 111/111/111 96/96/96 
f 95/95/95 112/112/112 96/96/96 
f 113/113/113 112/112/112 95/95/95 
f 94/94/94 113/113/113 95/95/95 
f 114/114/114 113/113/113 94/94/94 
f 93/93/93 114/114/114 94/94/94 
f 97/97/97 109/109/109 98/98/98 
f 117/117/117 116/116/116 115/115/115 
f 116/116/116 118/118/118 115/115/115 
f 121/121/121 120/120/120 119/119/119 
f 120/120/120 122/122/122 119/119/119 
f 120/120/120 123/123/123 122/122/122 
f 123/123/123 124/124/124 122/122/122 
f 123/123/123 125/125/125 124/124/124 
f 125/125/125 126/126/126 124/124/124 
f 125/125/125 127/127/127 126/126/126 
f 127/127/127 128/128/128 126/126/126 
f 127/127/127 129/129/129 128/128/128 
f 129/129/129 130/130/130 128/128/128 
f 129/129/129 131/131/131 130/130/130 
f 131/131/131 132/132/132 130/130/130 
f 131/131/131 133/133/133 132/132/132 
f 133/133/133 134/134/134 132/132/132 
f 133/133/133 135/135/135 134/134/134 
f 135/135/135 136/136/136 134/134/134 
f 135/135/135 137/137/137 136/136/136 
f 137/137/137 138/138/138 136/136/136 
f 137/137/137 139/139/139 138/138/138 
f 139/139/139 140/140/140 138/138/138 
f 141/141/141 139/139/139 137/137/137 
f 142/142/142 141/141/141 137/137/137 
f 142/142/142 137/137/137 135/135/135 
f 143/143/143 142/142/142 135/135/135 
f 143/143/143 135/135/135 133/133/133 
f 144/144/144 143/143/143 133/133/133 
f 144/144/144 133/133/133 131/131/131 
f 145/145/145 144/144/144 131/131/131 
f 145/145/145 131/131/131 129/129/129 
f 146/146/146 145/145/145 129/129/129 
f 146/146/146 129/129/129 127/127/127 
f 147/147/147 146/146/146 127/127/127 
f 147/147/147 127/127/127 125/125/125 
f 148/148/148 147/147/147 125/125/125 
f 148/148/148 125/125/125 123/123/123 
f 149/149/149 148/148/148 123/123/123 
f 149/149/149 123/123/123 120/120/120 
f 150/150/150 149/149/149 120/120/120 
f 150/150/150 120/120/120 121/121/121 
f 151/151/151 150/150/150 121/121/121 
f 152/152/152 148/148/148 149/149/149 
f 153/153/153 152/152/152 149/149/149 
f 153/153/153 149/149/149 150/150/150 
f 154/154/154 153/153/153 150/150/150 
f 154/154/154 150/150/150 151/151/151 
f 155/155/155 154/154/154 151/151/151 
f 156/156/156 146/146/146 147/147/147 
f 156/156/156 157/157/157 146/146/146 
f 158/158/158 156/156/156 147/147/147 
f 152/152/152 158/158/158 148/148/148 
f 158/158/158 147/147/147 148/148/148 
f 157/157/157 159/159/159 145/145/145 
f 159/159/159 144/144/144 145/145/145 
f 159/159/159 160/160/160 144/144/144 
f 160/160/160 143/143/143 144/144/144 
f 160/160/160 161/161/161 143/143/143 
f 161/161/161 142/142/142 143/143/143 
f 161/161/161 162/162/162 142/142/142 
f 162/162/162 141/141/141 142/142/142 
f 157/157/157 145/145/145 146/146/146 

