# Created by DisUnity v0.3.2
v -0.73440033 0.7725383 -0.013077669
v -0.7161577 0.7876576 -0.007089639
v -0.7324202 0.7713951 -0.007089639
v -0.71730083 0.78963774 -0.013077669
v -0.6939426 0.79361004 -0.007089639
v -0.6939426 0.7958966 -0.013077669
v -0.6717276 0.7876576 -0.007089639
v -0.6705844 0.78963774 -0.013077669
v -0.65546507 0.7713951 -0.007089639
v -0.65348494 0.7725383 -0.013077669
v -0.64951265 0.7491801 -0.007089639
v -0.6472261 0.7491801 -0.013077669
v -0.65546507 0.726965 -0.007089639
v -0.65348494 0.7258218 -0.013077669
v -0.6717276 0.7107025 -0.007089639
v -0.6705844 0.70872235 -0.013077669
v -0.6939426 0.70475006 -0.007089639
v -0.6939426 0.7024635 -0.013077669
v -0.7161577 0.7107025 -0.007089639
v -0.71730083 0.70872235 -0.013077669
v -0.7324202 0.726965 -0.007089639
v -0.73440033 0.7258218 -0.013077669
v -0.7383726 0.7491801 -0.007089639
v -0.7406592 0.7491801 -0.013077669
v -0.7324202 0.7713951 -0.007089639
v -0.73440033 0.7725383 -0.013077669
v -0.66121167 0.7302828 -0.0016877579
v -0.6750454 0.7164491 -0.0016877579
v -0.6939426 0.7113856 -0.0016877579
v -0.7128399 0.7164491 -0.0016877579
v -0.72667354 0.7302828 -0.0016877579
v -0.731737 0.7491801 -0.0016877579
v -0.72667354 0.7680773 -0.0016877579
v -0.680213 0.7253996 0.0025991988
v -0.6701622 0.73545045 0.0025991988
v -0.6561482 0.7491801 -0.0016877579
v -0.66121167 0.7680773 -0.0016877579
v -0.6750454 0.781911 -0.0016877579
v -0.6939426 0.7869745 -0.0016877579
v -0.7128399 0.781911 -0.0016877579
v -0.72667354 0.7680773 -0.0016877579
v -0.70767224 0.7729605 0.0025991988
v -0.7177231 0.7629097 0.0025991988
v -0.6939426 0.7766393 0.0025991988
v -0.680213 0.7729605 0.0025991988
v -0.6701622 0.7629097 0.0025991988
v -0.66648334 0.7491801 0.0025991988
v -0.7011607 0.7616822 0.0053515946
v -0.70644474 0.75639814 0.0053515946
v -0.6939426 0.76361626 0.0053515946
v -0.68672454 0.7616822 0.0053515946
v -0.6814405 0.75639814 0.0053515946
v -0.6795064 0.7491801 0.0053515946
v -0.6814405 0.74196196 0.0053515946
v -0.68672454 0.73667794 0.0053515946
v -0.6939426 0.7347439 0.0053515946
v -0.6939426 0.7217208 0.0025991988
v -0.70767224 0.7253996 0.0025991988
v -0.7177231 0.73545045 0.0025991988
v -0.7214019 0.7491801 0.0025991988
v -0.7177231 0.7629097 0.0025991988
v -0.7011607 0.73667794 0.0053515946
v -0.70644474 0.74196196 0.0053515946
v -0.7083788 0.7491801 0.0053515946
v -0.70644474 0.75639814 0.0053515946
v -0.6939426 0.7491801 0.0063000047
v -0.6939426 0.7491801 0.0063000047
v -0.6939426 0.7491801 0.0063000047
v -0.6939426 0.7491801 0.0063000047
v -0.6939426 0.7491801 0.0063000047
v -0.6939426 0.7491801 0.0063000047
v -0.6939426 0.7491801 0.0063000047
v -0.6939426 0.7491801 0.0063000047
v -0.6939426 0.7491801 0.0063000047
v -0.6939426 0.7491801 0.0063000047
v -0.6939426 0.7491801 0.0063000047
v -0.6939426 0.7491801 0.0063000047
v -0.1090069 0.7387845 -5.1865742E-18
v -0.09076423 0.7539038 0.009937305
v -0.107026756 0.7376413 0.009937305
v -0.09190747 0.75588393 -8.98341E-18
v -0.068549216 0.7598562 0.009937305
v -0.068549216 0.7621428 -1.03731485E-17
v -0.0463342 0.7539038 0.009937305
v -0.045190964 0.75588393 -8.98341E-18
v -0.030071676 0.7376413 0.009937305
v -0.028091535 0.7387845 -5.1865742E-18
v -0.024119176 0.71542627 0.009937305
v -0.021832708 0.71542627 0.0
v -0.030071676 0.6932112 0.009937305
v -0.028091535 0.692068 5.1865742E-18
v -0.0463342 0.67694867 0.009937305
v -0.045190964 0.67496854 8.98341E-18
v -0.068549216 0.67099625 0.009937305
v -0.068549216 0.6687097 1.03731485E-17
v -0.09076423 0.67694867 0.009937305
v -0.09190747 0.67496854 8.98341E-18
v -0.107026756 0.6932112 0.009937305
v -0.1090069 0.692068 5.1865742E-18
v -0.112979256 0.71542627 0.009937305
v -0.11526573 0.71542627 0.0
v -0.107026756 0.7376413 0.009937305
v -0.1090069 0.7387845 -5.1865742E-18
v -0.035818268 0.696529 0.018901877
v -0.049651995 0.68269527 0.018901877
v -0.068549216 0.6776318 0.018901877
v -0.08744644 0.68269527 0.018901877
v -0.101280175 0.696529 0.018901877
v -0.106343664 0.71542627 0.018901877
v -0.101280175 0.7343235 0.018901877
v -0.054819576 0.6916458 0.026016204
v -0.04476879 0.70169663 0.026016204
v -0.030754767 0.71542627 0.018901877
v -0.035818268 0.7343235 0.018901877
v -0.049651995 0.7481572 0.018901877
v -0.068549216 0.7532207 0.018901877
v -0.08744644 0.7481572 0.018901877
v -0.101280175 0.7343235 0.018901877
v -0.08227885 0.7392067 0.026016204
v -0.09232964 0.72915584 0.026016204
v -0.068549216 0.7428855 0.026016204
v -0.054819576 0.7392067 0.026016204
v -0.04476879 0.72915584 0.026016204
v -0.041089945 0.71542627 0.026016204
v -0.075767316 0.7279284 0.03058388
v -0.08105133 0.7226443 0.03058388
v -0.068549216 0.72986245 0.03058388
v -0.06133112 0.7279284 0.03058388
v -0.056047104 0.7226443 0.03058388
v -0.05411302 0.71542627 0.03058388
v -0.056047104 0.70820814 0.03058388
v -0.06133112 0.7029241 0.03058388
v -0.068549216 0.70099 0.03058388
v -0.068549216 0.687967 0.026016204
v -0.08227885 0.6916458 0.026016204
v -0.09232964 0.70169663 0.026016204
v -0.09600849 0.71542627 0.026016204
v -0.09232964 0.72915584 0.026016204
v -0.075767316 0.7029241 0.03058388
v -0.08105133 0.70820814 0.03058388
v -0.08298541 0.71542627 0.03058388
v -0.08105133 0.7226443 0.03058388
v -0.068549216 0.71542627 0.032157794
v -0.068549216 0.71542627 0.032157794
v -0.068549216 0.71542627 0.032157794
v -0.068549216 0.71542627 0.032157794
v -0.068549216 0.71542627 0.032157794
v -0.068549216 0.71542627 0.032157794
v -0.068549216 0.71542627 0.032157794
v -0.068549216 0.71542627 0.032157794
v -0.068549216 0.71542627 0.032157794
v -0.068549216 0.71542627 0.032157794
v -0.068549216 0.71542627 0.032157794
v -0.068549216 0.71542627 0.032157794
v 0.73440033 0.7725383 -0.013077669
v 0.7161577 0.7876576 -0.007089639
v 0.71730083 0.78963774 -0.013077669
v 0.7324202 0.7713951 -0.007089639
v 0.6939426 0.79361004 -0.007089639
v 0.6939426 0.7958966 -0.013077669
v 0.6717276 0.7876576 -0.007089639
v 0.6705844 0.78963774 -0.013077669
v 0.65546507 0.7713951 -0.007089639
v 0.65348494 0.7725383 -0.013077669
v 0.64951265 0.7491801 -0.007089639
v 0.6472261 0.7491801 -0.013077669
v 0.65546507 0.726965 -0.007089639
v 0.65348494 0.7258218 -0.013077669
v 0.6717276 0.7107025 -0.007089639
v 0.6705844 0.70872235 -0.013077669
v 0.6939426 0.70475006 -0.007089639
v 0.6939426 0.7024635 -0.013077669
v 0.7161577 0.7107025 -0.007089639
v 0.71730083 0.70872235 -0.013077669
v 0.7324202 0.726965 -0.007089639
v 0.73440033 0.7258218 -0.013077669
v 0.7383726 0.7491801 -0.007089639
v 0.7406592 0.7491801 -0.013077669
v 0.7324202 0.7713951 -0.007089639
v 0.73440033 0.7725383 -0.013077669
v 0.66121167 0.7302828 -0.0016877579
v 0.6750454 0.7164491 -0.0016877579
v 0.6939426 0.7113856 -0.0016877579
v 0.7128399 0.7164491 -0.0016877579
v 0.72667354 0.7302828 -0.0016877579
v 0.731737 0.7491801 -0.0016877579
v 0.72667354 0.7680773 -0.0016877579
v 0.680213 0.7253996 0.0025991988
v 0.6701622 0.73545045 0.0025991988
v 0.6561482 0.7491801 -0.0016877579
v 0.66121167 0.7680773 -0.0016877579
v 0.6750454 0.781911 -0.0016877579
v 0.6939426 0.7869745 -0.0016877579
v 0.7128399 0.781911 -0.0016877579
v 0.72667354 0.7680773 -0.0016877579
v 0.70767224 0.7729605 0.0025991988
v 0.7177231 0.7629097 0.0025991988
v 0.6939426 0.7766393 0.0025991988
v 0.680213 0.7729605 0.0025991988
v 0.6701622 0.7629097 0.0025991988
v 0.66648334 0.7491801 0.0025991988
v 0.7011607 0.7616822 0.0053515946
v 0.70644474 0.75639814 0.0053515946
v 0.6939426 0.76361626 0.0053515946
v 0.68672454 0.7616822 0.0053515946
v 0.6814405 0.75639814 0.0053515946
v 0.6795064 0.7491801 0.0053515946
v 0.6814405 0.74196196 0.0053515946
v 0.68672454 0.73667794 0.0053515946
v 0.6939426 0.7347439 0.0053515946
v 0.6939426 0.7217208 0.0025991988
v 0.70767224 0.7253996 0.0025991988
v 0.7177231 0.73545045 0.0025991988
v 0.7214019 0.7491801 0.0025991988
v 0.7177231 0.7629097 0.0025991988
v 0.7011607 0.73667794 0.0053515946
v 0.70644474 0.74196196 0.0053515946
v 0.7083788 0.7491801 0.0053515946
v 0.70644474 0.75639814 0.0053515946
v 0.6939426 0.7491801 0.0063000047
v 0.6939426 0.7491801 0.0063000047
v 0.6939426 0.7491801 0.0063000047
v 0.6939426 0.7491801 0.0063000047
v 0.6939426 0.7491801 0.0063000047
v 0.6939426 0.7491801 0.0063000047
v 0.6939426 0.7491801 0.0063000047
v 0.6939426 0.7491801 0.0063000047
v 0.6939426 0.7491801 0.0063000047
v 0.6939426 0.7491801 0.0063000047
v 0.6939426 0.7491801 0.0063000047
v 0.6939426 0.7491801 0.0063000047
v 0.1090069 0.7387845 -5.1865742E-18
v 0.09076423 0.7539038 0.009937305
v 0.09190747 0.75588393 -8.98341E-18
v 0.107026756 0.7376413 0.009937305
v 0.068549216 0.7598562 0.009937305
v 0.068549216 0.7621428 -1.03731485E-17
v 0.0463342 0.7539038 0.009937305
v 0.045190964 0.75588393 -8.98341E-18
v 0.030071676 0.7376413 0.009937305
v 0.028091535 0.7387845 -5.1865742E-18
v 0.024119176 0.71542627 0.009937305
v 0.021832708 0.71542627 0.0
v 0.030071676 0.6932112 0.009937305
v 0.028091535 0.692068 5.1865742E-18
v 0.0463342 0.67694867 0.009937305
v 0.045190964 0.67496854 8.98341E-18
v 0.068549216 0.67099625 0.009937305
v 0.068549216 0.6687097 1.03731485E-17
v 0.09076423 0.67694867 0.009937305
v 0.09190747 0.67496854 8.98341E-18
v 0.107026756 0.6932112 0.009937305
v 0.1090069 0.692068 5.1865742E-18
v 0.112979256 0.71542627 0.009937305
v 0.11526573 0.71542627 0.0
v 0.107026756 0.7376413 0.009937305
v 0.1090069 0.7387845 -5.1865742E-18
v 0.035818268 0.696529 0.018901877
v 0.049651995 0.68269527 0.018901877
v 0.068549216 0.6776318 0.018901877
v 0.08744644 0.68269527 0.018901877
v 0.101280175 0.696529 0.018901877
v 0.106343664 0.71542627 0.018901877
v 0.101280175 0.7343235 0.018901877
v 0.054819576 0.6916458 0.026016204
v 0.04476879 0.70169663 0.026016204
v 0.030754767 0.71542627 0.018901877
v 0.035818268 0.7343235 0.018901877
v 0.049651995 0.7481572 0.018901877
v 0.068549216 0.7532207 0.018901877
v 0.08744644 0.7481572 0.018901877
v 0.101280175 0.7343235 0.018901877
v 0.08227885 0.7392067 0.026016204
v 0.09232964 0.72915584 0.026016204
v 0.068549216 0.7428855 0.026016204
v 0.054819576 0.7392067 0.026016204
v 0.04476879 0.72915584 0.026016204
v 0.041089945 0.71542627 0.026016204
v 0.075767316 0.7279284 0.03058388
v 0.08105133 0.7226443 0.03058388
v 0.068549216 0.72986245 0.03058388
v 0.06133112 0.7279284 0.03058388
v 0.056047104 0.7226443 0.03058388
v 0.05411302 0.71542627 0.03058388
v 0.056047104 0.70820814 0.03058388
v 0.06133112 0.7029241 0.03058388
v 0.068549216 0.70099 0.03058388
v 0.068549216 0.687967 0.026016204
v 0.08227885 0.6916458 0.026016204
v 0.09232964 0.70169663 0.026016204
v 0.09600849 0.71542627 0.026016204
v 0.09232964 0.72915584 0.026016204
v 0.075767316 0.7029241 0.03058388
v 0.08105133 0.70820814 0.03058388
v 0.08298541 0.71542627 0.03058388
v 0.08105133 0.7226443 0.03058388
v 0.068549216 0.71542627 0.032157794
v 0.068549216 0.71542627 0.032157794
v 0.068549216 0.71542627 0.032157794
v 0.068549216 0.71542627 0.032157794
v 0.068549216 0.71542627 0.032157794
v 0.068549216 0.71542627 0.032157794
v 0.068549216 0.71542627 0.032157794
v 0.068549216 0.71542627 0.032157794
v 0.068549216 0.71542627 0.032157794
v 0.068549216 0.71542627 0.032157794
v 0.068549216 0.71542627 0.032157794
v 0.068549216 0.71542627 0.032157794
v -0.4478205 1.1762333 -1.3967624
v -0.5515677 0.959792 -1.2823385
v -0.48205745 1.1698565 -1.4210832
v -0.5086894 0.9670277 -1.2296702
v -0.59160256 0.9396418 -1.3469566
v -0.5193584 1.1576653 -1.4577518
v -0.60447884 0.9378571 -1.3607159
v -0.5295826 1.1442587 -1.4599916
v -0.4140181 1.1779172 -1.3881891
v -0.4664738 0.9767148 -1.1867586
v -0.3667261 1.18516 -1.3784138
v -0.39503032 0.98511 -1.1753719
v -0.16004685 1.1949414 -1.3649783
v -0.17922314 1.0013553 -1.1728292
v -0.11499778 1.0327662 -1.2014097
v 0.00502256 1.1966738 -1.3610641
v 0.00502256 1.0345536 -1.2017627
v 0.00502256 1.028571 -1.1874967
v -0.11485653 1.0268543 -1.187212
v -0.13138004 1.0205657 -1.1793959
v 0.00502256 1.028571 -1.1783513
v -0.114856765 1.0268543 -1.178754
v 0.00502256 1.0242836 -1.1689278
v -0.11478784 1.0225966 -1.1693565
v -0.12988085 1.0166255 -1.1700944
v -0.17907357 0.9976377 -1.1702641
v -0.3946877 0.9815731 -1.1727891
v -0.46786016 0.970948 -1.1839379
v -0.5130499 0.9656572 -1.2262913
v -0.5519633 0.9561534 -1.2812887
v -0.5956715 0.9395837 -1.3442037
v -0.60615873 0.93257743 -1.3592802
v 0.00502256 1.0143623 -1.1659687
v -0.114511356 1.0127275 -1.1663611
v 0.00502256 0.9639381 -1.1729264
v -0.13228194 0.96735334 -1.1722783
v -0.1253227 1.0080261 -1.1670014
v -0.17878525 0.99098694 -1.1692635
v -0.39401516 0.97517586 -1.1715722
v -0.3969361 0.9516647 -1.173341
v -0.4674841 0.9666044 -1.1834509
v -0.46702155 0.9422998 -1.184955
v -0.51308733 0.96133494 -1.2257218
v -0.5115914 0.935683 -1.2272543
v -0.5523616 0.952491 -1.2802321
v -0.54545295 0.9313329 -1.2729645
v -0.5953876 0.9348453 -1.3427418
v -0.59086514 0.91819435 -1.3384933
v -0.6067378 0.92828286 -1.3598148
v -0.6061678 0.91171277 -1.3617904
v 0.4478205 1.1762333 -1.3967624
v 0.5515677 0.959792 -1.2823385
v 0.5086894 0.9670277 -1.2296702
v 0.48205745 1.1698565 -1.4210832
v 0.59160256 0.9396418 -1.3469566
v 0.5193584 1.1576653 -1.4577518
v 0.60447884 0.9378571 -1.3607159
v 0.5295826 1.1442587 -1.4599916
v 0.4140181 1.1779172 -1.3881891
v 0.4664738 0.9767148 -1.1867586
v 0.3667261 1.18516 -1.3784138
v 0.39503032 0.98511 -1.1753719
v 0.16004685 1.1949414 -1.3649783
v 0.17922314 1.0013553 -1.1728292
v 0.11499778 1.0327662 -1.2014097
v 0.11485653 1.0268543 -1.187212
v 0.13138004 1.0205657 -1.1793959
v 0.114856765 1.0268543 -1.178754
v 0.11478784 1.0225966 -1.1693565
v 0.12988085 1.0166255 -1.1700944
v 0.17907357 0.9976377 -1.1702641
v 0.3946877 0.9815731 -1.1727891
v 0.46786016 0.970948 -1.1839379
v 0.5130499 0.9656572 -1.2262913
v 0.5519633 0.9561534 -1.2812887
v 0.5956715 0.9395837 -1.3442037
v 0.60615873 0.93257743 -1.3592802
v 0.1253227 1.0080261 -1.1670014
v 0.114511356 1.0127275 -1.1663611
v 0.13228194 0.96735334 -1.1722783
v 0.17878525 0.99098694 -1.1692635
v 0.39401516 0.97517586 -1.1715722
v 0.3969361 0.9516647 -1.173341
v 0.4674841 0.9666044 -1.1834509
v 0.46702155 0.9422998 -1.184955
v 0.51308733 0.96133494 -1.2257218
v 0.5115914 0.935683 -1.2272543
v 0.5523616 0.952491 -1.2802321
v 0.54545295 0.9313329 -1.2729645
v 0.5953876 0.9348453 -1.3427418
v 0.59086514 0.91819435 -1.3384933
v 0.6067378 0.92828286 -1.3598148
v 0.6061678 0.91171277 -1.3617904
v -0.4478205 1.1762333 -1.3967624
v -0.5515677 0.959792 -1.2823385
v -0.5086894 0.9670277 -1.2296702
v -0.48205745 1.1698565 -1.4210832
v -0.59160256 0.9396418 -1.3469566
v -0.5193584 1.1576653 -1.4577518
v -0.60447884 0.9378571 -1.3607159
v -0.5295826 1.1442587 -1.4599916
v -0.4140181 1.1779172 -1.3881891
v -0.4664738 0.9767148 -1.1867586
v -0.3667261 1.18516 -1.3784138
v -0.39503032 0.98511 -1.1753719
v -0.16004685 1.1949414 -1.3649783
v -0.17922314 1.0013553 -1.1728292
v -0.11499778 1.0327662 -1.2014097
v 0.00502256 1.1966738 -1.3610641
v 0.00502256 1.0345536 -1.2017627
v 0.00502256 1.028571 -1.1874967
v -0.11485653 1.0268543 -1.187212
v -0.13138004 1.0205657 -1.1793959
v 0.00502256 1.028571 -1.1783513
v -0.114856765 1.0268543 -1.178754
v 0.00502256 1.0242836 -1.1689278
v -0.11478784 1.0225966 -1.1693565
v -0.12988085 1.0166255 -1.1700944
v -0.17907357 0.9976377 -1.1702641
v -0.3946877 0.9815731 -1.1727891
v -0.46786016 0.970948 -1.1839379
v -0.5130499 0.9656572 -1.2262913
v -0.5519633 0.9561534 -1.2812887
v -0.5956715 0.9395837 -1.3442037
v -0.60615873 0.93257743 -1.3592802
v 0.00502256 1.0143623 -1.1659687
v -0.1253227 1.0080261 -1.1670014
v -0.114511356 1.0127275 -1.1663611
v 0.00502256 0.9639381 -1.1729264
v -0.13228194 0.96735334 -1.1722783
v -0.17878525 0.99098694 -1.1692635
v -0.39401516 0.97517586 -1.1715722
v -0.3969361 0.9516647 -1.173341
v -0.4674841 0.9666044 -1.1834509
v -0.46702155 0.9422998 -1.184955
v -0.51308733 0.96133494 -1.2257218
v -0.5115914 0.935683 -1.2272543
v -0.5523616 0.952491 -1.2802321
v -0.54545295 0.9313329 -1.2729645
v -0.5953876 0.9348453 -1.3427418
v -0.59086514 0.91819435 -1.3384933
v -0.6067378 0.92828286 -1.3598148
v -0.6061678 0.91171277 -1.3617904
v 0.114511356 1.0127275 -1.1663611
v 0.13228194 0.96735334 -1.1722783
v 0.1253227 1.0080261 -1.1670014
v 0.17878525 0.99098694 -1.1692635
v 0.39401516 0.97517586 -1.1715722
v 0.3969361 0.9516647 -1.173341
v 0.4674841 0.9666044 -1.1834509
v 0.46702155 0.9422998 -1.184955
v 0.51308733 0.96133494 -1.2257218
v 0.5115914 0.935683 -1.2272543
v 0.5523616 0.952491 -1.2802321
v 0.54545295 0.9313329 -1.2729645
v 0.5953876 0.9348453 -1.3427418
v 0.59086514 0.91819435 -1.3384933
v 0.6067378 0.92828286 -1.3598148
v 0.6061678 0.91171277 -1.3617904
v 0.17907357 0.9976377 -1.1702641
v 0.12988085 1.0166255 -1.1700944
v 0.17922314 1.0013553 -1.1728292
v 0.13138004 1.0205657 -1.1793959
v 0.11499778 1.0327662 -1.2014097
v 0.16004685 1.1949414 -1.3649783
v 0.39503032 0.98511 -1.1753719
v 0.3667261 1.18516 -1.3784138
v 0.4664738 0.9767148 -1.1867586
v 0.4140181 1.1779172 -1.3881891
v 0.5086894 0.9670277 -1.2296702
v 0.4478205 1.1762333 -1.3967624
v 0.5515677 0.959792 -1.2823385
v 0.48205745 1.1698565 -1.4210832
v 0.59160256 0.9396418 -1.3469566
v 0.5193584 1.1576653 -1.4577518
v 0.60447884 0.9378571 -1.3607159
v 0.5295826 1.1442587 -1.4599916
v 0.3946877 0.9815731 -1.1727891
v 0.46786016 0.970948 -1.1839379
v 0.5130499 0.9656572 -1.2262913
v 0.5519633 0.9561534 -1.2812887
v 0.5956715 0.9395837 -1.3442037
v 0.60615873 0.93257743 -1.3592802
v 0.11485653 1.0268543 -1.187212
v 0.114856765 1.0268543 -1.178754
v 0.11478784 1.0225966 -1.1693565
vn -0.80905104 0.46710476 0.3567206
vn -0.40450796 0.70062786 0.5877873
vn -0.7006287 0.40450776 0.58778644
vn -0.4671059 0.8090503 0.3567207
vn -0.0 0.8090149 0.5877881
vn -0.0 0.93421125 0.3567203
vn 0.40450728 0.700628 0.5877877
vn 0.46710524 0.8090509 0.3567203
vn 0.7006277 0.40450767 0.5877877
vn 0.80905014 0.4671055 0.35672155
vn 0.80901545 -1.3011547E-7 0.58778745
vn 0.9342107 -1.1520694E-7 0.3567216
vn 0.70062965 -0.4045091 0.58778447
vn 0.80905193 -0.4671069 0.35671583
vn 0.40450808 -0.700628 0.5877871
vn 0.46710593 -0.80905044 0.35672027
vn -0.0 -0.8090121 0.58779204
vn -0.0 -0.93420774 0.35672942
vn -0.4045076 -0.7006268 0.5877888
vn -0.46710604 -0.80904925 0.35672292
vn -0.70062864 -0.4045077 0.58778644
vn -0.8090512 -0.46710524 0.35671943
vn -0.8090156 0.0 0.5877872
vn -0.9342107 1.1520694E-7 0.3567216
vn -0.7006287 0.40450776 0.58778644
vn -0.80905104 0.46710476 0.3567206
vn 0.4434576 -0.2560305 0.85894924
vn 0.2560297 -0.44345757 0.8589495
vn -0.0 -0.51206046 0.8589494
vn -0.25602928 -0.44345713 0.85894984
vn -0.4434572 -0.25603008 0.85894954
vn -0.51206154 0.0 0.8589488
vn -0.44345778 0.25603056 0.8589491
vn 0.14802985 -0.25639617 0.9551692
vn 0.2563962 -0.14803004 0.95516914
vn 0.51206124 0.0 0.85894895
vn 0.44345707 0.25603002 0.8589496
vn 0.25602928 0.44345713 0.85894984
vn -0.0 0.51206046 0.8589494
vn -0.2560297 0.44345757 0.8589495
vn -0.44345778 0.25603056 0.8589491
vn -0.14802985 0.25639617 0.9551692
vn -0.25639623 0.14803039 0.9551691
vn -0.0 0.29606166 0.95516884
vn 0.14802985 0.25639617 0.9551692
vn 0.2563962 0.14803004 0.95516914
vn 0.29606178 0.0 0.95516884
vn -0.068232834 0.11818262 0.9906448
vn -0.118182875 0.068232775 0.99064475
vn -0.0 0.13646597 0.99064475
vn 0.06823281 0.118182845 0.99064475
vn 0.118182875 0.068232186 0.9906448
vn 0.13646597 -1.2054858E-7 0.99064475
vn 0.11818333 -0.06823232 0.99064475
vn 0.06823283 -0.118182845 0.99064475
vn -0.0 -0.13646597 0.99064475
vn -0.0 -0.29606166 0.95516884
vn -0.14802985 -0.25639617 0.9551692
vn -0.25639617 -0.14803036 0.9551691
vn -0.29606178 0.0 0.95516884
vn -0.25639623 0.14803039 0.9551691
vn -0.06823282 -0.11818262 0.9906448
vn -0.11818333 -0.06823288 0.9906447
vn -0.13646597 -1.2101584E-7 0.99064475
vn -0.118182875 0.068232775 0.99064475
vn -0.0 0.0 1.0
vn -0.0 0.0 1.0
vn -0.0 0.0 1.0
vn -0.0 0.0 1.0
vn -0.0 0.0 1.0
vn -0.0 0.0 1.0
vn -0.0 0.0 1.0
vn -0.0 0.0 1.0
vn -0.0 0.0 1.0
vn -0.0 0.0 1.0
vn -0.0 0.0 1.0
vn -0.0 0.0 1.0
vn -0.84397334 0.48726833 0.22422889
vn -0.4539071 0.7861909 0.4193711
vn -0.7861913 0.45390788 0.4193696
vn -0.4872681 0.8439733 0.22422971
vn -0.0 0.9078143 0.4193723
vn -0.0 0.97453594 0.22423133
vn 0.4539071 0.786191 0.4193711
vn 0.48726815 0.8439732 0.22422974
vn 0.78619134 0.45390782 0.41936952
vn 0.8439735 0.48726827 0.22422813
vn 0.90781564 0.0 0.41936952
vn 0.97453636 0.0 0.22422972
vn 0.7861916 -0.45390797 0.41936892
vn 0.84397346 -0.48726845 0.22422811
vn 0.45390746 -0.78619176 0.41936913
vn 0.4872685 -0.84397346 0.22422819
vn -0.0 -0.9078155 0.41936976
vn -0.0 -0.97453594 0.22423133
vn -0.4539075 -0.78619176 0.41936922
vn -0.4872681 -0.8439733 0.22422971
vn -0.7861912 -0.45390803 0.41936964
vn -0.84397316 -0.48726833 0.22422966
vn -0.9078154 0.0 0.4193701
vn -0.9745361 0.0 0.22423048
vn -0.7861913 0.45390788 0.4193696
vn -0.84397334 0.48726833 0.22422889
vn 0.6011861 -0.34709468 0.719792
vn 0.347094 -0.60118634 0.71979225
vn -0.0 -0.6941911 0.7197907
vn -0.3470944 -0.60118663 0.71979177
vn -0.601186 -0.34709495 0.719792
vn -0.6941908 1.0756637E-7 0.719791
vn -0.60118634 0.347095 0.71979165
vn 0.2262647 -0.3919026 0.8917492
vn 0.39190298 -0.22626501 0.8917489
vn 0.69419056 -1.5366626E-7 0.7197912
vn 0.60118574 0.34709474 0.71979225
vn 0.34709412 0.60118645 0.719792
vn -0.0 0.69419074 0.7197911
vn -0.34709418 0.60118645 0.71979207
vn -0.60118634 0.347095 0.71979165
vn -0.22626518 0.39190346 0.8917487
vn -0.39190313 0.2262653 0.89174885
vn 1.1172403E-7 0.45253217 0.8917481
vn 0.22626501 0.39190358 0.89174867
vn 0.39190236 0.22626486 0.89174926
vn 0.4525305 -1.9504358E-7 0.8917489
vn -0.11046291 0.19132689 0.9752907
vn -0.19132702 0.110462844 0.97529066
vn 1.0710082E-7 0.2209251 0.9752908
vn 0.1104627 0.19132699 0.9752907
vn 0.19132651 0.11046249 0.97529083
vn 0.22092445 -2.0339766E-7 0.97529095
vn 0.19132777 -0.110463165 0.97529054
vn 0.110463105 -0.19132723 0.9752906
vn -0.0 -0.2209251 0.9752908
vn -0.0 -0.4525307 0.8917488
vn -0.22626439 -0.39190233 0.89174944
vn -0.39190271 -0.22626473 0.89174914
vn -0.4525309 0.0 0.8917487
vn -0.39190313 0.2262653 0.89174885
vn -0.1104628 -0.19132693 0.9752907
vn -0.19132726 -0.110462785 0.9752906
vn -0.22092447 -1.10858764E-7 0.9752909
vn -0.19132702 0.110462844 0.97529066
vn -0.0 0.0 1.0
vn -0.0 0.0 1.0
vn -0.0 0.0 1.0
vn -0.0 0.0 1.0
vn -0.0 0.0 1.0
vn -0.0 0.0 1.0
vn -0.0 0.0 1.0
vn -0.0 0.0 1.0
vn -0.0 0.0 1.0
vn -0.0 0.0 1.0
vn -0.0 0.0 1.0
vn -0.0 0.0 1.0
vn 0.80905104 0.46710497 0.35672033
vn 0.4045078 0.70062745 0.58778805
vn 0.46710607 0.8090504 0.35672036
vn 0.7006282 0.40450746 0.5877872
vn -0.0 0.8090145 0.58778864
vn -0.0 0.934211 0.35672083
vn -0.40450755 0.7006282 0.5877871
vn -0.4671054 0.8090511 0.3567197
vn -0.7006282 0.40450808 0.58778685
vn -0.8090506 0.46710578 0.35672018
vn -0.8090155 0.0 0.5877874
vn -0.93421084 0.0 0.35672134
vn -0.700629 -0.40450862 0.5877855
vn -0.80905133 -0.4671065 0.35671756
vn -0.40450794 -0.7006285 0.5877866
vn -0.46710587 -0.8090509 0.35671943
vn -2.0897318E-7 -0.809013 0.5877907
vn -1.99692E-7 -0.9342085 0.35672745
vn 0.40450856 -0.70062786 0.58778703
vn 0.46710676 -0.80904996 0.35672036
vn 0.7006298 -0.40450877 0.5877845
vn 0.80905217 -0.4671061 0.35671633
vn 0.80901545 0.0 0.58778745
vn 0.9342107 0.0 0.35672164
vn 0.7006282 0.40450746 0.5877872
vn 0.80905104 0.46710497 0.35672033
vn -0.44345722 -0.25603026 0.8589495
vn -0.25602952 -0.44345742 0.8589496
vn -1.0073654E-7 -0.5120601 0.8589496
vn 0.2560297 -0.44345728 0.8589496
vn 0.44345793 -0.25603065 0.858949
vn 0.51206136 0.0 0.8589489
vn 0.44345707 0.25603002 0.8589496
vn -0.14802976 -0.25639594 0.95516926
vn -0.25639609 -0.14803001 0.9551692
vn -0.512061 0.0 0.8589491
vn -0.44345737 0.25603038 0.8589493
vn -0.2560296 0.44345748 0.85894954
vn -1.1974342E-7 0.5120599 0.8589497
vn 0.25602916 0.44345662 0.85895014
vn 0.44345707 0.25603002 0.8589496
vn 0.14802998 0.2563962 0.95516914
vn 0.25639668 0.14803064 0.9551689
vn -0.0 0.29606146 0.95516884
vn -0.1480301 0.25639647 0.9551691
vn -0.25639674 0.14803034 0.95516896
vn -0.29606187 0.0 0.9551688
vn 0.06823304 0.118182816 0.99064475
vn 0.11818324 0.06823302 0.9906447
vn -0.0 0.13646597 0.99064475
vn -0.06823293 0.118182935 0.99064475
vn -0.118183136 0.06823234 0.99064475
vn -0.13646631 -1.2849169E-7 0.9906447
vn -0.11818352 -0.068232365 0.9906447
vn -0.06823287 -0.11818298 0.99064475
vn -0.0 -0.13646625 0.9906447
vn -0.0 -0.29606116 0.95516896
vn 0.14802979 -0.25639594 0.95516926
vn 0.25639647 -0.14803046 0.955169
vn 0.29606226 0.0 0.95516866
vn 0.25639668 0.14803064 0.9551689
vn 0.068232864 -0.11818275 0.99064475
vn 0.11818351 -0.068232946 0.9906447
vn 0.1364663 -1.2802447E-7 0.9906447
vn 0.11818324 0.06823302 0.9906447
vn -0.0 0.0 1.0
vn -0.0 0.0 1.0
vn -0.0 0.0 1.0
vn -0.0 0.0 1.0
vn -0.0 0.0 1.0
vn -0.0 0.0 1.0
vn -0.0 0.0 1.0
vn -0.0 0.0 1.0
vn -0.0 0.0 1.0
vn -0.0 0.0 1.0
vn -0.0 0.0 1.0
vn -0.0 0.0 1.0
vn 0.843973 0.48726803 0.22423083
vn 0.45390683 0.7861907 0.41937187
vn 0.48726785 0.84397304 0.2242311
vn 0.786191 0.45390767 0.41937047
vn -0.0 0.90781444 0.41937205
vn -0.0 0.974536 0.22423115
vn -0.45390707 0.78619087 0.4193713
vn -0.48726818 0.84397316 0.22422992
vn -0.78619117 0.45390773 0.41937006
vn -0.8439734 0.48726815 0.22422893
vn -0.90781546 0.0 0.41936985
vn -0.9745363 0.0 0.22422995
vn -0.7861917 -0.45390826 0.4193684
vn -0.84397346 -0.48726836 0.22422831
vn -0.4539076 -0.78619176 0.41936898
vn -0.4872683 -0.8439731 0.22422983
vn -0.0 -0.9078152 0.4193703
vn 1.07805704E-7 -0.9745357 0.2242324
vn 0.45390767 -0.7861919 0.4193688
vn 0.4872683 -0.8439734 0.22422865
vn 0.78619146 -0.45390818 0.41936892
vn 0.8439734 -0.4872685 0.22422822
vn 0.9078155 1.01730116E-7 0.4193698
vn 0.9745361 0.0 0.22423051
vn 0.786191 0.45390767 0.41937047
vn 0.843973 0.48726803 0.22423083
vn -0.60118645 -0.34709516 0.71979153
vn -0.34709445 -0.60118705 0.71979135
vn -0.0 -0.6941917 0.7197902
vn 0.34709445 -0.60118705 0.71979135
vn 0.60118586 -0.34709486 0.7197921
vn 0.69419056 1.5750793E-7 0.7197912
vn 0.6011857 0.3470943 0.71979254
vn -0.22626436 -0.39190233 0.89174944
vn -0.39190283 -0.22626472 0.8917491
vn -0.69419044 -1.0756639E-7 0.7197914
vn -0.60118586 0.34709486 0.7197921
vn -0.34709415 0.6011861 0.7197923
vn 1.3829951E-7 0.69419044 0.71979135
vn 0.34709343 0.6011857 0.7197929
vn 0.6011857 0.3470943 0.71979254
vn 0.22626446 0.39190277 0.8917492
vn 0.3919024 0.22626461 0.8917493
vn -0.0 0.4525315 0.8917484
vn -0.22626506 0.39190325 0.89174885
vn -0.39190286 0.22626525 0.8917489
vn -0.45253083 -1.685328E-7 0.8917488
vn 0.110462755 0.19132672 0.9752907
vn 0.1913269 0.1104627 0.9752907
vn -0.0 0.22092485 0.97529083
vn -0.110462785 0.19132695 0.9752907
vn -0.19132689 0.1104627 0.9752907
vn -0.22092493 -2.165504E-7 0.97529083
vn -0.19132768 -0.110462904 0.97529054
vn -0.110462755 -0.19132672 0.9752908
vn -0.0 -0.22092487 0.97529083
vn 1.04149485E-7 -0.45253116 0.8917486
vn 0.22626446 -0.3919028 0.8917492
vn 0.3919026 -0.22626467 0.8917492
vn 0.45253083 0.0 0.8917488
vn 0.3919024 0.22626461 0.8917493
vn 0.11046279 -0.19132695 0.9752907
vn 0.19132724 -0.1104628 0.9752906
vn 0.22092456 -1.1085878E-7 0.9752909
vn 0.1913269 0.1104627 0.9752907
vn -1.7994935E-7 0.0 1.0
vn -1.7994935E-7 0.0 1.0
vn -1.7994935E-7 0.0 1.0
vn -1.7994935E-7 0.0 1.0
vn -1.7994935E-7 0.0 1.0
vn -1.7994935E-7 0.0 1.0
vn -1.7994935E-7 0.0 1.0
vn -1.7994935E-7 0.0 1.0
vn -1.7994935E-7 0.0 1.0
vn -1.7994935E-7 0.0 1.0
vn -1.7994935E-7 0.0 1.0
vn -1.7994935E-7 0.0 1.0
vn -0.55924577 0.6175876 0.5530187
vn -0.6388119 0.6841439 0.3519468
vn -0.695405 0.5393567 0.47487488
vn -0.5509087 0.7007509 0.45326367
vn -0.6640141 0.6687808 0.33439133
vn -0.7262279 0.4986364 0.47323865
vn -0.64663535 0.66015965 0.3821673
vn -0.6906712 0.4986677 0.52374023
vn -0.35484248 0.69175845 0.6289333
vn -0.3643639 0.67861986 0.6377414
vn -0.14195207 0.71468604 0.6848894
vn -0.13457707 0.6333315 0.7620894
vn -0.03931234 0.7071277 0.7059922
vn -0.14966981 0.76186603 0.6302056
vn -0.09237155 0.8374058 0.53871983
vn 6.654838E-4 0.70427483 0.7099272
vn 6.2933826E-4 0.8294707 0.5585498
vn 6.2400464E-4 0.9804721 0.19665746
vn -0.17496832 0.9694089 0.1721405
vn -0.3260408 0.89124125 0.31525615
vn 6.7105104E-4 0.9773763 0.21150704
vn -0.18971726 0.95881003 0.2114018
vn 5.4394605E-4 0.6581379 0.7528972
vn -0.14667973 0.64133555 0.7531094
vn -0.24054532 0.5799857 0.7783024
vn -0.11990695 0.46490443 0.87720364
vn -0.11409534 0.35611132 0.92745185
vn -0.4313472 0.40352923 0.80691004
vn -0.6961727 0.47794935 0.53563786
vn -0.74765193 0.52208537 0.41041863
vn -0.7679876 0.50881636 0.38897434
vn -0.77376163 0.47814864 0.41553196
vn 1.6929406E-4 0.079192266 0.9968593
vn -0.044091612 0.07609758 0.99612504
vn -2.6281411E-6 -0.13321196 0.99108756
vn -0.0010758045 -0.122791015 0.99243194
vn -0.068579815 0.061551936 0.995745
vn -0.03228314 0.041403744 0.9986208
vn -0.08809191 0.0361115 0.99545753
vn -0.07739674 -0.08068393 0.9937303
vn -0.4422374 0.018144667 0.8967145
vn -0.43445167 -0.068280295 0.89810324
vn -0.7521305 0.019561395 0.6587238
vn -0.74251014 -0.071377546 0.66602105
vn -0.8213893 0.047066264 0.56842273
vn -0.80711883 -0.070366696 0.5861807
vn -0.83075047 0.02416966 0.55612004
vn -0.8156442 -0.07811078 0.57325673
vn -0.8324048 -0.0020545565 0.5541643
vn -0.81830525 -0.08656609 0.5682279
vn 0.5592461 0.61758757 0.5530184
vn 0.63881 0.68414503 0.35194793
vn 0.5509073 0.70075166 0.45326403
vn 0.695405 0.539357 0.4748746
vn 0.6640115 0.6687815 0.33439505
vn 0.7262267 0.4986377 0.47323912
vn 0.6466323 0.6601597 0.38217255
vn 0.6906693 0.49866953 0.52374095
vn 0.35484236 0.6917584 0.62893337
vn 0.36436304 0.67862046 0.6377412
vn 0.14195205 0.7146861 0.6848894
vn 0.13457721 0.6333321 0.7620889
vn 0.03975632 0.7070845 0.7060106
vn 0.14966953 0.7618661 0.6302056
vn 0.0930047 0.83733755 0.5387169
vn 0.17557956 0.9693018 0.17212152
vn 0.32603943 0.8912414 0.31525707
vn 0.1903751 0.9586857 0.21137431
vn 0.14721659 0.6412791 0.7530527
vn 0.24054469 0.57998496 0.77830315
vn 0.11990678 0.46490377 0.877204
vn 0.1140955 0.35611168 0.9274517
vn 0.43134674 0.40353018 0.80690974
vn 0.69617134 0.47795126 0.53563803
vn 0.7476499 0.5220879 0.41041905
vn 0.7679848 0.5088181 0.3889776
vn 0.77375823 0.47814927 0.41553754
vn 0.0685809 0.06155193 0.99574494
vn 0.044261884 0.07609396 0.9961178
vn 0.0010750529 -0.12279136 0.99243194
vn 0.032283008 0.041403335 0.9986208
vn 0.088091776 0.036111087 0.9954576
vn 0.07739663 -0.080684 0.9937303
vn 0.44223794 0.018144866 0.8967142
vn 0.43445218 -0.0682802 0.89810306
vn 0.75213116 0.019562587 0.658723
vn 0.74251086 -0.071377054 0.66602015
vn 0.8213895 0.04706796 0.5684223
vn 0.80711854 -0.07036639 0.586181
vn 0.8307502 0.024171712 0.55612034
vn 0.81564385 -0.07811006 0.57325727
vn 0.83240443 -0.0020521672 0.55416477
vn 0.8183057 -0.08656454 0.56822747
vn 0.5592461 -0.61758757 -0.5530184
vn 0.63881 -0.68414503 -0.35194793
vn 0.5509073 -0.70075166 -0.45326403
vn 0.695405 -0.539357 -0.4748746
vn 0.6640115 -0.6687815 -0.33439505
vn 0.7262267 -0.4986377 -0.47323912
vn 0.6466323 -0.6601597 -0.38217255
vn 0.6906693 -0.49866953 -0.52374095
vn 0.35484236 -0.6917584 -0.62893337
vn 0.36436304 -0.67862046 -0.6377412
vn 0.14195205 -0.7146861 -0.6848894
vn 0.13457721 -0.6333321 -0.7620889
vn 0.039312955 -0.70712775 -0.70599204
vn 0.14966953 -0.7618661 -0.6302056
vn 0.09237142 -0.8374063 -0.53871906
vn -6.655825E-4 -0.7042747 -0.7099272
vn -6.2938815E-4 -0.8294707 -0.5585499
vn -6.2400365E-4 -0.9804721 -0.19665737
vn 0.1749678 -0.96940905 -0.17214067
vn 0.32603943 -0.8912414 -0.31525707
vn -6.7097804E-4 -0.9773763 -0.21150687
vn 0.18971671 -0.9588096 -0.21140404
vn -5.4386625E-4 -0.65813804 -0.75289714
vn 0.14667912 -0.64133483 -0.7531101
vn 0.24054469 -0.57998496 -0.77830315
vn 0.11990678 -0.46490377 -0.877204
vn 0.1140955 -0.35611168 -0.9274517
vn 0.43134674 -0.40353018 -0.80690974
vn 0.69617134 -0.47795126 -0.53563803
vn 0.7476499 -0.5220879 -0.41041905
vn 0.7679848 -0.5088181 -0.3889776
vn 0.77375823 -0.47814927 -0.41553754
vn -1.6921043E-4 -0.07919226 -0.9968593
vn 0.0685809 -0.06155193 -0.99574494
vn 0.04409271 -0.07609776 -0.996125
vn 2.788158E-6 0.13321197 -0.99108756
vn 0.0010764052 0.12279112 -0.99243194
vn 0.032283008 -0.041403335 -0.9986208
vn 0.088091776 -0.036111087 -0.9954576
vn 0.07739663 0.080684 -0.9937303
vn 0.44223794 -0.018144866 -0.8967142
vn 0.43445218 0.0682802 -0.89810306
vn 0.75213116 -0.019562587 -0.658723
vn 0.74251086 0.071377054 -0.66602015
vn 0.8213895 -0.04706796 -0.5684223
vn 0.80711854 0.07036639 -0.586181
vn 0.8307502 -0.024171712 -0.55612034
vn 0.81564385 0.07811006 -0.57325727
vn 0.83240443 0.0020521672 -0.55416477
vn 0.8183057 0.08656454 -0.56822747
vn -0.044260778 -0.076093726 -0.99611783
vn -0.0010744487 0.12279126 -0.99243194
vn -0.068579815 -0.061551936 -0.995745
vn -0.03228314 -0.041403744 -0.9986208
vn -0.08809191 -0.0361115 -0.99545753
vn -0.07739674 0.08068393 -0.9937303
vn -0.4422374 -0.018144667 -0.8967145
vn -0.43445167 0.068280295 -0.89810324
vn -0.7521305 -0.019561395 -0.6587238
vn -0.74251014 0.071377546 -0.66602105
vn -0.8213893 -0.047066264 -0.56842273
vn -0.80711883 0.070366696 -0.5861807
vn -0.83075047 -0.02416966 -0.55612004
vn -0.8156442 0.07811078 -0.57325673
vn -0.8324048 0.0020545565 -0.5541643
vn -0.81830525 0.08656609 -0.5682279
vn -0.11990695 -0.46490443 -0.87720364
vn -0.24054532 -0.5799857 -0.7783024
vn -0.14966981 -0.76186603 -0.6302056
vn -0.3260408 -0.89124125 -0.31525615
vn -0.09300485 -0.8373371 -0.5387177
vn -0.039755702 -0.7070844 -0.7060107
vn -0.13457707 -0.6333315 -0.7620894
vn -0.14195207 -0.71468604 -0.6848894
vn -0.3643639 -0.67861986 -0.6377414
vn -0.35484248 -0.69175845 -0.6289333
vn -0.5509087 -0.7007509 -0.45326367
vn -0.55924577 -0.6175876 -0.5530187
vn -0.6388119 -0.6841439 -0.3519468
vn -0.695405 -0.5393567 -0.47487488
vn -0.6640141 -0.6687808 -0.33439133
vn -0.7262279 -0.4986364 -0.47323865
vn -0.64663535 -0.66015965 -0.3821673
vn -0.6906712 -0.4986677 -0.52374023
vn -0.11409534 -0.35611132 -0.92745185
vn -0.4313472 -0.40352923 -0.80691004
vn -0.6961727 -0.47794935 -0.53563786
vn -0.74765193 -0.52208537 -0.41041863
vn -0.7679876 -0.50881636 -0.38897434
vn -0.77376163 -0.47814864 -0.41553196
vn -0.17558011 -0.96930176 -0.1721213
vn -0.19037567 -0.9586861 -0.21137193
vn -0.14721718 -0.6412799 -0.75305194
vt 0.0 0.5
vt 0.083333336 0.39999998
vt 0.0 0.39999998
vt 0.083333336 0.5
vt 0.16666667 0.39999998
vt 0.16666667 0.5
vt 0.25 0.39999998
vt 0.25 0.5
vt 0.33333334 0.39999998
vt 0.33333334 0.5
vt 0.4166667 0.39999998
vt 0.4166667 0.5
vt 0.5 0.39999998
vt 0.5 0.5
vt 0.5833333 0.39999998
vt 0.5833333 0.5
vt 0.6666666 0.39999998
vt 0.6666666 0.5
vt 0.74999994 0.39999998
vt 0.74999994 0.5
vt 0.83333325 0.39999998
vt 0.83333325 0.5
vt 0.91666657 0.39999998
vt 0.91666657 0.5
vt 0.9999999 0.39999998
vt 0.9999999 0.5
vt 0.5 0.29999995
vt 0.5833333 0.29999995
vt 0.6666666 0.29999995
vt 0.74999994 0.29999995
vt 0.83333325 0.29999995
vt 0.91666657 0.29999995
vt 0.9999999 0.29999995
vt 0.5833333 0.19999993
vt 0.5 0.19999993
vt 0.4166667 0.29999995
vt 0.33333334 0.29999995
vt 0.25 0.29999995
vt 0.16666667 0.29999995
vt 0.083333336 0.29999995
vt 0.0 0.29999995
vt 0.083333336 0.19999993
vt 0.0 0.19999993
vt 0.16666667 0.19999993
vt 0.25 0.19999993
vt 0.33333334 0.19999993
vt 0.4166667 0.19999993
vt 0.083333336 0.099999905
vt 0.0 0.099999905
vt 0.16666667 0.099999905
vt 0.25 0.099999905
vt 0.33333334 0.099999905
vt 0.4166667 0.099999905
vt 0.5 0.099999905
vt 0.5833333 0.099999905
vt 0.6666666 0.099999905
vt 0.6666666 0.19999993
vt 0.74999994 0.19999993
vt 0.83333325 0.19999993
vt 0.91666657 0.19999993
vt 0.9999999 0.19999993
vt 0.74999994 0.099999905
vt 0.83333325 0.099999905
vt 0.91666657 0.099999905
vt 0.9999999 0.099999905
vt 0.7083334 0.0
vt 0.7916667 0.0
vt 0.875 0.0
vt 0.9583334 0.0
vt 0.041666668 0.0
vt 0.125 0.0
vt 0.20833334 0.0
vt 0.2916667 0.0
vt 0.375 0.0
vt 0.45833334 0.0
vt 0.5416667 0.0
vt 0.625 0.0
vt 0.0 0.5
vt 0.083333336 0.39999998
vt 0.0 0.39999998
vt 0.083333336 0.5
vt 0.16666667 0.39999998
vt 0.16666667 0.5
vt 0.25 0.39999998
vt 0.25 0.5
vt 0.33333334 0.39999998
vt 0.33333334 0.5
vt 0.4166667 0.39999998
vt 0.4166667 0.5
vt 0.5 0.39999998
vt 0.5 0.5
vt 0.5833333 0.39999998
vt 0.5833333 0.5
vt 0.6666666 0.39999998
vt 0.6666666 0.5
vt 0.74999994 0.39999998
vt 0.74999994 0.5
vt 0.83333325 0.39999998
vt 0.83333325 0.5
vt 0.91666657 0.39999998
vt 0.91666657 0.5
vt 0.9999999 0.39999998
vt 0.9999999 0.5
vt 0.5 0.29999995
vt 0.5833333 0.29999995
vt 0.6666666 0.29999995
vt 0.74999994 0.29999995
vt 0.83333325 0.29999995
vt 0.91666657 0.29999995
vt 0.9999999 0.29999995
vt 0.5833333 0.19999993
vt 0.5 0.19999993
vt 0.4166667 0.29999995
vt 0.33333334 0.29999995
vt 0.25 0.29999995
vt 0.16666667 0.29999995
vt 0.083333336 0.29999995
vt 0.0 0.29999995
vt 0.083333336 0.19999993
vt 0.0 0.19999993
vt 0.16666667 0.19999993
vt 0.25 0.19999993
vt 0.33333334 0.19999993
vt 0.4166667 0.19999993
vt 0.083333336 0.099999905
vt 0.0 0.099999905
vt 0.16666667 0.099999905
vt 0.25 0.099999905
vt 0.33333334 0.099999905
vt 0.4166667 0.099999905
vt 0.5 0.099999905
vt 0.5833333 0.099999905
vt 0.6666666 0.099999905
vt 0.6666666 0.19999993
vt 0.74999994 0.19999993
vt 0.83333325 0.19999993
vt 0.91666657 0.19999993
vt 0.9999999 0.19999993
vt 0.74999994 0.099999905
vt 0.83333325 0.099999905
vt 0.91666657 0.099999905
vt 0.9999999 0.099999905
vt 0.7083334 0.0
vt 0.7916667 0.0
vt 0.875 0.0
vt 0.9583334 0.0
vt 0.041666668 0.0
vt 0.125 0.0
vt 0.20833334 0.0
vt 0.2916667 0.0
vt 0.375 0.0
vt 0.45833334 0.0
vt 0.5416667 0.0
vt 0.625 0.0
vt 0.0 0.5
vt 0.083333336 0.39999998
vt 0.083333336 0.5
vt 0.0 0.39999998
vt 0.16666667 0.39999998
vt 0.16666667 0.5
vt 0.25 0.39999998
vt 0.25 0.5
vt 0.33333334 0.39999998
vt 0.33333334 0.5
vt 0.4166667 0.39999998
vt 0.4166667 0.5
vt 0.5 0.39999998
vt 0.5 0.5
vt 0.5833333 0.39999998
vt 0.5833333 0.5
vt 0.6666666 0.39999998
vt 0.6666666 0.5
vt 0.74999994 0.39999998
vt 0.74999994 0.5
vt 0.83333325 0.39999998
vt 0.83333325 0.5
vt 0.91666657 0.39999998
vt 0.91666657 0.5
vt 0.9999999 0.39999998
vt 0.9999999 0.5
vt 0.5 0.29999995
vt 0.5833333 0.29999995
vt 0.6666666 0.29999995
vt 0.74999994 0.29999995
vt 0.83333325 0.29999995
vt 0.91666657 0.29999995
vt 0.9999999 0.29999995
vt 0.5833333 0.19999993
vt 0.5 0.19999993
vt 0.4166667 0.29999995
vt 0.33333334 0.29999995
vt 0.25 0.29999995
vt 0.16666667 0.29999995
vt 0.083333336 0.29999995
vt 0.0 0.29999995
vt 0.083333336 0.19999993
vt 0.0 0.19999993
vt 0.16666667 0.19999993
vt 0.25 0.19999993
vt 0.33333334 0.19999993
vt 0.4166667 0.19999993
vt 0.083333336 0.099999905
vt 0.0 0.099999905
vt 0.16666667 0.099999905
vt 0.25 0.099999905
vt 0.33333334 0.099999905
vt 0.4166667 0.099999905
vt 0.5 0.099999905
vt 0.5833333 0.099999905
vt 0.6666666 0.099999905
vt 0.6666666 0.19999993
vt 0.74999994 0.19999993
vt 0.83333325 0.19999993
vt 0.91666657 0.19999993
vt 0.9999999 0.19999993
vt 0.74999994 0.099999905
vt 0.83333325 0.099999905
vt 0.91666657 0.099999905
vt 0.9999999 0.099999905
vt 0.7083334 0.0
vt 0.7916667 0.0
vt 0.875 0.0
vt 0.9583334 0.0
vt 0.041666668 0.0
vt 0.125 0.0
vt 0.20833334 0.0
vt 0.2916667 0.0
vt 0.375 0.0
vt 0.45833334 0.0
vt 0.5416667 0.0
vt 0.625 0.0
vt 0.0 0.5
vt 0.083333336 0.39999998
vt 0.083333336 0.5
vt 0.0 0.39999998
vt 0.16666667 0.39999998
vt 0.16666667 0.5
vt 0.25 0.39999998
vt 0.25 0.5
vt 0.33333334 0.39999998
vt 0.33333334 0.5
vt 0.4166667 0.39999998
vt 0.4166667 0.5
vt 0.5 0.39999998
vt 0.5 0.5
vt 0.5833333 0.39999998
vt 0.5833333 0.5
vt 0.6666666 0.39999998
vt 0.6666666 0.5
vt 0.74999994 0.39999998
vt 0.74999994 0.5
vt 0.83333325 0.39999998
vt 0.83333325 0.5
vt 0.91666657 0.39999998
vt 0.91666657 0.5
vt 0.9999999 0.39999998
vt 0.9999999 0.5
vt 0.5 0.29999995
vt 0.5833333 0.29999995
vt 0.6666666 0.29999995
vt 0.74999994 0.29999995
vt 0.83333325 0.29999995
vt 0.91666657 0.29999995
vt 0.9999999 0.29999995
vt 0.5833333 0.19999993
vt 0.5 0.19999993
vt 0.4166667 0.29999995
vt 0.33333334 0.29999995
vt 0.25 0.29999995
vt 0.16666667 0.29999995
vt 0.083333336 0.29999995
vt 0.0 0.29999995
vt 0.083333336 0.19999993
vt 0.0 0.19999993
vt 0.16666667 0.19999993
vt 0.25 0.19999993
vt 0.33333334 0.19999993
vt 0.4166667 0.19999993
vt 0.083333336 0.099999905
vt 0.0 0.099999905
vt 0.16666667 0.099999905
vt 0.25 0.099999905
vt 0.33333334 0.099999905
vt 0.4166667 0.099999905
vt 0.5 0.099999905
vt 0.5833333 0.099999905
vt 0.6666666 0.099999905
vt 0.6666666 0.19999993
vt 0.74999994 0.19999993
vt 0.83333325 0.19999993
vt 0.91666657 0.19999993
vt 0.9999999 0.19999993
vt 0.74999994 0.099999905
vt 0.83333325 0.099999905
vt 0.91666657 0.099999905
vt 0.9999999 0.099999905
vt 0.7083334 0.0
vt 0.7916667 0.0
vt 0.875 0.0
vt 0.9583334 0.0
vt 0.041666668 0.0
vt 0.125 0.0
vt 0.20833334 0.0
vt 0.2916667 0.0
vt 0.375 0.0
vt 0.45833334 0.0
vt 0.5416667 0.0
vt 0.625 0.0
vt 0.13096052 0.38079262
vt 0.045464635 0.5775628
vt 0.10274655 0.37471783
vt 0.0807997 0.5952041
vt 0.012472749 0.5636122
vt 0.072007656 0.36731791
vt 0.0018615723 0.5589314
vt 0.06358206 0.37550724
vt 0.15881634 0.38331878
vt 0.11558872 0.6069896
vt 0.19778872 0.38256657
vt 0.17446381 0.6061418
vt 0.3681088 0.38165104
vt 0.352306 0.5961449
vt 0.40523285 0.56245494
vt 0.50413907 0.38214672
vt 0.50413907 0.5610838
vt 0.50413907 0.57128274
vt 0.40534925 0.57257646
vt 0.39173257 0.58021903
vt 0.50413907 0.57520354
vt 0.40534902 0.5762025
vt 0.50413907 0.58216953
vt 0.40540582 0.58313704
vt 0.392968 0.58689576
vt 0.35242927 0.5997817
vt 0.17474616 0.6096629
vt 0.11444622 0.6121346
vt 0.07720631 0.59758806
vt 0.045138597 0.5804961
vt 0.00911957 0.564832
vt 4.772544E-4 0.56315017
vt 0.50413907 0.5902091
vt 0.4056337 0.5911566
vt 0.50413907 0.6216394
vt 0.3909893 0.61958647
vt 0.39672428 0.5940907
vt 0.3526669 0.6047497
vt 0.17530036 0.61455053
vt 0.17289329 0.629838
vt 0.11475617 0.6153077
vt 0.11513734 0.63125014
vt 0.0771755 0.600782
vt 0.07840824 0.6176318
vt 0.044810295 0.58344865
vt 0.05050361 0.6010041
vt 0.0093535185 0.56869256
vt 0.013080359 0.5818778
vt 5.9604645E-8 0.5658519
vt 4.698038E-4 0.5763136
vt 0.8690398 0.38079262
vt 0.9545356 0.5775628
vt 0.91920054 0.5952041
vt 0.89725375 0.37471783
vt 0.9875275 0.5636122
vt 0.9279926 0.36731791
vt 0.99813867 0.5589314
vt 0.9364182 0.37550724
vt 0.8411839 0.38331878
vt 0.8844116 0.6069896
vt 0.8022115 0.38256657
vt 0.8255365 0.6061418
vt 0.63189137 0.38165104
vt 0.64769423 0.5961449
vt 0.59476745 0.56245494
vt 0.594651 0.57257646
vt 0.60826766 0.58021903
vt 0.5946512 0.5762025
vt 0.59459436 0.58313704
vt 0.6070323 0.58689576
vt 0.64757097 0.5997817
vt 0.8252541 0.6096629
vt 0.8855541 0.6121346
vt 0.92279387 0.59758806
vt 0.95486164 0.5804961
vt 0.9908807 0.564832
vt 0.9995229 0.56315017
vt 0.603276 0.5940907
vt 0.59436655 0.5911566
vt 0.60901093 0.61958647
vt 0.6473334 0.6047497
vt 0.8246999 0.61455053
vt 0.82710695 0.629838
vt 0.88524413 0.6153077
vt 0.8848629 0.63125014
vt 0.92282474 0.600782
vt 0.921592 0.6176318
vt 0.95518994 0.58344865
vt 0.9494966 0.6010041
vt 0.9906467 0.56869256
vt 0.9869199 0.5818778
vt 1.0000002 0.5658519
vt 0.99953043 0.5763136
vt 0.13096052 0.3807925
vt 0.045464635 0.5775627
vt 0.0807997 0.595204
vt 0.10274655 0.3747177
vt 0.012472749 0.5636121
vt 0.072007656 0.3673178
vt 0.0018615723 0.5589313
vt 0.06358206 0.37550712
vt 0.15881634 0.38331866
vt 0.11558872 0.6069895
vt 0.19778872 0.38256645
vt 0.17446381 0.6061417
vt 0.3681088 0.38165092
vt 0.352306 0.5961448
vt 0.40523285 0.5624548
vt 0.50413907 0.3821466
vt 0.50413907 0.5610837
vt 0.50413907 0.5712826
vt 0.40534925 0.57257634
vt 0.39173257 0.5802189
vt 0.50413907 0.5752034
vt 0.40534902 0.5762024
vt 0.50413907 0.5821694
vt 0.40540582 0.5831369
vt 0.392968 0.58689564
vt 0.35242927 0.5997816
vt 0.17474616 0.6096628
vt 0.11444622 0.61213446
vt 0.07720631 0.59758794
vt 0.045138597 0.58049595
vt 0.00911957 0.56483185
vt 4.772544E-4 0.56315005
vt 0.50413907 0.590209
vt 0.39672428 0.5940906
vt 0.4056337 0.5911565
vt 0.50413907 0.62163925
vt 0.3909893 0.61958635
vt 0.3526669 0.60474956
vt 0.17530036 0.6145504
vt 0.17289329 0.6298379
vt 0.11475617 0.61530757
vt 0.11513734 0.63125
vt 0.0771755 0.6007819
vt 0.07840824 0.6176317
vt 0.044810295 0.5834485
vt 0.05050361 0.601004
vt 0.0093535185 0.56869245
vt 0.013080359 0.5818777
vt 5.9604645E-8 0.5658518
vt 4.698038E-4 0.5763135
vt 0.59436655 0.5911565
vt 0.60901093 0.61958635
vt 0.603276 0.5940906
vt 0.6473334 0.60474956
vt 0.8246999 0.6145504
vt 0.82710695 0.6298379
vt 0.88524413 0.61530757
vt 0.8848629 0.63125
vt 0.92282474 0.6007819
vt 0.921592 0.6176317
vt 0.95518994 0.5834485
vt 0.9494966 0.601004
vt 0.9906467 0.56869245
vt 0.9869199 0.5818777
vt 1.0000002 0.5658518
vt 0.99953043 0.5763135
vt 0.64757097 0.5997816
vt 0.6070323 0.58689564
vt 0.64769423 0.5961448
vt 0.60826766 0.5802189
vt 0.59476745 0.5624548
vt 0.63189137 0.38165092
vt 0.8255365 0.6061417
vt 0.8022115 0.38256645
vt 0.8844116 0.6069895
vt 0.8411839 0.38331866
vt 0.91920054 0.595204
vt 0.8690398 0.3807925
vt 0.9545356 0.5775627
vt 0.89725375 0.3747177
vt 0.9875275 0.5636121
vt 0.9279926 0.3673178
vt 0.99813867 0.5589313
vt 0.9364182 0.37550712
vt 0.8252541 0.6096628
vt 0.8855541 0.61213446
vt 0.92279387 0.59758794
vt 0.95486164 0.58049595
vt 0.9908807 0.56483185
vt 0.9995229 0.56315005
vt 0.594651 0.57257634
vt 0.5946512 0.5762024
vt 0.59459436 0.5831369

g Slingshot_Glass
s 1
usemtl Slingshot_Glass
f 3/3/3 2/2/2 1/1/1 
f 2/2/2 4/4/4 1/1/1 
f 2/2/2 5/5/5 4/4/4 
f 5/5/5 6/6/6 4/4/4 
f 5/5/5 7/7/7 6/6/6 
f 7/7/7 8/8/8 6/6/6 
f 7/7/7 9/9/9 8/8/8 
f 9/9/9 10/10/10 8/8/8 
f 9/9/9 11/11/11 10/10/10 
f 11/11/11 12/12/12 10/10/10 
f 11/11/11 13/13/13 12/12/12 
f 13/13/13 14/14/14 12/12/12 
f 13/13/13 15/15/15 14/14/14 
f 15/15/15 16/16/16 14/14/14 
f 15/15/15 17/17/17 16/16/16 
f 17/17/17 18/18/18 16/16/16 
f 17/17/17 19/19/19 18/18/18 
f 19/19/19 20/20/20 18/18/18 
f 19/19/19 21/21/21 20/20/20 
f 21/21/21 22/22/22 20/20/20 
f 21/21/21 23/23/23 22/22/22 
f 23/23/23 24/24/24 22/22/22 
f 23/23/23 25/25/25 24/24/24 
f 25/25/25 26/26/26 24/24/24 
f 27/27/27 13/13/13 11/11/11 
f 27/27/27 28/28/28 13/13/13 
f 28/28/28 15/15/15 13/13/13 
f 28/28/28 29/29/29 15/15/15 
f 29/29/29 17/17/17 15/15/15 
f 29/29/29 30/30/30 17/17/17 
f 30/30/30 19/19/19 17/17/17 
f 30/30/30 31/31/31 19/19/19 
f 31/31/31 21/21/21 19/19/19 
f 31/31/31 32/32/32 21/21/21 
f 32/32/32 23/23/23 21/21/21 
f 32/32/32 33/33/33 23/23/23 
f 33/33/33 25/25/25 23/23/23 
f 34/34/34 28/28/28 27/27/27 
f 35/35/35 34/34/34 27/27/27 
f 35/35/35 27/27/27 36/36/36 
f 36/36/36 27/27/27 11/11/11 
f 36/36/36 11/11/11 9/9/9 
f 37/37/37 36/36/36 9/9/9 
f 37/37/37 9/9/9 7/7/7 
f 38/38/38 37/37/37 7/7/7 
f 38/38/38 7/7/7 5/5/5 
f 39/39/39 38/38/38 5/5/5 
f 39/39/39 5/5/5 2/2/2 
f 40/40/40 39/39/39 2/2/2 
f 40/40/40 2/2/2 3/3/3 
f 41/41/41 40/40/40 3/3/3 
f 42/42/42 40/40/40 41/41/41 
f 43/43/43 42/42/42 41/41/41 
f 42/42/42 44/44/44 40/40/40 
f 44/44/44 39/39/39 40/40/40 
f 44/44/44 45/45/45 39/39/39 
f 45/45/45 38/38/38 39/39/39 
f 45/45/45 46/46/46 38/38/38 
f 46/46/46 37/37/37 38/38/38 
f 46/46/46 47/47/47 37/37/37 
f 47/47/47 36/36/36 37/37/37 
f 47/47/47 35/35/35 36/36/36 
f 48/48/48 42/42/42 43/43/43 
f 49/49/49 48/48/48 43/43/43 
f 48/48/48 50/50/50 42/42/42 
f 50/50/50 44/44/44 42/42/42 
f 50/50/50 51/51/51 44/44/44 
f 51/51/51 45/45/45 44/44/44 
f 51/51/51 52/52/52 45/45/45 
f 52/52/52 46/46/46 45/45/45 
f 52/52/52 53/53/53 46/46/46 
f 53/53/53 47/47/47 46/46/46 
f 53/53/53 54/54/54 47/47/47 
f 54/54/54 35/35/35 47/47/47 
f 54/54/54 55/55/55 35/35/35 
f 55/55/55 34/34/34 35/35/35 
f 55/55/55 56/56/56 34/34/34 
f 56/56/56 57/57/57 34/34/34 
f 34/34/34 57/57/57 28/28/28 
f 57/57/57 29/29/29 28/28/28 
f 57/57/57 58/58/58 29/29/29 
f 58/58/58 30/30/30 29/29/29 
f 58/58/58 59/59/59 30/30/30 
f 59/59/59 31/31/31 30/30/30 
f 59/59/59 60/60/60 31/31/31 
f 60/60/60 32/32/32 31/31/31 
f 60/60/60 61/61/61 32/32/32 
f 61/61/61 33/33/33 32/32/32 
f 56/56/56 62/62/62 57/57/57 
f 62/62/62 58/58/58 57/57/57 
f 62/62/62 63/63/63 58/58/58 
f 63/63/63 59/59/59 58/58/58 
f 63/63/63 64/64/64 59/59/59 
f 64/64/64 60/60/60 59/59/59 
f 64/64/64 65/65/65 60/60/60 
f 65/65/65 61/61/61 60/60/60 
f 66/66/66 62/62/62 56/56/56 
f 67/67/67 63/63/63 62/62/62 
f 68/68/68 64/64/64 63/63/63 
f 69/69/69 65/65/65 64/64/64 
f 70/70/70 48/48/48 49/49/49 
f 71/71/71 50/50/50 48/48/48 
f 72/72/72 51/51/51 50/50/50 
f 73/73/73 52/52/52 51/51/51 
f 74/74/74 53/53/53 52/52/52 
f 75/75/75 54/54/54 53/53/53 
f 76/76/76 55/55/55 54/54/54 
f 77/77/77 56/56/56 55/55/55 
f 80/80/80 79/79/79 78/78/78 
f 79/79/79 81/81/81 78/78/78 
f 79/79/79 82/82/82 81/81/81 
f 82/82/82 83/83/83 81/81/81 
f 82/82/82 84/84/84 83/83/83 
f 84/84/84 85/85/85 83/83/83 
f 84/84/84 86/86/86 85/85/85 
f 86/86/86 87/87/87 85/85/85 
f 86/86/86 88/88/88 87/87/87 
f 88/88/88 89/89/89 87/87/87 
f 88/88/88 90/90/90 89/89/89 
f 90/90/90 91/91/91 89/89/89 
f 90/90/90 92/92/92 91/91/91 
f 92/92/92 93/93/93 91/91/91 
f 92/92/92 94/94/94 93/93/93 
f 94/94/94 95/95/95 93/93/93 
f 94/94/94 96/96/96 95/95/95 
f 96/96/96 97/97/97 95/95/95 
f 96/96/96 98/98/98 97/97/97 
f 98/98/98 99/99/99 97/97/97 
f 98/98/98 100/100/100 99/99/99 
f 100/100/100 101/101/101 99/99/99 
f 100/100/100 102/102/102 101/101/101 
f 102/102/102 103/103/103 101/101/101 
f 104/104/104 90/90/90 88/88/88 
f 104/104/104 105/105/105 90/90/90 
f 105/105/105 92/92/92 90/90/90 
f 105/105/105 106/106/106 92/92/92 
f 106/106/106 94/94/94 92/92/92 
f 106/106/106 107/107/107 94/94/94 
f 107/107/107 96/96/96 94/94/94 
f 107/107/107 108/108/108 96/96/96 
f 108/108/108 98/98/98 96/96/96 
f 108/108/108 109/109/109 98/98/98 
f 109/109/109 100/100/100 98/98/98 
f 109/109/109 110/110/110 100/100/100 
f 110/110/110 102/102/102 100/100/100 
f 111/111/111 105/105/105 104/104/104 
f 112/112/112 111/111/111 104/104/104 
f 112/112/112 104/104/104 113/113/113 
f 113/113/113 104/104/104 88/88/88 
f 113/113/113 88/88/88 86/86/86 
f 114/114/114 113/113/113 86/86/86 
f 114/114/114 86/86/86 84/84/84 
f 115/115/115 114/114/114 84/84/84 
f 115/115/115 84/84/84 82/82/82 
f 116/116/116 115/115/115 82/82/82 
f 116/116/116 82/82/82 79/79/79 
f 117/117/117 116/116/116 79/79/79 
f 117/117/117 79/79/79 80/80/80 
f 118/118/118 117/117/117 80/80/80 
f 119/119/119 117/117/117 118/118/118 
f 120/120/120 119/119/119 118/118/118 
f 119/119/119 121/121/121 117/117/117 
f 121/121/121 116/116/116 117/117/117 
f 121/121/121 122/122/122 116/116/116 
f 122/122/122 115/115/115 116/116/116 
f 122/122/122 123/123/123 115/115/115 
f 123/123/123 114/114/114 115/115/115 
f 123/123/123 124/124/124 114/114/114 
f 124/124/124 113/113/113 114/114/114 
f 124/124/124 112/112/112 113/113/113 
f 125/125/125 119/119/119 120/120/120 
f 126/126/126 125/125/125 120/120/120 
f 125/125/125 127/127/127 119/119/119 
f 127/127/127 121/121/121 119/119/119 
f 127/127/127 128/128/128 121/121/121 
f 128/128/128 122/122/122 121/121/121 
f 128/128/128 129/129/129 122/122/122 
f 129/129/129 123/123/123 122/122/122 
f 129/129/129 130/130/130 123/123/123 
f 130/130/130 124/124/124 123/123/123 
f 130/130/130 131/131/131 124/124/124 
f 131/131/131 112/112/112 124/124/124 
f 131/131/131 132/132/132 112/112/112 
f 132/132/132 111/111/111 112/112/112 
f 132/132/132 133/133/133 111/111/111 
f 133/133/133 134/134/134 111/111/111 
f 111/111/111 134/134/134 105/105/105 
f 134/134/134 106/106/106 105/105/105 
f 134/134/134 135/135/135 106/106/106 
f 135/135/135 107/107/107 106/106/106 
f 135/135/135 136/136/136 107/107/107 
f 136/136/136 108/108/108 107/107/107 
f 136/136/136 137/137/137 108/108/108 
f 137/137/137 109/109/109 108/108/108 
f 137/137/137 138/138/138 109/109/109 
f 138/138/138 110/110/110 109/109/109 
f 133/133/133 139/139/139 134/134/134 
f 139/139/139 135/135/135 134/134/134 
f 139/139/139 140/140/140 135/135/135 
f 140/140/140 136/136/136 135/135/135 
f 140/140/140 141/141/141 136/136/136 
f 141/141/141 137/137/137 136/136/136 
f 141/141/141 142/142/142 137/137/137 
f 142/142/142 138/138/138 137/137/137 
f 143/143/143 139/139/139 133/133/133 
f 144/144/144 140/140/140 139/139/139 
f 145/145/145 141/141/141 140/140/140 
f 146/146/146 142/142/142 141/141/141 
f 147/147/147 125/125/125 126/126/126 
f 148/148/148 127/127/127 125/125/125 
f 149/149/149 128/128/128 127/127/127 
f 150/150/150 129/129/129 128/128/128 
f 151/151/151 130/130/130 129/129/129 
f 152/152/152 131/131/131 130/130/130 
f 153/153/153 132/132/132 131/131/131 
f 154/154/154 133/133/133 132/132/132 
f 157/157/157 156/156/156 155/155/155 
f 156/156/156 158/158/158 155/155/155 
f 159/159/159 156/156/156 157/157/157 
f 160/160/160 159/159/159 157/157/157 
f 161/161/161 159/159/159 160/160/160 
f 162/162/162 161/161/161 160/160/160 
f 163/163/163 161/161/161 162/162/162 
f 164/164/164 163/163/163 162/162/162 
f 165/165/165 163/163/163 164/164/164 
f 166/166/166 165/165/165 164/164/164 
f 167/167/167 165/165/165 166/166/166 
f 168/168/168 167/167/167 166/166/166 
f 169/169/169 167/167/167 168/168/168 
f 170/170/170 169/169/169 168/168/168 
f 171/171/171 169/169/169 170/170/170 
f 172/172/172 171/171/171 170/170/170 
f 173/173/173 171/171/171 172/172/172 
f 174/174/174 173/173/173 172/172/172 
f 175/175/175 173/173/173 174/174/174 
f 176/176/176 175/175/175 174/174/174 
f 177/177/177 175/175/175 176/176/176 
f 178/178/178 177/177/177 176/176/176 
f 179/179/179 177/177/177 178/178/178 
f 180/180/180 179/179/179 178/178/178 
f 167/167/167 181/181/181 165/165/165 
f 169/169/169 182/182/182 167/167/167 
f 182/182/182 181/181/181 167/167/167 
f 171/171/171 183/183/183 169/169/169 
f 183/183/183 182/182/182 169/169/169 
f 173/173/173 184/184/184 171/171/171 
f 184/184/184 183/183/183 171/171/171 
f 175/175/175 185/185/185 173/173/173 
f 185/185/185 184/184/184 173/173/173 
f 177/177/177 186/186/186 175/175/175 
f 186/186/186 185/185/185 175/175/175 
f 179/179/179 187/187/187 177/177/177 
f 187/187/187 186/186/186 177/177/177 
f 182/182/182 188/188/188 181/181/181 
f 188/188/188 189/189/189 181/181/181 
f 181/181/181 189/189/189 190/190/190 
f 181/181/181 190/190/190 165/165/165 
f 165/165/165 190/190/190 163/163/163 
f 190/190/190 191/191/191 163/163/163 
f 163/163/163 191/191/191 161/161/161 
f 191/191/191 192/192/192 161/161/161 
f 161/161/161 192/192/192 159/159/159 
f 192/192/192 193/193/193 159/159/159 
f 159/159/159 193/193/193 156/156/156 
f 193/193/193 194/194/194 156/156/156 
f 156/156/156 194/194/194 158/158/158 
f 194/194/194 195/195/195 158/158/158 
f 194/194/194 196/196/196 195/195/195 
f 196/196/196 197/197/197 195/195/195 
f 193/193/193 198/198/198 194/194/194 
f 198/198/198 196/196/196 194/194/194 
f 192/192/192 199/199/199 193/193/193 
f 199/199/199 198/198/198 193/193/193 
f 191/191/191 200/200/200 192/192/192 
f 200/200/200 199/199/199 192/192/192 
f 201/201/201 200/200/200 191/191/191 
f 190/190/190 201/201/201 191/191/191 
f 189/189/189 201/201/201 190/190/190 
f 196/196/196 202/202/202 197/197/197 
f 202/202/202 203/203/203 197/197/197 
f 198/198/198 204/204/204 196/196/196 
f 204/204/204 202/202/202 196/196/196 
f 199/199/199 205/205/205 198/198/198 
f 205/205/205 204/204/204 198/198/198 
f 200/200/200 206/206/206 199/199/199 
f 206/206/206 205/205/205 199/199/199 
f 201/201/201 207/207/207 200/200/200 
f 207/207/207 206/206/206 200/200/200 
f 189/189/189 208/208/208 201/201/201 
f 208/208/208 207/207/207 201/201/201 
f 209/209/209 208/208/208 189/189/189 
f 188/188/188 209/209/209 189/189/189 
f 210/210/210 209/209/209 188/188/188 
f 211/211/211 210/210/210 188/188/188 
f 211/211/211 188/188/188 182/182/182 
f 183/183/183 211/211/211 182/182/182 
f 212/212/212 211/211/211 183/183/183 
f 184/184/184 212/212/212 183/183/183 
f 213/213/213 212/212/212 184/184/184 
f 185/185/185 213/213/213 184/184/184 
f 214/214/214 213/213/213 185/185/185 
f 186/186/186 214/214/214 185/185/185 
f 215/215/215 214/214/214 186/186/186 
f 187/187/187 215/215/215 186/186/186 
f 212/212/212 216/216/216 211/211/211 
f 216/216/216 210/210/210 211/211/211 
f 213/213/213 217/217/217 212/212/212 
f 217/217/217 216/216/216 212/212/212 
f 214/214/214 218/218/218 213/213/213 
f 218/218/218 217/217/217 213/213/213 
f 215/215/215 219/219/219 214/214/214 
f 219/219/219 218/218/218 214/214/214 
f 216/216/216 220/220/220 210/210/210 
f 217/217/217 221/221/221 216/216/216 
f 218/218/218 222/222/222 217/217/217 
f 219/219/219 223/223/223 218/218/218 
f 202/202/202 224/224/224 203/203/203 
f 204/204/204 225/225/225 202/202/202 
f 205/205/205 226/226/226 204/204/204 
f 206/206/206 227/227/227 205/205/205 
f 207/207/207 228/228/228 206/206/206 
f 208/208/208 229/229/229 207/207/207 
f 209/209/209 230/230/230 208/208/208 
f 210/210/210 231/231/231 209/209/209 
f 234/234/234 233/233/233 232/232/232 
f 233/233/233 235/235/235 232/232/232 
f 236/236/236 233/233/233 234/234/234 
f 237/237/237 236/236/236 234/234/234 
f 238/238/238 236/236/236 237/237/237 
f 239/239/239 238/238/238 237/237/237 
f 240/240/240 238/238/238 239/239/239 
f 241/241/241 240/240/240 239/239/239 
f 242/242/242 240/240/240 241/241/241 
f 243/243/243 242/242/242 241/241/241 
f 244/244/244 242/242/242 243/243/243 
f 245/245/245 244/244/244 243/243/243 
f 246/246/246 244/244/244 245/245/245 
f 247/247/247 246/246/246 245/245/245 
f 248/248/248 246/246/246 247/247/247 
f 249/249/249 248/248/248 247/247/247 
f 250/250/250 248/248/248 249/249/249 
f 251/251/251 250/250/250 249/249/249 
f 252/252/252 250/250/250 251/251/251 
f 253/253/253 252/252/252 251/251/251 
f 254/254/254 252/252/252 253/253/253 
f 255/255/255 254/254/254 253/253/253 
f 256/256/256 254/254/254 255/255/255 
f 257/257/257 256/256/256 255/255/255 
f 244/244/244 258/258/258 242/242/242 
f 246/246/246 259/259/259 244/244/244 
f 259/259/259 258/258/258 244/244/244 
f 248/248/248 260/260/260 246/246/246 
f 260/260/260 259/259/259 246/246/246 
f 250/250/250 261/261/261 248/248/248 
f 261/261/261 260/260/260 248/248/248 
f 252/252/252 262/262/262 250/250/250 
f 262/262/262 261/261/261 250/250/250 
f 254/254/254 263/263/263 252/252/252 
f 263/263/263 262/262/262 252/252/252 
f 256/256/256 264/264/264 254/254/254 
f 264/264/264 263/263/263 254/254/254 
f 259/259/259 265/265/265 258/258/258 
f 265/265/265 266/266/266 258/258/258 
f 258/258/258 266/266/266 267/267/267 
f 258/258/258 267/267/267 242/242/242 
f 242/242/242 267/267/267 240/240/240 
f 267/267/267 268/268/268 240/240/240 
f 240/240/240 268/268/268 238/238/238 
f 268/268/268 269/269/269 238/238/238 
f 238/238/238 269/269/269 236/236/236 
f 269/269/269 270/270/270 236/236/236 
f 236/236/236 270/270/270 233/233/233 
f 270/270/270 271/271/271 233/233/233 
f 233/233/233 271/271/271 235/235/235 
f 271/271/271 272/272/272 235/235/235 
f 271/271/271 273/273/273 272/272/272 
f 273/273/273 274/274/274 272/272/272 
f 270/270/270 275/275/275 271/271/271 
f 275/275/275 273/273/273 271/271/271 
f 269/269/269 276/276/276 270/270/270 
f 276/276/276 275/275/275 270/270/270 
f 268/268/268 277/277/277 269/269/269 
f 277/277/277 276/276/276 269/269/269 
f 278/278/278 277/277/277 268/268/268 
f 267/267/267 278/278/278 268/268/268 
f 266/266/266 278/278/278 267/267/267 
f 273/273/273 279/279/279 274/274/274 
f 279/279/279 280/280/280 274/274/274 
f 275/275/275 281/281/281 273/273/273 
f 281/281/281 279/279/279 273/273/273 
f 276/276/276 282/282/282 275/275/275 
f 282/282/282 281/281/281 275/275/275 
f 277/277/277 283/283/283 276/276/276 
f 283/283/283 282/282/282 276/276/276 
f 278/278/278 284/284/284 277/277/277 
f 284/284/284 283/283/283 277/277/277 
f 266/266/266 285/285/285 278/278/278 
f 285/285/285 284/284/284 278/278/278 
f 286/286/286 285/285/285 266/266/266 
f 265/265/265 286/286/286 266/266/266 
f 287/287/287 286/286/286 265/265/265 
f 288/288/288 287/287/287 265/265/265 
f 288/288/288 265/265/265 259/259/259 
f 260/260/260 288/288/288 259/259/259 
f 289/289/289 288/288/288 260/260/260 
f 261/261/261 289/289/289 260/260/260 
f 290/290/290 289/289/289 261/261/261 
f 262/262/262 290/290/290 261/261/261 
f 291/291/291 290/290/290 262/262/262 
f 263/263/263 291/291/291 262/262/262 
f 292/292/292 291/291/291 263/263/263 
f 264/264/264 292/292/292 263/263/263 
f 289/289/289 293/293/293 288/288/288 
f 293/293/293 287/287/287 288/288/288 
f 290/290/290 294/294/294 289/289/289 
f 294/294/294 293/293/293 289/289/289 
f 291/291/291 295/295/295 290/290/290 
f 295/295/295 294/294/294 290/290/290 
f 292/292/292 296/296/296 291/291/291 
f 296/296/296 295/295/295 291/291/291 
f 293/293/293 297/297/297 287/287/287 
f 294/294/294 298/298/298 293/293/293 
f 295/295/295 299/299/299 294/294/294 
f 296/296/296 300/300/300 295/295/295 
f 279/279/279 301/301/301 280/280/280 
f 281/281/281 302/302/302 279/279/279 
f 282/282/282 303/303/303 281/281/281 
f 283/283/283 304/304/304 282/282/282 
f 284/284/284 305/305/305 283/283/283 
f 285/285/285 306/306/306 284/284/284 
f 286/286/286 307/307/307 285/285/285 
f 287/287/287 308/308/308 286/286/286 
f 311/311/311 310/310/310 309/309/309 
f 310/310/310 312/312/312 309/309/309 
f 313/313/313 310/310/310 311/311/311 
f 314/314/314 313/313/313 311/311/311 
f 315/315/315 313/313/313 314/314/314 
f 316/316/316 315/315/315 314/314/314 
f 317/317/317 309/309/309 312/312/312 
f 318/318/318 317/317/317 312/312/312 
f 319/319/319 317/317/317 318/318/318 
f 320/320/320 319/319/319 318/318/318 
f 321/321/321 319/319/319 320/320/320 
f 322/322/322 321/321/321 320/320/320 
f 323/323/323 321/321/321 322/322/322 
f 324/324/324 321/321/321 323/323/323 
f 325/325/325 324/324/324 323/323/323 
f 326/326/326 325/325/325 323/323/323 
f 327/327/327 326/326/326 323/323/323 
f 322/322/322 328/328/328 323/323/323 
f 328/328/328 327/327/327 323/323/323 
f 329/329/329 326/326/326 327/327/327 
f 330/330/330 329/329/329 327/327/327 
f 328/328/328 330/330/330 327/327/327 
f 331/331/331 329/329/329 330/330/330 
f 332/332/332 331/331/331 330/330/330 
f 332/332/332 330/330/330 328/328/328 
f 333/333/333 332/332/332 328/328/328 
f 333/333/333 328/328/328 322/322/322 
f 334/334/334 333/333/333 322/322/322 
f 334/334/334 322/322/322 320/320/320 
f 335/335/335 334/334/334 320/320/320 
f 335/335/335 320/320/320 318/318/318 
f 336/336/336 335/335/335 318/318/318 
f 336/336/336 318/318/318 312/312/312 
f 337/337/337 336/336/336 312/312/312 
f 337/337/337 312/312/312 310/310/310 
f 338/338/338 337/337/337 310/310/310 
f 338/338/338 310/310/310 313/313/313 
f 339/339/339 338/338/338 313/313/313 
f 339/339/339 313/313/313 315/315/315 
f 340/340/340 339/339/339 315/315/315 
f 341/341/341 331/331/331 332/332/332 
f 342/342/342 341/341/341 332/332/332 
f 343/343/343 341/341/341 342/342/342 
f 344/344/344 343/343/343 342/342/342 
f 344/344/344 342/342/342 345/345/345 
f 344/344/344 345/345/345 346/346/346 
f 344/344/344 346/346/346 347/347/347 
f 348/348/348 344/344/344 347/347/347 
f 348/348/348 347/347/347 349/349/349 
f 350/350/350 348/348/348 349/349/349 
f 350/350/350 349/349/349 351/351/351 
f 352/352/352 350/350/350 351/351/351 
f 352/352/352 351/351/351 353/353/353 
f 354/354/354 352/352/352 353/353/353 
f 354/354/354 353/353/353 355/355/355 
f 356/356/356 354/354/354 355/355/355 
f 356/356/356 355/355/355 357/357/357 
f 358/358/358 356/356/356 357/357/357 
f 346/346/346 345/345/345 334/334/334 
f 345/345/345 333/333/333 334/334/334 
f 345/345/345 342/342/342 333/333/333 
f 342/342/342 332/332/332 333/333/333 
f 351/351/351 349/349/349 337/337/337 
f 349/349/349 336/336/336 337/337/337 
f 349/349/349 347/347/347 336/336/336 
f 347/347/347 335/335/335 336/336/336 
f 347/347/347 346/346/346 335/335/335 
f 346/346/346 334/334/334 335/335/335 
f 357/357/357 355/355/355 340/340/340 
f 355/355/355 339/339/339 340/340/340 
f 355/355/355 353/353/353 339/339/339 
f 353/353/353 338/338/338 339/339/339 
f 353/353/353 351/351/351 338/338/338 
f 351/351/351 337/337/337 338/338/338 
f 361/361/361 360/360/360 359/359/359 
f 360/360/360 362/362/362 359/359/359 
f 360/360/360 363/363/363 362/362/362 
f 363/363/363 364/364/364 362/362/362 
f 363/363/363 365/365/365 364/364/364 
f 365/365/365 366/366/366 364/364/364 
f 359/359/359 367/367/367 361/361/361 
f 367/367/367 368/368/368 361/361/361 
f 367/367/367 369/369/369 368/368/368 
f 369/369/369 370/370/370 368/368/368 
f 369/369/369 371/371/371 370/370/370 
f 371/371/371 372/372/372 370/370/370 
f 371/371/371 373/373/373 372/372/372 
f 371/371/371 324/324/324 373/373/373 
f 324/324/324 325/325/325 373/373/373 
f 325/325/325 326/326/326 373/373/373 
f 326/326/326 374/374/374 373/373/373 
f 374/374/374 375/375/375 373/373/373 
f 375/375/375 372/372/372 373/373/373 
f 326/326/326 329/329/329 374/374/374 
f 329/329/329 376/376/376 374/374/374 
f 376/376/376 375/375/375 374/374/374 
f 329/329/329 331/331/331 376/376/376 
f 331/331/331 377/377/377 376/376/376 
f 376/376/376 377/377/377 375/375/375 
f 377/377/377 378/378/378 375/375/375 
f 375/375/375 378/378/378 372/372/372 
f 378/378/378 379/379/379 372/372/372 
f 372/372/372 379/379/379 370/370/370 
f 379/379/379 380/380/380 370/370/370 
f 370/370/370 380/380/380 368/368/368 
f 380/380/380 381/381/381 368/368/368 
f 368/368/368 381/381/381 361/361/361 
f 381/381/381 382/382/382 361/361/361 
f 361/361/361 382/382/382 360/360/360 
f 382/382/382 383/383/383 360/360/360 
f 360/360/360 383/383/383 363/363/363 
f 383/383/383 384/384/384 363/363/363 
f 363/363/363 384/384/384 365/365/365 
f 384/384/384 385/385/385 365/365/365 
f 331/331/331 341/341/341 377/377/377 
f 378/378/378 386/386/386 379/379/379 
f 387/387/387 386/386/386 378/378/378 
f 341/341/341 343/343/343 387/387/387 
f 343/343/343 388/388/388 387/387/387 
f 387/387/387 388/388/388 386/386/386 
f 386/386/386 388/388/388 389/389/389 
f 389/389/389 388/388/388 390/390/390 
f 388/388/388 391/391/391 390/390/390 
f 390/390/390 391/391/391 392/392/392 
f 391/391/391 393/393/393 392/392/392 
f 392/392/392 393/393/393 394/394/394 
f 393/393/393 395/395/395 394/394/394 
f 394/394/394 395/395/395 396/396/396 
f 395/395/395 397/397/397 396/396/396 
f 396/396/396 397/397/397 398/398/398 
f 397/397/397 399/399/399 398/398/398 
f 398/398/398 399/399/399 400/400/400 
f 399/399/399 401/401/401 400/400/400 
f 389/389/389 390/390/390 380/380/380 
f 379/379/379 389/389/389 380/380/380 
f 386/386/386 389/389/389 379/379/379 
f 380/380/380 390/390/390 381/381/381 
f 390/390/390 392/392/392 381/381/381 
f 381/381/381 392/392/392 382/382/382 
f 392/392/392 394/394/394 382/382/382 
f 382/382/382 394/394/394 383/383/383 
f 394/394/394 396/396/396 383/383/383 
f 383/383/383 396/396/396 384/384/384 
f 396/396/396 398/398/398 384/384/384 
f 384/384/384 398/398/398 385/385/385 
f 398/398/398 400/400/400 385/385/385 
f 341/341/341 387/387/387 377/377/377 
f 377/377/377 387/387/387 378/378/378 
f 404/404/404 403/403/403 402/402/402 
f 403/403/403 405/405/405 402/402/402 
f 403/403/403 406/406/406 405/405/405 
f 406/406/406 407/407/407 405/405/405 
f 406/406/406 408/408/408 407/407/407 
f 408/408/408 409/409/409 407/407/407 
f 402/402/402 410/410/410 404/404/404 
f 410/410/410 411/411/411 404/404/404 
f 410/410/410 412/412/412 411/411/411 
f 412/412/412 413/413/413 411/411/411 
f 412/412/412 414/414/414 413/413/413 
f 414/414/414 415/415/415 413/413/413 
f 414/414/414 416/416/416 415/415/415 
f 414/414/414 417/417/417 416/416/416 
f 417/417/417 418/418/418 416/416/416 
f 418/418/418 419/419/419 416/416/416 
f 419/419/419 420/420/420 416/416/416 
f 420/420/420 421/421/421 416/416/416 
f 421/421/421 415/415/415 416/416/416 
f 419/419/419 422/422/422 420/420/420 
f 422/422/422 423/423/423 420/420/420 
f 423/423/423 421/421/421 420/420/420 
f 422/422/422 424/424/424 423/423/423 
f 424/424/424 425/425/425 423/423/423 
f 423/423/423 425/425/425 421/421/421 
f 425/425/425 426/426/426 421/421/421 
f 421/421/421 426/426/426 415/415/415 
f 426/426/426 427/427/427 415/415/415 
f 415/415/415 427/427/427 413/413/413 
f 427/427/427 428/428/428 413/413/413 
f 413/413/413 428/428/428 411/411/411 
f 428/428/428 429/429/429 411/411/411 
f 411/411/411 429/429/429 404/404/404 
f 429/429/429 430/430/430 404/404/404 
f 404/404/404 430/430/430 403/403/403 
f 430/430/430 431/431/431 403/403/403 
f 403/403/403 431/431/431 406/406/406 
f 431/431/431 432/432/432 406/406/406 
f 406/406/406 432/432/432 408/408/408 
f 432/432/432 433/433/433 408/408/408 
f 424/424/424 434/434/434 425/425/425 
f 426/426/426 435/435/435 427/427/427 
f 436/436/436 435/435/435 426/426/426 
f 434/434/434 437/437/437 436/436/436 
f 437/437/437 438/438/438 436/436/436 
f 436/436/436 438/438/438 435/435/435 
f 435/435/435 438/438/438 439/439/439 
f 439/439/439 438/438/438 440/440/440 
f 438/438/438 441/441/441 440/440/440 
f 440/440/440 441/441/441 442/442/442 
f 441/441/441 443/443/443 442/442/442 
f 442/442/442 443/443/443 444/444/444 
f 443/443/443 445/445/445 444/444/444 
f 444/444/444 445/445/445 446/446/446 
f 445/445/445 447/447/447 446/446/446 
f 446/446/446 447/447/447 448/448/448 
f 447/447/447 449/449/449 448/448/448 
f 448/448/448 449/449/449 450/450/450 
f 449/449/449 451/451/451 450/450/450 
f 439/439/439 440/440/440 428/428/428 
f 427/427/427 439/439/439 428/428/428 
f 435/435/435 439/439/439 427/427/427 
f 428/428/428 440/440/440 429/429/429 
f 440/440/440 442/442/442 429/429/429 
f 429/429/429 442/442/442 430/430/430 
f 442/442/442 444/444/444 430/430/430 
f 430/430/430 444/444/444 431/431/431 
f 444/444/444 446/446/446 431/431/431 
f 431/431/431 446/446/446 432/432/432 
f 446/446/446 448/448/448 432/432/432 
f 432/432/432 448/448/448 433/433/433 
f 448/448/448 450/450/450 433/433/433 
f 434/434/434 436/436/436 425/425/425 
f 425/425/425 436/436/436 426/426/426 
f 437/437/437 434/434/434 452/452/452 
f 453/453/453 437/437/437 452/452/452 
f 453/453/453 452/452/452 454/454/454 
f 453/453/453 454/454/454 455/455/455 
f 453/453/453 455/455/455 456/456/456 
f 457/457/457 453/453/453 456/456/456 
f 457/457/457 456/456/456 458/458/458 
f 459/459/459 457/457/457 458/458/458 
f 459/459/459 458/458/458 460/460/460 
f 461/461/461 459/459/459 460/460/460 
f 461/461/461 460/460/460 462/462/462 
f 463/463/463 461/461/461 462/462/462 
f 463/463/463 462/462/462 464/464/464 
f 465/465/465 463/463/463 464/464/464 
f 465/465/465 464/464/464 466/466/466 
f 467/467/467 465/465/465 466/466/466 
f 455/455/455 454/454/454 468/468/468 
f 454/454/454 469/469/469 468/468/468 
f 468/468/468 469/469/469 470/470/470 
f 469/469/469 471/471/471 470/470/470 
f 470/470/470 471/471/471 472/472/472 
f 472/472/472 473/473/473 470/470/470 
f 470/470/470 473/473/473 474/474/474 
f 468/468/468 470/470/470 474/474/474 
f 473/473/473 475/475/475 474/474/474 
f 474/474/474 475/475/475 476/476/476 
f 475/475/475 477/477/477 476/476/476 
f 476/476/476 477/477/477 478/478/478 
f 477/477/477 479/479/479 478/478/478 
f 480/480/480 478/478/478 479/479/479 
f 481/481/481 480/480/480 479/479/479 
f 482/482/482 480/480/480 481/481/481 
f 483/483/483 482/482/482 481/481/481 
f 484/484/484 482/482/482 483/483/483 
f 485/485/485 484/484/484 483/483/483 
f 417/417/417 473/473/473 472/472/472 
f 418/418/418 417/417/417 472/472/472 
f 419/419/419 418/418/418 472/472/472 
f 486/486/486 474/474/474 476/476/476 
f 486/486/486 468/468/468 474/474/474 
f 487/487/487 486/486/486 476/476/476 
f 487/487/487 476/476/476 478/478/478 
f 488/488/488 487/487/487 478/478/478 
f 488/488/488 478/478/478 480/480/480 
f 489/489/489 488/488/488 480/480/480 
f 489/489/489 480/480/480 482/482/482 
f 490/490/490 489/489/489 482/482/482 
f 490/490/490 482/482/482 484/484/484 
f 491/491/491 490/490/490 484/484/484 
f 455/455/455 468/468/468 486/486/486 
f 456/456/456 455/455/455 486/486/486 
f 456/456/456 486/486/486 487/487/487 
f 458/458/458 456/456/456 487/487/487 
f 458/458/458 487/487/487 488/488/488 
f 460/460/460 458/458/458 488/488/488 
f 460/460/460 488/488/488 489/489/489 
f 462/462/462 460/460/460 489/489/489 
f 462/462/462 489/489/489 490/490/490 
f 464/464/464 462/462/462 490/490/490 
f 464/464/464 490/490/490 491/491/491 
f 466/466/466 464/464/464 491/491/491 
f 492/492/492 419/419/419 472/472/472 
f 471/471/471 492/492/492 472/472/472 
f 471/471/471 493/493/493 492/492/492 
f 493/493/493 422/422/422 492/492/492 
f 422/422/422 419/419/419 492/492/492 
f 424/424/424 422/422/422 493/493/493 
f 494/494/494 424/424/424 493/493/493 
f 494/494/494 493/493/493 471/471/471 
f 469/469/469 494/494/494 471/471/471 
f 434/434/434 424/424/424 494/494/494 
f 452/452/452 434/434/434 494/494/494 
f 452/452/452 494/494/494 469/469/469 
f 454/454/454 452/452/452 469/469/469 

