# Created by DisUnity v0.3.2
v 0.043638304 1.0219107 -1.4622678
v 0.04986969 1.028532 -1.468707
v 0.046418 1.0232484 -1.4706863
v 0.047090147 1.0271944 -1.460288
v 0.039974976 1.0308579 -1.4573001
v 0.037119444 1.0258664 -1.4590362
v 0.055196226 1.036686 -1.4656521
v 0.052416686 1.0353482 -1.4572335
v 0.05616928 1.1544203 -1.4466201
v 0.053389892 1.1530824 -1.4382015
v 0.051687162 1.1610144 -1.4470522
v 0.04890747 1.1596764 -1.4386337
v 0.041601256 1.1554345 -1.436965
v 0.045296628 1.1492655 -1.4367251
v 0.045296628 1.1492655 -1.4367251
v 0.04438171 1.0385611 -1.4546206
v 0.04723404 1.1675657 -1.4474815
v 0.044454344 1.1662279 -1.4390627
v 0.03792984 1.1615641 -1.4372032
v 0.04438171 1.0385611 -1.4546206
v 0.044454344 1.1662279 -1.4390627
v -0.011935425 1.1711218 -1.466454
v 0.04723404 1.1675657 -1.4474815
v -0.014715271 1.169784 -1.4580356
v -0.010931091 1.1645006 -1.4528705
v 0.03792984 1.1615641 -1.4372032
v -0.019645385 1.0312048 -1.481687
v -0.013504944 1.0268497 -1.4899004
v -0.016865691 1.0325428 -1.4901053
v -0.016284484 1.0255116 -1.4814819
v -0.012363587 1.02884 -1.4749029
v -0.01513382 1.0341698 -1.4749707
v -0.024832001 1.0399903 -1.4820033
v -0.019408569 1.0423946 -1.475075
v -0.022052001 1.0413287 -1.4904218
v -0.023858642 1.1577251 -1.4629712
v -0.021078948 1.1590627 -1.4713895
v -0.019272156 1.163774 -1.4604952
v -0.016492309 1.1651119 -1.4689138
v -0.0184935 1.1530993 -1.4571794
v -0.014700012 1.1588185 -1.4550179
v -0.019408569 1.0423946 -1.475075
v -0.0184935 1.1530993 -1.4571794
v -0.014715271 1.169784 -1.4580356
v -0.010931091 1.1645006 -1.4528705
v -0.011935425 1.1711218 -1.466454
v -0.016284484 1.0255116 -1.4814819
v 0.046418 1.0232484 -1.4706863
v -0.013504944 1.0268497 -1.4899004
v 0.043638304 1.0219107 -1.4622678
v 0.037119444 1.0258664 -1.4590362
v -0.012363587 1.02884 -1.4749029
v 0.041700132 1.0250777 -1.4634155
v -0.016770324 1.0338631 -1.4813261
v -0.013666687 1.0284053 -1.4811686
v 0.0448909 1.0301573 -1.4615545
v -0.021559753 1.0422859 -1.481569
v 0.049815062 1.0379963 -1.4586828
v -0.020625763 1.1553078 -1.4632988
v 0.050749052 1.1510185 -1.4404125
v -0.016385803 1.1611246 -1.4609743
v 0.0466098 1.1573385 -1.4407752
v -0.012173309 1.1669037 -1.458665
v 0.0424971 1.1636181 -1.4411349
v -0.012363587 1.02884 -1.4749029
v 0.039974976 1.0308579 -1.4573001
v 0.037119444 1.0258664 -1.4590362
v -0.01513382 1.0341698 -1.4749707
v 0.04438171 1.0385611 -1.4546206
v -0.019408569 1.0423946 -1.475075
v 0.045296628 1.1492655 -1.4367251
v -0.0184935 1.1530993 -1.4571794
v 0.041601256 1.1554345 -1.436965
v -0.014700012 1.1588185 -1.4550179
v 0.03792984 1.1615641 -1.4372032
v -0.010931091 1.1645006 -1.4528705
v 0.046418 1.0232484 -1.4706863
v -0.011181946 1.029601 -1.4886929
v -0.013504944 1.0268497 -1.4899004
v 0.044184722 1.0262736 -1.4709398
v -0.014285583 1.035059 -1.4888504
v -0.016865691 1.0325428 -1.4901053
v 0.04986969 1.028532 -1.468707
v 0.04737549 1.0313532 -1.4690788
v 0.055196226 1.036686 -1.4656521
v 0.052299652 1.0391922 -1.4662071
v 0.05616928 1.1544203 -1.4466201
v 0.053233795 1.1522142 -1.4479368
v 0.051687162 1.1610144 -1.4470522
v 0.049094237 1.1585344 -1.4482992
v 0.04723404 1.1675657 -1.4474815
v 0.04498169 1.1648138 -1.4486593
v -0.011935425 1.1711218 -1.466454
v -0.00968872 1.1680995 -1.4661893
v -0.013901367 1.1623203 -1.4684988
v -0.016492309 1.1651119 -1.4689138
v -0.021078948 1.1590627 -1.4713895
v -0.018141327 1.1565033 -1.4708232
v -0.022052001 1.0413287 -1.4904218
v -0.019075317 1.0434816 -1.4890934
v 0.044184722 1.0262736 -1.4709398
v -0.013666687 1.0284053 -1.4811686
v -0.011181946 1.029601 -1.4886929
v 0.041700132 1.0250777 -1.4634155
v -0.011181946 1.029601 -1.4886929
v -0.016770324 1.0338631 -1.4813261
v -0.014285583 1.035059 -1.4888504
v -0.013666687 1.0284053 -1.4811686
v -0.019075317 1.0434816 -1.4890934
v -0.021559753 1.0422859 -1.481569
v 0.0448909 1.0301573 -1.4615545
v 0.044184722 1.0262736 -1.4709398
v 0.04737549 1.0313532 -1.4690788
v 0.041700132 1.0250777 -1.4634155
v 0.052299652 1.0391922 -1.4662071
v 0.049815062 1.0379963 -1.4586828
v -0.018141327 1.1565033 -1.4708232
v -0.016385803 1.1611246 -1.4609743
v -0.013901367 1.1623203 -1.4684988
v -0.020625763 1.1553078 -1.4632988
v -0.00968872 1.1680995 -1.4661893
v -0.012173309 1.1669037 -1.458665
v -0.00968872 1.1680995 -1.4661893
v 0.0424971 1.1636181 -1.4411349
v 0.04498169 1.1648138 -1.4486593
v -0.012173309 1.1669037 -1.458665
v 0.0466098 1.1573385 -1.4407752
v 0.053233795 1.1522142 -1.4479368
v 0.049094237 1.1585344 -1.4482992
v 0.050749052 1.1510185 -1.4404125
v 0.04498169 1.1648138 -1.4486593
v 0.0424971 1.1636181 -1.4411349
v -0.019075317 1.0434816 -1.4890934
v -0.020625763 1.1553078 -1.4632988
v -0.018141327 1.1565033 -1.4708232
v -0.021559753 1.0422859 -1.481569
v 0.053233795 1.1522142 -1.4479368
v 0.049815062 1.0379963 -1.4586828
v 0.052299652 1.0391922 -1.4662071
v 0.050749052 1.1510185 -1.4404125
v 0.013247528 1.0350981 -1.4666944
v -0.006603241 1.0394064 -1.4535402
v 0.008347168 1.0326427 -1.4501214
v -0.0017025756 1.041862 -1.4701129
v -0.01297409 1.0549045 -1.4531277
v -0.00807373 1.0573599 -1.4697006
v 0.02801956 1.0410305 -1.4614472
v 0.023118896 1.038575 -1.4448745
v 0.033959806 1.0561842 -1.4574456
v 0.029059447 1.0537288 -1.4408728
v -0.010932617 1.1056083 -1.4444027
v -0.006032257 1.1080636 -1.4609756
v -0.01297409 1.0549045 -1.4531277
v 8.702087E-4 1.1227441 -1.4567595
v -0.010932617 1.1056083 -1.4444027
v -0.004030304 1.1202888 -1.4401867
v 0.016025696 1.1276538 -1.4515506
v 0.0111253355 1.1251986 -1.4349777
v 0.03055664 1.1199172 -1.4484001
v 0.02565628 1.1174618 -1.4318273
v 0.035950925 1.1040657 -1.4491534
v 0.031050567 1.1016103 -1.4325807
v 0.029059447 1.0537288 -1.4408728
v 0.031050567 1.1016103 -1.4325807
v 0.008347168 1.0326427 -1.4501214
v -0.006603241 1.0394064 -1.4535402
v 0.008042603 1.0543166 -1.4470004
v -0.01297409 1.0549045 -1.4531277
v 0.023118896 1.038575 -1.4448745
v 0.029059447 1.0537288 -1.4408728
v 0.0100588985 1.1036093 -1.4384918
v -0.010932617 1.1056083 -1.4444027
v -0.004030304 1.1202888 -1.4401867
v 0.0111253355 1.1251986 -1.4349777
v 0.02565628 1.1174618 -1.4318273
v 0.031050567 1.1016103 -1.4325807
v 0.010169525 1.0703596 -1.3959963
v 0.008861084 1.0635245 -1.4041635
v 0.0063507077 1.065555 -1.397836
v 0.014563293 1.0707875 -1.4013876
v -3.5705566E-4 1.0653203 -1.406341
v 2.217102E-4 1.0667144 -1.3992988
v -0.0038223267 1.0742656 -1.4057759
v -0.0020887756 1.0726787 -1.3989222
v 0.0018637085 1.0815872 -1.403023
v 0.0017298888 1.0774833 -1.3970828
v 0.01109787 1.0797328 -1.4008228
v 0.007859039 1.0763239 -1.3956198
v 0.014563293 1.0707875 -1.4013876
v 0.010169525 1.0703596 -1.3959963
v 0.006290436 1.069798 -1.4159791
v 0.011674805 1.0686798 -1.4147379
v 0.014950714 1.0729713 -1.4131042
v 0.014950714 1.0729713 -1.4131042
v 0.0129393 1.0781634 -1.4127761
v 0.0075241085 1.079394 -1.4140615
v 0.004279022 1.07499 -1.4156512
v 0.006290436 1.069798 -1.4159791
v 0.011907348 1.0787191 -1.4428561
v 0.004279022 1.07499 -1.4156512
v 0.014036255 1.0732234 -1.4432031
v 0.011674805 1.0686798 -1.4147379
v 0.019828185 1.0718325 -1.4419513
v 0.014950714 1.0729713 -1.4131042
v 0.023203278 1.0765823 -1.4401599
v 0.015191345 1.083802 -1.4411954
v 0.0075241085 1.079394 -1.4140615
v 0.021074371 1.0820783 -1.4398129
v 0.0129393 1.0781634 -1.4127761
v 0.023203278 1.0765823 -1.4401599
v 0.014950714 1.0729713 -1.4131042
v 0.017982988 1.0443512 -1.4136082
v 0.004805008 1.0544618 -1.4149197
v 0.004805008 1.0466564 -1.4185562
v 0.017982988 1.0521567 -1.4099717
v -0.008372972 1.0521567 -1.4099717
v -0.008372972 1.0443512 -1.4136082
v -0.01383147 1.0465916 -1.3980266
v -0.01383147 1.0387862 -1.4016631
v -0.008372972 1.0410266 -1.3860813
v -0.008372972 1.033221 -1.3897178
v 0.004805008 1.0387214 -1.3811334
v 0.004805008 1.0309159 -1.3847699
v 0.01798299 1.0410266 -1.3860813
v 0.01798299 1.033221 -1.3897178
v 0.023441488 1.0465916 -1.3980266
v 0.023441488 1.0387862 -1.4016631
v 0.017982988 1.0521567 -1.4099717
v 0.017982988 1.0443512 -1.4136082
v 0.004805008 1.0466564 -1.4185562
v 0.004805008 1.0387862 -1.4016631
v 0.017982988 1.0443512 -1.4136082
v -0.008372972 1.0443512 -1.4136082
v -0.01383147 1.0387862 -1.4016631
v -0.008372972 1.033221 -1.3897178
v 0.004805008 1.0309159 -1.3847699
v 0.01798299 1.033221 -1.3897178
v 0.023441488 1.0387862 -1.4016631
v 0.017982988 1.0521567 -1.4099717
v 0.004805008 1.0465916 -1.3980266
v 0.004805008 1.0544618 -1.4149197
v -0.008372972 1.0521567 -1.4099717
v -0.01383147 1.0465916 -1.3980266
v -0.008372972 1.0410266 -1.3860813
v 0.004805008 1.0387214 -1.3811334
v 0.01798299 1.0410266 -1.3860813
v 0.023441488 1.0465916 -1.3980266
v 0.01262797 1.0548874 -1.3796688
v 0.0034375133 1.0465616 -1.3870972
v 0.0033717984 1.0503378 -1.3822342
v 0.017322157 1.0534708 -1.383186
v -0.010256674 1.0542945 -1.3841983
v -0.005759797 1.0554365 -1.3803439
v 0.012752526 1.064536 -1.3752142
v 0.017509025 1.0679421 -1.3765037
v 0.0036209216 1.0696347 -1.3733238
v 0.0038148488 1.0757827 -1.3736049
v -0.0056351875 1.0650852 -1.3758891
v -0.010069847 1.0687656 -1.3775166
v -0.005759797 1.0554365 -1.3803439
v -0.010256674 1.0542945 -1.3841983
v 0.004419843 1.055534 -1.406556
v -0.007549708 1.0679723 -1.4110423
v -0.0082634315 1.0633556 -1.4033769
v 0.004831077 1.0606384 -1.4136045
v 0.017307146 1.062592 -1.4024383
v 0.017380657 1.0668069 -1.4101269
v -0.0037064818 1.0720896 -1.4161341
v 0.005185158 1.0671247 -1.4179744
v 0.0034375133 1.0465616 -1.3870972
v -0.010256674 1.0542945 -1.3841983
v 0.017322157 1.0534708 -1.383186
v 0.017509025 1.0679421 -1.3765037
v 0.017480427 1.0760094 -1.3962431
v 0.0038148488 1.0757827 -1.3736049
v 0.0047971727 1.084755 -1.3930637
v 0.01754963 1.0798882 -1.4040868
v 0.0051688943 1.0868014 -1.4015243
v -0.0080901 1.0767732 -1.3971819
v -0.0073808027 1.0799477 -1.4050018
v 0.014319413 1.0809498 -1.4111388
v 0.0054277997 1.0859145 -1.4092987
v -0.0035851665 1.0814846 -1.4117963
v -0.010069847 1.0687656 -1.3775166
v -0.010256674 1.0542945 -1.3841983
v -0.0082634315 1.0633556 -1.4033769
v 0.014198182 1.0715549 -1.4154772
v 0.005185158 1.0671247 -1.4179744
v 0.005185158 1.0671247 -1.4179744
v -0.0037064818 1.0720896 -1.4161341
v 0.017480427 1.0760094 -1.3962431
v -0.0082634315 1.0633556 -1.4033769
v 0.017307146 1.062592 -1.4024383
v -0.0080901 1.0767732 -1.3971819
v -0.0073808027 1.0799477 -1.4050018
v 0.014319413 1.0809498 -1.4111388
v -0.0035851665 1.0814846 -1.4117963
v 0.01754963 1.0798882 -1.4040868
v -0.0080901 1.0767732 -1.3971819
v 0.017480427 1.0760094 -1.3962431
v 0.017380657 1.0668069 -1.4101269
v -0.0037064818 1.0720896 -1.4161341
v 0.014198182 1.0715549 -1.4154772
v -0.007549708 1.0679723 -1.4110423
v 0.017307146 1.062592 -1.4024383
v -0.0082634315 1.0633556 -1.4033769
v 0.009529698 1.0429871 -1.3640832
v 4.560852E-4 1.0515395 -1.3826447
v -4.598102E-4 1.0431739 -1.3645015
v 0.010445593 1.0513527 -1.3822266
v -0.0045433883 1.0594975 -1.3792278
v -0.0054592835 1.051132 -1.3610846
v 4.466459E-4 1.0672687 -1.3753927
v -4.6924976E-4 1.0589031 -1.3572494
v 0.010436153 1.0670819 -1.3749745
v 0.009520258 1.0587163 -1.3568313
v 0.015435625 1.0591239 -1.3783914
v 0.014519731 1.0507584 -1.3602482
v 0.010445593 1.0513527 -1.3822266
v 0.009529698 1.0429871 -1.3640832
v 0.00785806 1.0454035 -1.4039596
v 0.0035762682 1.0570321 -1.4004986
v 0.0035762682 1.0461525 -1.4055673
v 0.00785806 1.0562831 -1.398891
v -7.0552406E-4 1.0562831 -1.398891
v -7.0552406E-4 1.0454035 -1.4039596
v -0.0024791004 1.0544748 -1.3950098
v -0.0024791004 1.0435953 -1.4000784
v -7.0552406E-4 1.0526667 -1.3911285
v -7.0552406E-4 1.041787 -1.3961972
v 0.0035762682 1.0519177 -1.3895209
v 0.0035762682 1.0410382 -1.3945895
v 0.00785806 1.0526667 -1.3911285
v 0.00785806 1.041787 -1.3961972
v 0.0096316375 1.0544748 -1.3950098
v 0.0096316375 1.0435953 -1.4000784
v 0.00785806 1.0562831 -1.398891
v 0.00785806 1.0454035 -1.4039596
vn 0.5500686 -0.5756242 0.60504645
vn 0.7947064 -0.5827657 0.16978166
vn 0.79469806 -0.5827774 0.16978061
vn 0.5454284 -0.5746725 0.61013067
vn 0.15641384 -0.41937512 0.8942366
vn 0.16827908 -0.4249385 0.88944334
vn 0.9097173 -0.3335103 0.2473565
vn 0.6315468 -0.35745093 0.6880243
vn 0.9049782 0.25638074 0.339534
vn 0.62410724 0.1384809 0.76896894
vn 0.76732564 0.5438405 0.3397777
vn 0.5214706 0.39365172 0.7570381
vn 0.14149755 0.14222232 0.979669
vn 0.1299771 0.13499707 0.98228395
vn 0.2482535 -0.1565837 0.9559559
vn 0.2482535 -0.1565837 0.9559559
vn 0.76732785 0.5438339 0.3397832
vn 0.5260121 0.39623243 0.7525365
vn 0.15299088 0.14942028 0.9768661
vn 0.14451815 -0.41373014 0.89885587
vn -0.109391995 0.85793895 0.50197023
vn 0.0081614675 0.98715144 0.15957893
vn 0.0081614675 0.98715144 0.15957893
vn -0.109391995 0.85793895 0.50197023
vn -0.21078318 0.601969 0.7701972
vn -0.21078318 0.601969 0.7701972
vn -0.85621005 -0.49015927 0.16324286
vn -0.80354303 -0.4867027 -0.3426939
vn -0.80354756 -0.48669603 -0.3426926
vn -0.8571237 -0.49076265 0.15649599
vn -0.69464236 -0.37111226 0.61623675
vn -0.6872951 -0.3667724 0.62697953
vn -0.94704586 -0.26271233 0.18462491
vn -0.6798184 -0.3623636 0.63760453
vn -0.9143151 -0.22388402 -0.3374965
vn -0.9340822 0.23135975 0.2719615
vn -0.899835 0.36483476 -0.23914975
vn -0.81688017 0.47300103 0.33011633
vn -0.75758153 0.635468 -0.14916635
vn -0.6571502 0.17947331 0.73208123
vn -0.66407186 0.1876987 0.7237249
vn -0.7673081 -0.09614911 0.6340296
vn -0.7673081 -0.09614911 0.6340296
vn -0.81765467 0.4758702 0.32401907
vn -0.6708704 0.19588932 0.7152344
vn -0.7575851 0.63546336 -0.14916801
vn -0.12461274 -0.9704265 0.20674641
vn -0.008155482 -0.987149 -0.15959421
vn -0.008155482 -0.987149 -0.15959421
vn -0.12461274 -0.9704265 0.20674641
vn -0.22262141 -0.81003493 0.54247874
vn -0.22262141 -0.81003493 0.54247874
vn 0.3100389 0.1492255 -0.93893963
vn 0.3100375 0.14921987 -0.938941
vn 0.3100389 0.1492255 -0.93893963
vn 0.3100375 0.14921987 -0.938941
vn 0.31003696 0.14921711 -0.9389416
vn 0.31003696 0.14921711 -0.9389416
vn 0.31003517 0.14920929 -0.93894345
vn 0.31003517 0.14920929 -0.93894345
vn 0.31003648 0.1492196 -0.93894136
vn 0.31003648 0.1492196 -0.93894136
vn 0.31004032 0.14924063 -0.9389367
vn 0.31004032 0.14924063 -0.9389367
vn -0.31003687 -0.14921233 0.93894243
vn -0.31003743 -0.14922014 0.938941
vn -0.31003687 -0.14921233 0.93894243
vn -0.31003743 -0.14922014 0.938941
vn -0.31003943 -0.14922339 0.9389398
vn -0.31003943 -0.14922339 0.9389398
vn -0.3100409 -0.14921384 0.9389408
vn -0.3100409 -0.14921384 0.9389408
vn -0.31004193 -0.14921442 0.9389404
vn -0.31004193 -0.14921442 0.9389404
vn -0.31004298 -0.14921993 0.93893915
vn -0.31004298 -0.14921993 0.93893915
vn 0.3100476 0.15022506 -0.9387774
vn 0.3100476 0.15022506 -0.9387774
vn 0.3100476 0.15022506 -0.9387774
vn 0.3100476 0.15022506 -0.9387774
vn 0.31066674 0.14959086 -0.9386739
vn 0.31066674 0.14959086 -0.9386739
vn 0.30937457 0.14970306 -0.93908274
vn 0.30937457 0.14970306 -0.93908274
vn 0.30913413 0.14927393 -0.9392302
vn 0.30913413 0.14927393 -0.9392302
vn 0.30940062 0.14878592 -0.9392199
vn 0.30940062 0.14878592 -0.9392199
vn 0.30939 0.14877565 -0.939225
vn 0.30939 0.14877565 -0.939225
vn 0.31001714 0.14818785 -0.9391112
vn 0.31001714 0.14818785 -0.9391112
vn 0.31001714 0.14818785 -0.9391112
vn 0.31001714 0.14818785 -0.9391112
vn 0.31064427 0.14872321 -0.9388192
vn 0.31064427 0.14872321 -0.9388192
vn 0.31061527 0.14872466 -0.9388285
vn 0.31061527 0.14872466 -0.9388285
vn 0.31097534 0.14916427 -0.93863964
vn 0.31097534 0.14916427 -0.93863964
vn 0.008157404 0.98715144 0.15957902
vn 0.008157404 0.98715144 0.15957902
vn 0.008157404 0.98715144 0.15957902
vn 0.008157404 0.98715144 0.15957902
vn 0.81220186 0.47175685 0.34318167
vn 0.8122022 0.4717597 0.34317678
vn 0.8122022 0.4717597 0.34317678
vn 0.81220186 0.47175685 0.34318167
vn 0.8122026 0.47176263 0.34317192
vn 0.8122026 0.47176263 0.34317192
vn -0.80360013 0.5688773 -0.17494422
vn -0.80360603 0.56886935 -0.17494279
vn -0.80360013 0.5688773 -0.17494422
vn -0.80360603 0.56886935 -0.17494279
vn -0.8035943 0.56888515 -0.17494564
vn -0.8035943 0.56888515 -0.17494564
vn 0.7679035 -0.6215834 0.15478458
vn 0.76790196 -0.6215857 0.1547828
vn 0.76790196 -0.6215857 0.1547828
vn 0.7679035 -0.6215834 0.15478458
vn 0.7679004 -0.6215881 0.15478103
vn 0.7679004 -0.6215881 0.15478103
vn -0.008165242 -0.9871534 -0.15956657
vn -0.008165242 -0.9871534 -0.15956657
vn -0.008165242 -0.9871534 -0.15956657
vn -0.008165242 -0.9871534 -0.15956657
vn -0.777415 -0.52870417 -0.3407314
vn -0.7774072 -0.52871424 -0.3407332
vn -0.777415 -0.52870417 -0.3407314
vn -0.7774072 -0.52871424 -0.3407332
vn -0.77742267 -0.5286941 -0.34072953
vn -0.77742267 -0.5286941 -0.34072953
vn 0.9506934 -0.05713199 0.30482432
vn 0.9506934 -0.05713199 0.30482432
vn 0.9506934 -0.05713199 0.30482432
vn 0.9506934 -0.05713199 0.30482432
vn -0.9506846 0.05713658 -0.30485117
vn -0.9506846 0.05713658 -0.30485117
vn -0.9506846 0.05713658 -0.30485117
vn -0.9506846 0.05713658 -0.30485117
vn 0.013874702 -0.9896935 -0.14252797
vn -0.66877615 -0.6808515 -0.29862964
vn 0.013874702 -0.9896935 -0.14252797
vn -0.66877615 -0.6808515 -0.29862964
vn -0.94405633 -0.13787743 -0.29957893
vn -0.94405633 -0.13787743 -0.29957893
vn 0.6884159 -0.7187918 0.09706662
vn 0.6884159 -0.7187918 0.09706662
vn 0.9382602 -0.2485457 0.24060933
vn 0.9382602 -0.2485457 0.24060933
vn -0.9313471 0.27893808 -0.23406449
vn -0.9313471 0.27893808 -0.23406449
vn -0.94405633 -0.13787743 -0.29957893
vn -0.6433587 0.7616425 -0.07739646
vn -0.9313471 0.27893808 -0.23406449
vn -0.6433587 0.7616425 -0.07739646
vn 0.04869837 0.9858411 0.16045499
vn 0.04869837 0.9858411 0.16045499
vn 0.71223027 0.63255304 0.30431038
vn 0.71223027 0.63255304 0.30431038
vn 0.9493099 0.10507063 0.29626146
vn 0.9493099 0.10507063 0.29626146
vn 0.9382602 -0.2485457 0.24060933
vn 0.9493099 0.10507063 0.29626146
vn -0.2807435 -0.14066154 0.9494195
vn -0.28073615 -0.14066511 0.94942117
vn -0.28080592 -0.14447139 0.9488288
vn -0.28082773 -0.14629537 0.9485428
vn -0.28074396 -0.14066237 0.94941926
vn -0.2808434 -0.14645572 0.9485134
vn -0.28080887 -0.1444724 0.94882774
vn -0.2808321 -0.1462926 0.94854194
vn -0.28073895 -0.14066693 0.9494201
vn -0.28074297 -0.14067031 0.94941837
vn -0.28075016 -0.14066364 0.94941723
vn -0.28084853 -0.1464528 0.9485123
vn 0.7625383 -0.22864833 0.6051903
vn 0.3382554 -0.94030976 0.037427127
vn 0.21287934 -0.90378535 0.3712874
vn 0.9251368 -0.19305515 0.32688162
vn -0.60919553 -0.76053274 -0.22465694
vn -0.64545447 -0.73704374 0.20038752
vn -0.96737564 0.16712351 -0.19040526
vn -0.9613611 0.077735215 0.2640871
vn -0.36706963 0.92366296 0.110030144
vn -0.4351821 0.74844617 0.50044465
vn 0.58292794 0.7266582 0.363542
vn 0.43277538 0.6041124 0.669144
vn 0.9251368 -0.19305515 0.32688162
vn 0.7625383 -0.22864833 0.6051903
vn -0.45937836 -0.6430289 -0.6127686
vn 0.42143255 -0.85269535 -0.30871546
vn 0.99062854 -0.13624237 0.0096466895
vn 0.99062854 -0.13624237 0.0096466895
vn 0.6570789 0.75379455 0.00641192
vn -0.22678992 0.92367876 -0.30884287
vn -0.7643016 0.22080567 -0.6058779
vn -0.6153684 -0.741842 -0.26644352
vn -0.9580702 0.1496137 -0.24437103
vn -0.9580702 0.1496137 -0.24437103
vn -0.6153684 -0.741842 -0.26644352
vn 0.34618315 -0.93812364 -0.0090155015
vn 0.34618315 -0.93812364 -0.0090155015
vn 0.94816977 -0.16997716 0.26848057
vn 0.94816977 -0.16997716 0.26848057
vn -0.3566033 0.93327194 0.042866636
vn -0.3566033 0.93327194 0.042866636
vn 0.6196121 0.7271673 0.29548007
vn 0.6196121 0.7271673 0.29548007
vn 0.94816977 -0.16997716 0.26848057
vn 0.94816977 -0.16997716 0.26848057
vn 0.70710754 0.29861024 -0.6409609
vn 2.8870766E-6 0.42229825 -0.90645695
vn 2.8870766E-6 0.42229825 -0.90645695
vn 0.70710754 0.29861024 -0.6409609
vn -0.7071055 0.29861102 -0.64096266
vn -0.7071055 0.29861102 -0.64096266
vn -1.0 -1.0483795E-7 -1.4838602E-6
vn -1.0 -1.0483795E-7 -1.4838602E-6
vn -0.707108 -0.29861325 0.640959
vn -0.707108 -0.29861325 0.640959
vn -2.8870747E-6 -0.42230347 0.90645456
vn -2.8870747E-6 -0.42230347 0.90645456
vn 0.70710415 -0.29861423 0.6409627
vn 0.70710415 -0.29861423 0.6409627
vn 1.0 -4.999969E-7 1.0645094E-6
vn 1.0 -4.999969E-7 1.0645094E-6
vn 0.70710754 0.29861024 -0.6409609
vn 0.70710754 0.29861024 -0.6409609
vn -0.0 -0.9064596 -0.42229247
vn -0.0 -0.9064556 -0.4223012
vn -0.0 -0.9064567 -0.42229867
vn -0.0 -0.9064567 -0.42229867
vn -0.0 -0.90645146 -0.42231
vn -0.0 -0.9064544 -0.4223038
vn -0.0 -0.9064596 -0.42229247
vn -0.0 -0.9064544 -0.42230374
vn -0.0 -0.90645146 -0.42230994
vn 3.1065372E-6 0.906452 0.42230892
vn 7.766343E-7 0.9064544 0.42230377
vn 3.1065372E-6 0.90645486 0.4223027
vn -0.0 0.906452 0.42230892
vn -0.0 0.90645385 0.4223049
vn -0.0 0.9064567 0.42229867
vn -0.0 0.9064549 0.42230266
vn -0.0 0.90645677 0.42229864
vn -0.0 0.90645385 0.4223049
vn 0.36025965 -0.59203047 0.7209112
vn -0.046057846 -0.7904469 0.6107966
vn -0.046057846 -0.7904469 0.6107966
vn 0.36025965 -0.59203047 0.7209112
vn -0.44691905 -0.5678958 0.69120014
vn -0.44691905 -0.5678958 0.69120014
vn 0.36738572 -0.17113812 0.9141879
vn 0.36738572 -0.17113812 0.9141879
vn -0.03514503 0.051526282 0.9980531
vn -0.03514503 0.051526282 0.9980531
vn -0.44310364 -0.14684594 0.8843616
vn -0.44310364 -0.14684594 0.8843616
vn -0.44691905 -0.5678958 0.69120014
vn -0.44691905 -0.5678958 0.69120014
vn -0.010152389 -0.8684583 -0.4956583
vn -0.4920975 -0.5996278 -0.6310994
vn -0.77239186 -0.5213516 -0.36277175
vn -5.817418E-4 -0.7088107 -0.70539856
vn 0.7618596 -0.57287335 -0.3023013
vn 0.49233228 -0.6339337 -0.59643686
vn -0.23171766 -0.044535078 -0.9717631
vn 0.024193393 -0.240425 -0.9703661
vn -0.011088189 -0.89954084 -0.43669584
vn -0.87528336 -0.401293 -0.26989448
vn 0.8670956 -0.4538822 -0.20527121
vn 0.88461834 0.4250508 0.1917868
vn 0.7873279 0.5691901 0.23693332
vn 0.013171286 0.922892 0.38483363
vn 0.010745822 0.9371528 0.34875375
vn 0.52393574 0.8447757 0.1088369
vn 0.012608568 0.9944172 0.104763605
vn -0.7707387 0.61502624 0.16644673
vn -0.49884668 0.8637531 0.07129206
vn 0.30273438 0.7568668 -0.5792275
vn 0.030547287 0.89706 -0.44085178
vn -0.23539354 0.77525395 -0.5861494
vn -0.86943746 0.47756147 0.12654477
vn -0.87528336 -0.401293 -0.26989448
vn -0.77239186 -0.5213516 -0.36277175
vn 0.29221457 -0.056321647 -0.95469284
vn 0.024193393 -0.240425 -0.9703661
vn 0.024193393 -0.240425 -0.9703661
vn -0.23171766 -0.044535078 -0.9717631
vn 0.04578826 0.41826788 -0.90716887
vn 0.04578826 0.41826788 -0.90716887
vn 0.04578826 0.41826788 -0.90716887
vn 0.04578826 0.41826788 -0.90716887
vn -0.0033459836 -0.95401233 -0.29974866
vn -0.0068528973 -0.9827754 -0.18467711
vn -0.0068528973 -0.9827754 -0.18467711
vn -0.0033459836 -0.95401233 -0.29974866
vn 2.0804556E-4 -0.9118158 -0.41059938
vn 2.0804556E-4 -0.9118158 -0.41059938
vn 0.010670516 0.81762797 0.575648
vn 0.006480698 0.7621047 0.64742136
vn 0.006480698 0.7621047 0.64742136
vn 0.010670516 0.81762797 0.575648
vn 0.014772282 0.8664043 0.49912462
vn 0.014772282 0.8664043 0.49912462
vn 0.49994564 -0.7958017 -0.3416929
vn -0.4990036 -0.7771212 -0.38350755
vn -0.4990036 -0.7771212 -0.38350755
vn 0.49994564 -0.7958017 -0.3416929
vn -0.9989507 0.01867866 -0.041815814
vn -0.9989507 0.01867866 -0.041815814
vn -0.49994725 0.79580104 0.34169206
vn -0.49994725 0.79580104 0.34169206
vn 0.49900296 0.7771219 0.38350695
vn 0.49900296 0.7771219 0.38350695
vn 0.9989508 -0.018679371 0.041814543
vn 0.9989508 -0.018679371 0.041814543
vn 0.49994564 -0.7958017 -0.3416929
vn 0.49994564 -0.7958017 -0.3416929
vn 0.7071057 0.29861802 -0.6409593
vn -0.0 0.4223098 -0.9064516
vn -0.0 0.4223098 -0.9064516
vn 0.7071057 0.29861802 -0.6409593
vn -0.7071047 0.29861772 -0.6409606
vn -0.7071047 0.29861772 -0.6409606
vn -1.0 -4.532222E-6 7.870905E-6
vn -1.0 -4.532222E-6 7.870905E-6
vn -0.70710725 -0.29861736 0.64095795
vn -0.70710725 -0.29861736 0.64095795
vn -0.0 -0.4223098 0.9064516
vn -0.0 -0.4223098 0.9064516
vn 0.7071062 -0.29861712 0.64095926
vn 0.7071062 -0.29861712 0.64095926
vn 1.0 -4.3225464E-6 1.1128944E-5
vn 1.0 -4.3225464E-6 1.1128944E-5
vn 0.7071057 0.29861802 -0.6409593
vn 0.7071057 0.29861802 -0.6409593
vt 0.42650503 0.13919497
vt 0.4311542 0.13936037
vt 0.42747325 0.14343917
vt 0.42867047 0.13652533
vt 0.42525125 0.13398767
vt 0.42367458 0.13638592
vt 0.43683457 0.13306594
vt 0.43201214 0.13240558
vt 0.43670005 0.069435835
vt 0.43191296 0.07012004
vt 0.43193907 0.06451881
vt 0.42910314 0.06702095
vt 0.42556 0.06951535
vt 0.42762333 0.07228023
vt 0.42762333 0.07228023
vt 0.42768425 0.13028663
vt 0.4272089 0.05963373
vt 0.4263115 0.063941896
vt 0.42350996 0.06676829
vt 0.42768425 0.13028663
vt 0.4263115 0.063941896
vt 0.3936442 0.059670627
vt 0.4272089 0.05963373
vt 0.39457804 0.063967586
vt 0.3974405 0.066783726
vt 0.42350996 0.06676829
vt 0.3922456 0.13654292
vt 0.3934902 0.14347482
vt 0.38977945 0.13938272
vt 0.39442533 0.13922024
vt 0.39729232 0.13640094
vt 0.3957066 0.13399881
vt 0.38888186 0.1324113
vt 0.39325958 0.13029182
vt 0.384053 0.13306779
vt 0.38901734 0.07012528
vt 0.38423395 0.0694384
vt 0.39180672 0.06703645
vt 0.38895434 0.06453866
vt 0.39334965 0.07228899
vt 0.39540172 0.06952739
vt 0.39325958 0.13029182
vt 0.39334965 0.07228899
vt 0.39457804 0.063967586
vt 0.3974405 0.066783726
vt 0.3936442 0.059670627
vt 0.39442533 0.13922024
vt 0.42747325 0.14343917
vt 0.3934902 0.14347482
vt 0.42650503 0.13919497
vt 0.42367458 0.13638592
vt 0.39729232 0.13640094
vt 0.44778037 0.1378752
vt 0.47910404 0.13543046
vt 0.47740477 0.13787007
vt 0.44608307 0.13543975
vt 0.48172623 0.13166565
vt 0.44346368 0.13168132
vt 0.48166448 0.0728811
vt 0.44350255 0.072895765
vt 0.47944325 0.07008028
vt 0.44572866 0.070088744
vt 0.47723633 0.06729758
vt 0.4479404 0.06729984
vt 0.39729232 0.13640094
vt 0.42525125 0.13398767
vt 0.42367458 0.13638592
vt 0.3957066 0.13399881
vt 0.42768425 0.13028663
vt 0.39325958 0.13029182
vt 0.42762333 0.07228023
vt 0.39334965 0.07228899
vt 0.42556 0.06951535
vt 0.39540172 0.06952739
vt 0.42350996 0.06676829
vt 0.3974405 0.066783726
vt 0.44555908 0.14320719
vt 0.47833455 0.14149559
vt 0.47964507 0.14320874
vt 0.44684583 0.14149594
vt 0.48130143 0.13784921
vt 0.48278415 0.13941133
vt 0.44242603 0.13941956
vt 0.44388348 0.13785791
vt 0.43759108 0.13357449
vt 0.43931204 0.13224363
vt 0.43766057 0.07095897
vt 0.4393835 0.07231426
vt 0.44172406 0.06642687
vt 0.44322348 0.06795794
vt 0.44576132 0.0619241
vt 0.44703865 0.063629866
vt 0.4794523 0.061934352
vt 0.47814566 0.06363523
vt 0.48195052 0.06795025
vt 0.48347664 0.06641978
vt 0.48752713 0.070934415
vt 0.48578018 0.0722934
vt 0.48762846 0.13355112
vt 0.4858799 0.1322223
vt 0.44684583 0.14149594
vt 0.47740477 0.13787007
vt 0.47833455 0.14149559
vt 0.44778037 0.1378752
vt 0.47833455 0.14149559
vt 0.47910404 0.13543046
vt 0.48130143 0.13784921
vt 0.47740477 0.13787007
vt 0.4858799 0.1322223
vt 0.48172623 0.13166565
vt 0.44608307 0.13543975
vt 0.44684583 0.14149594
vt 0.44388348 0.13785791
vt 0.44778037 0.1378752
vt 0.43931204 0.13224363
vt 0.44346368 0.13168132
vt 0.48578018 0.0722934
vt 0.47944325 0.07008028
vt 0.48195052 0.06795025
vt 0.48166448 0.0728811
vt 0.47814566 0.06363523
vt 0.47723633 0.06729758
vt 0.47814566 0.06363523
vt 0.4479404 0.06729984
vt 0.44703865 0.063629866
vt 0.47723633 0.06729758
vt 0.44572866 0.070088744
vt 0.4393835 0.07231426
vt 0.44322348 0.06795794
vt 0.44350255 0.072895765
vt 0.44703865 0.063629866
vt 0.4479404 0.06729984
vt 0.4858799 0.1322223
vt 0.48166448 0.0728811
vt 0.48578018 0.0722934
vt 0.48172623 0.13166565
vt 0.4393835 0.07231426
vt 0.44346368 0.13168132
vt 0.43931204 0.13224363
vt 0.44350255 0.072895765
vt 0.49544573 0.0064029694
vt 0.5024199 0.018443108
vt 0.49585235 0.016135454
vt 0.5079781 0.010926783
vt 0.5062657 0.024841726
vt 0.51522434 0.022663414
vt 0.4834568 0.012098968
vt 0.48950267 0.019078553
vt 0.4770077 0.023746252
vt 0.48611027 0.02587092
vt 0.5061429 0.05130267
vt 0.51513636 0.05340761
vt 0.5062657 0.024841726
vt 0.5082526 0.065071106
vt 0.5061429 0.05130267
vt 0.5024915 0.05779016
vt 0.49594688 0.07004756
vt 0.49601358 0.060311437
vt 0.48365986 0.06474209
vt 0.48957044 0.057582855
vt 0.47697222 0.052803993
vt 0.4860329 0.050914764
vt 0.48611027 0.02587092
vt 0.4860329 0.050914764
vt 0.49585235 0.016135454
vt 0.5024199 0.018443108
vt 0.49624193 0.025767684
vt 0.5062657 0.024841726
vt 0.48950267 0.019078553
vt 0.48611027 0.02587092
vt 0.49609685 0.05068612
vt 0.5061429 0.05130267
vt 0.5024915 0.05779016
vt 0.49601358 0.060311437
vt 0.48957044 0.057582855
vt 0.4860329 0.050914764
vt 0.39460617 0.059108853
vt 0.39847398 0.056605697
vt 0.39847398 0.059108853
vt 0.39460617 0.056605697
vt 0.40234172 0.056605697
vt 0.40234172 0.059108853
vt 0.40620947 0.056605697
vt 0.40620947 0.059108853
vt 0.41007727 0.056605697
vt 0.41007727 0.059108853
vt 0.41394502 0.056605697
vt 0.41394502 0.059108853
vt 0.41781282 0.056605697
vt 0.41781282 0.059108853
vt 0.40234172 0.051025152
vt 0.39847398 0.051025152
vt 0.39460623 0.051025152
vt 0.41781282 0.051025152
vt 0.41394508 0.051025152
vt 0.41007727 0.051025152
vt 0.40620953 0.051025152
vt 0.40234172 0.051025152
vt 0.40620953 0.03766799
vt 0.40620953 0.051025152
vt 0.40234178 0.03766799
vt 0.39847398 0.051025152
vt 0.39847398 0.03766799
vt 0.39460623 0.051025152
vt 0.39460623 0.03766799
vt 0.41007727 0.03766799
vt 0.41007727 0.051025152
vt 0.41394508 0.03766799
vt 0.41394508 0.051025152
vt 0.41781282 0.03766805
vt 0.41781282 0.051025152
vt 0.3910585 0.061636448
vt 0.384053 0.057031333
vt 0.3910585 0.057031333
vt 0.384053 0.061636448
vt 0.384053 0.05242622
vt 0.3910585 0.05242622
vt 0.384053 0.047821164
vt 0.3910585 0.047821164
vt 0.384053 0.04321605
vt 0.3910585 0.04321605
vt 0.384053 0.038610995
vt 0.3910585 0.038610995
vt 0.384053 0.03400588
vt 0.3910585 0.03400588
vt 0.384053 0.029400826
vt 0.3910585 0.029400826
vt 0.384053 0.024795711
vt 0.3910585 0.024795711
vt 0.40158343 0.03682685
vt 0.40158343 0.027657747
vt 0.40833712 0.034029365
vt 0.39482975 0.034029365
vt 0.39203227 0.027275681
vt 0.39482975 0.020521998
vt 0.40158337 0.017724514
vt 0.40833706 0.020521998
vt 0.41113454 0.027275622
vt 0.4732005 0.02252853
vt 0.46644682 0.029664278
vt 0.46644688 0.019731045
vt 0.45969313 0.02252853
vt 0.45689565 0.029282212
vt 0.45969313 0.036035895
vt 0.46644682 0.03883338
vt 0.4732005 0.036035895
vt 0.47599798 0.029282272
vt 0.44652253 0.034635603
vt 0.44679195 0.026872396
vt 0.4482466 0.028069496
vt 0.444717 0.033854663
vt 0.44926584 0.018570423
vt 0.4504826 0.019100308
vt 0.44559962 0.040504098
vt 0.4437378 0.040322244
vt 0.44522947 0.04655826
vt 0.44359124 0.04698378
vt 0.4445439 0.053881407
vt 0.44317156 0.054522276
vt 0.44271314 0.06388587
vt 0.44149637 0.06335604
vt 0.43515337 0.023602724
vt 0.4326247 0.014502406
vt 0.43755668 0.015874922
vt 0.43043244 0.022377491
vt 0.43310535 0.031393886
vt 0.42829883 0.030591965
vt 0.4283849 0.012843609
vt 0.4269641 0.020787
vt 0.44679195 0.026872396
vt 0.44926584 0.018570423
vt 0.444717 0.033854663
vt 0.4437378 0.040322244
vt 0.43194598 0.038839698
vt 0.44359124 0.04698378
vt 0.43155903 0.045982778
vt 0.42705005 0.038533986
vt 0.42674392 0.045613468
vt 0.43122172 0.053154707
vt 0.42647892 0.052612364
vt 0.42343235 0.038720965
vt 0.4247619 0.045238793
vt 0.42240483 0.051743984
vt 0.44317156 0.054522276
vt 0.44149637 0.06335604
vt 0.42978722 0.06066048
vt 0.42484778 0.030027628
vt 0.4269641 0.020787
vt 0.4269641 0.020787
vt 0.42395586 0.022731364
vt 0.46217322 0.0026956797
vt 0.45667046 0.020196915
vt 0.455387 0.0029959679
vt 0.46325094 0.020237923
vt 0.46562463 0.018773735
vt 0.46909088 0.0060595274
vt 0.46965843 0.016038656
vt 0.46487188 0.003676176
vt 0.46325094 0.020237923
vt 0.46217322 0.0026956797
vt 0.45313972 0.0035165548
vt 0.45135522 0.020226836
vt 0.45071822 0.006035924
vt 0.4549412 0.020916939
vt 0.455387 0.0029959679
vt 0.45667046 0.020196915
vt 0.45123297 0.06127894
vt 0.45364588 0.039508224
vt 0.45364588 0.06127894
vt 0.45123297 0.039508224
vt 0.45605886 0.039508224
vt 0.45605886 0.06127894
vt 0.45847178 0.039508224
vt 0.45847178 0.06127894
vt 0.4608847 0.039508224
vt 0.4608847 0.06127894
vt 0.4632976 0.039508224
vt 0.4632976 0.06127894
vt 0.46571052 0.039508224
vt 0.46571052 0.06127894
vt 0.40286586 0.013950348
vt 0.40551165 0.0023152232
vt 0.40551165 0.013950348
vt 0.40286586 0.0023152232
vt 0.40815744 0.0023152232
vt 0.40815744 0.013950348
vt 0.41080317 0.0023152232
vt 0.41080317 0.013950348
vt 0.413449 0.0023152232
vt 0.413449 0.013950348
vt 0.41609475 0.0023152232
vt 0.41609475 0.013950348
vt 0.41874054 0.0023152232
vt 0.41874054 0.013950348
vt 0.4213863 0.0023152232
vt 0.4213863 0.013950348
vt 0.42403206 0.0023152232
vt 0.42403206 0.013950348

g Slingshot_PhoneHolder
s 1
usemtl Slingshot_PhoneHolder
f 3/3/3 2/2/2 1/1/1 
f 2/2/2 4/4/4 1/1/1 
f 4/4/4 5/5/5 1/1/1 
f 5/5/5 6/6/6 1/1/1 
f 2/2/2 7/7/7 4/4/4 
f 7/7/7 8/8/8 4/4/4 
f 4/4/4 8/8/8 5/5/5 
f 7/7/7 9/9/9 8/8/8 
f 9/9/9 10/10/10 8/8/8 
f 9/9/9 11/11/11 10/10/10 
f 11/11/11 12/12/12 10/10/10 
f 12/12/12 13/13/13 10/10/10 
f 13/13/13 14/14/14 10/10/10 
f 10/10/10 15/15/15 8/8/8 
f 15/15/15 16/16/16 8/8/8 
f 11/11/11 17/17/17 12/12/12 
f 17/17/17 18/18/18 12/12/12 
f 12/12/12 18/18/18 13/13/13 
f 18/18/18 19/19/19 13/13/13 
f 8/8/8 20/20/20 5/5/5 
f 23/23/23 22/22/22 21/21/21 
f 22/22/22 24/24/24 21/21/21 
f 24/24/24 25/25/25 21/21/21 
f 25/25/25 26/26/26 21/21/21 
f 29/29/29 28/28/28 27/27/27 
f 28/28/28 30/30/30 27/27/27 
f 30/30/30 31/31/31 27/27/27 
f 31/31/31 32/32/32 27/27/27 
f 27/27/27 32/32/32 33/33/33 
f 29/29/29 27/27/27 33/33/33 
f 32/32/32 34/34/34 33/33/33 
f 35/35/35 29/29/29 33/33/33 
f 35/35/35 33/33/33 36/36/36 
f 37/37/37 35/35/35 36/36/36 
f 37/37/37 36/36/36 38/38/38 
f 39/39/39 37/37/37 38/38/38 
f 36/36/36 40/40/40 38/38/38 
f 40/40/40 41/41/41 38/38/38 
f 33/33/33 42/42/42 36/36/36 
f 42/42/42 43/43/43 36/36/36 
f 38/38/38 41/41/41 44/44/44 
f 39/39/39 38/38/38 44/44/44 
f 41/41/41 45/45/45 44/44/44 
f 46/46/46 39/39/39 44/44/44 
f 49/49/49 48/48/48 47/47/47 
f 48/48/48 50/50/50 47/47/47 
f 50/50/50 51/51/51 47/47/47 
f 51/51/51 52/52/52 47/47/47 
f 55/55/55 54/54/54 53/53/53 
f 54/54/54 56/56/56 53/53/53 
f 54/54/54 57/57/57 56/56/56 
f 57/57/57 58/58/58 56/56/56 
f 57/57/57 59/59/59 58/58/58 
f 59/59/59 60/60/60 58/58/58 
f 59/59/59 61/61/61 60/60/60 
f 61/61/61 62/62/62 60/60/60 
f 61/61/61 63/63/63 62/62/62 
f 63/63/63 64/64/64 62/62/62 
f 67/67/67 66/66/66 65/65/65 
f 66/66/66 68/68/68 65/65/65 
f 66/66/66 69/69/69 68/68/68 
f 69/69/69 70/70/70 68/68/68 
f 69/69/69 71/71/71 70/70/70 
f 71/71/71 72/72/72 70/70/70 
f 71/71/71 73/73/73 72/72/72 
f 73/73/73 74/74/74 72/72/72 
f 73/73/73 75/75/75 74/74/74 
f 75/75/75 76/76/76 74/74/74 
f 79/79/79 78/78/78 77/77/77 
f 78/78/78 80/80/80 77/77/77 
f 81/81/81 78/78/78 79/79/79 
f 82/82/82 81/81/81 79/79/79 
f 77/77/77 80/80/80 83/83/83 
f 80/80/80 84/84/84 83/83/83 
f 83/83/83 84/84/84 85/85/85 
f 84/84/84 86/86/86 85/85/85 
f 85/85/85 86/86/86 87/87/87 
f 86/86/86 88/88/88 87/87/87 
f 87/87/87 88/88/88 89/89/89 
f 88/88/88 90/90/90 89/89/89 
f 89/89/89 90/90/90 91/91/91 
f 90/90/90 92/92/92 91/91/91 
f 91/91/91 92/92/92 93/93/93 
f 92/92/92 94/94/94 93/93/93 
f 93/93/93 94/94/94 95/95/95 
f 96/96/96 93/93/93 95/95/95 
f 96/96/96 95/95/95 97/97/97 
f 95/95/95 98/98/98 97/97/97 
f 97/97/97 98/98/98 99/99/99 
f 98/98/98 100/100/100 99/99/99 
f 99/99/99 100/100/100 81/81/81 
f 82/82/82 99/99/99 81/81/81 
f 103/103/103 102/102/102 101/101/101 
f 102/102/102 104/104/104 101/101/101 
f 107/107/107 106/106/106 105/105/105 
f 106/106/106 108/108/108 105/105/105 
f 107/107/107 109/109/109 106/106/106 
f 109/109/109 110/110/110 106/106/106 
f 113/113/113 112/112/112 111/111/111 
f 112/112/112 114/114/114 111/111/111 
f 113/113/113 111/111/111 115/115/115 
f 111/111/111 116/116/116 115/115/115 
f 119/119/119 118/118/118 117/117/117 
f 118/118/118 120/120/120 117/117/117 
f 119/119/119 121/121/121 118/118/118 
f 121/121/121 122/122/122 118/118/118 
f 125/125/125 124/124/124 123/123/123 
f 124/124/124 126/126/126 123/123/123 
f 129/129/129 128/128/128 127/127/127 
f 128/128/128 130/130/130 127/127/127 
f 129/129/129 127/127/127 131/131/131 
f 127/127/127 132/132/132 131/131/131 
f 135/135/135 134/134/134 133/133/133 
f 134/134/134 136/136/136 133/133/133 
f 139/139/139 138/138/138 137/137/137 
f 138/138/138 140/140/140 137/137/137 
f 143/143/143 142/142/142 141/141/141 
f 142/142/142 144/144/144 141/141/141 
f 142/142/142 145/145/145 144/144/144 
f 145/145/145 146/146/146 144/144/144 
f 143/143/143 141/141/141 147/147/147 
f 148/148/148 143/143/143 147/147/147 
f 148/148/148 147/147/147 149/149/149 
f 150/150/150 148/148/148 149/149/149 
f 152/152/152 146/146/146 151/151/151 
f 146/146/146 153/153/153 151/151/151 
f 152/152/152 155/155/155 154/154/154 
f 155/155/155 156/156/156 154/154/154 
f 154/154/154 156/156/156 157/157/157 
f 156/156/156 158/158/158 157/157/157 
f 157/157/157 158/158/158 159/159/159 
f 158/158/158 160/160/160 159/159/159 
f 159/159/159 160/160/160 161/161/161 
f 160/160/160 162/162/162 161/161/161 
f 163/163/163 149/149/149 161/161/161 
f 164/164/164 163/163/163 161/161/161 
f 167/167/167 166/166/166 165/165/165 
f 167/167/167 168/168/168 166/166/166 
f 167/167/167 165/165/165 169/169/169 
f 167/167/167 169/169/169 170/170/170 
f 168/168/168 167/167/167 171/171/171 
f 172/172/172 168/168/168 171/171/171 
f 172/172/172 171/171/171 173/173/173 
f 173/173/173 171/171/171 174/174/174 
f 174/174/174 171/171/171 175/175/175 
f 175/175/175 171/171/171 176/176/176 
f 171/171/171 167/167/167 176/176/176 
f 167/167/167 170/170/170 176/176/176 
f 179/179/179 178/178/178 177/177/177 
f 178/178/178 180/180/180 177/177/177 
f 181/181/181 178/178/178 179/179/179 
f 182/182/182 181/181/181 179/179/179 
f 183/183/183 181/181/181 182/182/182 
f 184/184/184 183/183/183 182/182/182 
f 185/185/185 183/183/183 184/184/184 
f 186/186/186 185/185/185 184/184/184 
f 187/187/187 185/185/185 186/186/186 
f 188/188/188 187/187/187 186/186/186 
f 189/189/189 187/187/187 188/188/188 
f 190/190/190 189/189/189 188/188/188 
f 181/181/181 191/191/191 178/178/178 
f 191/191/191 192/192/192 178/178/178 
f 178/178/178 192/192/192 180/180/180 
f 192/192/192 193/193/193 180/180/180 
f 189/189/189 194/194/194 187/187/187 
f 194/194/194 195/195/195 187/187/187 
f 187/187/187 195/195/195 185/185/185 
f 195/195/195 196/196/196 185/185/185 
f 185/185/185 196/196/196 183/183/183 
f 196/196/196 197/197/197 183/183/183 
f 183/183/183 197/197/197 181/181/181 
f 197/197/197 191/191/191 181/181/181 
f 200/200/200 199/199/199 198/198/198 
f 199/199/199 201/201/201 198/198/198 
f 198/198/198 201/201/201 202/202/202 
f 201/201/201 203/203/203 202/202/202 
f 202/202/202 203/203/203 204/204/204 
f 203/203/203 205/205/205 204/204/204 
f 206/206/206 199/199/199 200/200/200 
f 207/207/207 206/206/206 200/200/200 
f 208/208/208 206/206/206 207/207/207 
f 209/209/209 208/208/208 207/207/207 
f 210/210/210 208/208/208 209/209/209 
f 211/211/211 210/210/210 209/209/209 
f 214/214/214 213/213/213 212/212/212 
f 213/213/213 215/215/215 212/212/212 
f 216/216/216 213/213/213 214/214/214 
f 217/217/217 216/216/216 214/214/214 
f 218/218/218 216/216/216 217/217/217 
f 219/219/219 218/218/218 217/217/217 
f 220/220/220 218/218/218 219/219/219 
f 221/221/221 220/220/220 219/219/219 
f 222/222/222 220/220/220 221/221/221 
f 223/223/223 222/222/222 221/221/221 
f 224/224/224 222/222/222 223/223/223 
f 225/225/225 224/224/224 223/223/223 
f 226/226/226 224/224/224 225/225/225 
f 227/227/227 226/226/226 225/225/225 
f 228/228/228 226/226/226 227/227/227 
f 229/229/229 228/228/228 227/227/227 
f 232/232/232 231/231/231 230/230/230 
f 230/230/230 231/231/231 233/233/233 
f 233/233/233 231/231/231 234/234/234 
f 234/234/234 231/231/231 235/235/235 
f 235/235/235 231/231/231 236/236/236 
f 236/236/236 231/231/231 237/237/237 
f 237/237/237 231/231/231 238/238/238 
f 238/238/238 231/231/231 232/232/232 
f 241/241/241 240/240/240 239/239/239 
f 242/242/242 240/240/240 241/241/241 
f 243/243/243 240/240/240 242/242/242 
f 244/244/244 240/240/240 243/243/243 
f 245/245/245 240/240/240 244/244/244 
f 246/246/246 240/240/240 245/245/245 
f 247/247/247 240/240/240 246/246/246 
f 239/239/239 240/240/240 247/247/247 
f 250/250/250 249/249/249 248/248/248 
f 249/249/249 251/251/251 248/248/248 
f 252/252/252 249/249/249 250/250/250 
f 253/253/253 252/252/252 250/250/250 
f 248/248/248 251/251/251 254/254/254 
f 251/251/251 255/255/255 254/254/254 
f 254/254/254 255/255/255 256/256/256 
f 255/255/255 257/257/257 256/256/256 
f 256/256/256 257/257/257 258/258/258 
f 257/257/257 259/259/259 258/258/258 
f 258/258/258 259/259/259 260/260/260 
f 259/259/259 261/261/261 260/260/260 
f 264/264/264 263/263/263 262/262/262 
f 263/263/263 265/265/265 262/262/262 
f 262/262/262 265/265/265 266/266/266 
f 265/265/265 267/267/267 266/266/266 
f 263/263/263 268/268/268 265/265/265 
f 268/268/268 269/269/269 265/265/265 
f 265/265/265 269/269/269 267/267/267 
f 264/264/264 262/262/262 270/270/270 
f 271/271/271 264/264/264 270/270/270 
f 270/270/270 262/262/262 272/272/272 
f 262/262/262 266/266/266 272/272/272 
f 272/272/272 266/266/266 273/273/273 
f 266/266/266 274/274/274 273/273/273 
f 273/273/273 274/274/274 275/275/275 
f 274/274/274 276/276/276 275/275/275 
f 274/274/274 277/277/277 276/276/276 
f 277/277/277 278/278/278 276/276/276 
f 276/276/276 278/278/278 279/279/279 
f 278/278/278 280/280/280 279/279/279 
f 277/277/277 281/281/281 278/278/278 
f 281/281/281 282/282/282 278/278/278 
f 278/278/278 282/282/282 280/280/280 
f 282/282/282 283/283/283 280/280/280 
f 282/282/282 281/281/281 283/283/283 
f 275/275/275 276/276/276 284/284/284 
f 276/276/276 279/279/279 284/284/284 
f 284/284/284 279/279/279 285/285/285 
f 279/279/279 286/286/286 285/285/285 
f 288/288/288 287/287/287 267/267/267 
f 290/290/290 287/287/287 289/289/289 
f 293/293/293 292/292/292 291/291/291 
f 292/292/292 294/294/294 291/291/291 
f 297/297/297 296/296/296 295/295/295 
f 296/296/296 298/298/298 295/295/295 
f 295/295/295 298/298/298 299/299/299 
f 298/298/298 300/300/300 299/299/299 
f 303/303/303 302/302/302 301/301/301 
f 302/302/302 304/304/304 301/301/301 
f 305/305/305 301/301/301 304/304/304 
f 306/306/306 305/305/305 304/304/304 
f 309/309/309 308/308/308 307/307/307 
f 308/308/308 310/310/310 307/307/307 
f 311/311/311 308/308/308 309/309/309 
f 312/312/312 311/311/311 309/309/309 
f 313/313/313 311/311/311 312/312/312 
f 314/314/314 313/313/313 312/312/312 
f 315/315/315 313/313/313 314/314/314 
f 316/316/316 315/315/315 314/314/314 
f 317/317/317 315/315/315 316/316/316 
f 318/318/318 317/317/317 316/316/316 
f 319/319/319 317/317/317 318/318/318 
f 320/320/320 319/319/319 318/318/318 
f 323/323/323 322/322/322 321/321/321 
f 322/322/322 324/324/324 321/321/321 
f 325/325/325 322/322/322 323/323/323 
f 326/326/326 325/325/325 323/323/323 
f 327/327/327 325/325/325 326/326/326 
f 328/328/328 327/327/327 326/326/326 
f 329/329/329 327/327/327 328/328/328 
f 330/330/330 329/329/329 328/328/328 
f 331/331/331 329/329/329 330/330/330 
f 332/332/332 331/331/331 330/330/330 
f 333/333/333 331/331/331 332/332/332 
f 334/334/334 333/333/333 332/332/332 
f 335/335/335 333/333/333 334/334/334 
f 336/336/336 335/335/335 334/334/334 
f 337/337/337 335/335/335 336/336/336 
f 338/338/338 337/337/337 336/336/336 

