<svg xmlns="http://www.w3.org/2000/svg" width="880" height="1280" viewBox="0 0 880 1280"><rect width="880" height="1280" fill="#eee9df"/><rect x="405" y="60" width="455" height="1110" fill="#80a8b2"/><text x="30" y="35" font-family="sans-serif" font-size="25" fill="#23313b">HARBOR EXPRESS · 2,317.16m</text><text x="465" y="80" font-family="sans-serif" font-size="18" fill="#183d47">WATERFRONT</text><polygon points="365,1020 365,1010 365,1000 365,990 365,980 365,970 365,960 365,950 365,940 365,930 365,920 365,910 365,900 365,890 365,880 365,870 365,860 365,850 365,840 365,830 365,820 365,810 365,800 365,790 365,780 365,770 365,760 365,750 365,740 365,730 365,720 365,710 365,700 365,690 365,680 365,670 365,660 365,650 365,640 365,630 365,620 365,610 365,600 365,590 365,580 365,570 365,560 365,550 365,540 365,530 365,520 365,510 365,500 365,490 365,480 365,470 365,460 365,450 365,440 365,430 365,420 365,410 365,400 365,390 365,380 365,370 365,360 365,350 365,340 365,330 365,320 365,310 365,300 365,290 365,280 365,270 365,260 365,250 365,240 365,230 365,220 364.79705810546875,212.15576171875 364.19677734375,204.560546875 363.21197509765625,197.21435546875 361.85546875,190.1171875 360.14007568359375,183.26904296875 358.07861328125,176.669921875 355.68389892578125,170.31982421875 352.96875,164.21875 349.94598388671875,158.36669921875 346.62841796875,152.763671875 343.02886962890625,147.40966796875 339.16015625,142.3046875 335.03509521484375,137.44873046875 330.66650390625,132.841796875 326.06719970703125,128.48388671875 321.25,124.375 316.22772216796875,120.51513671875 311.01318359375,116.904296875 305.61920166015625,113.54248046875 300.05859375,110.4296875 294.34417724609375,107.56591796875 288.48876953125,104.951171875 282.50518798828125,102.58544921875 276.40625,100.46875 270.20477294921875,98.60107421875 263.91357421875,96.982421875 257.54547119140625,95.61279296875 251.11328125,94.4921875 244.62982177734375,93.62060546875 238.10791015625,92.998046875 231.56036376953125,92.62451171875 225,92.5 218.43963623046875,92.62451171875 211.89208984375,92.998046875 205.37017822265625,93.62060546875 198.88671875,94.4921875 192.45452880859375,95.61279296875 186.08642578125,96.982421875 179.79522705078125,98.60107421875 173.59375,100.46875 167.49481201171875,102.58544921875 161.51123046875,104.951171875 155.65582275390625,107.56591796875 149.94140625,110.4296875 144.38079833984375,113.54248046875 138.98681640625,116.904296875 133.77227783203125,120.51513671875 128.75,124.375 123.93280029296875,128.48388671875 119.33349609375,132.841796875 114.96490478515625,137.44873046875 110.83984375,142.3046875 106.97113037109375,147.40966796875 103.37158203125,152.763671875 100.05401611328125,158.36669921875 97.03125,164.21875 94.31610107421875,170.31982421875 91.92138671875,176.669921875 89.85992431640625,183.26904296875 88.14453125,190.1171875 86.78802490234375,197.21435546875 85.80322265625,204.560546875 85.20294189453125,212.15576171875 85,220 85,230 85,240 85,250 85,260 85,270 85,280 85,290 85,300 85,310 85,320 85,330 85,340 85,350 85,360 85,370 85,380 85,390 85,400 85,410 85,420 85,430 85,440 85,450 85,460 85,470 85,480 85,490 85,500 85,510 85,520 85,530 85,540 85,550 85,560 85,570 85,580 85,590 85,600 85,610 85,620 85,630 85,640 85,650 85,660 85,670 85,680 85,690 85,700 85,710 85,720 85.14767661179707,727.3069915980795 85.579561042524,734.2429698216736 86.27893518518522,740.8304398148149 87.22908093278465,747.0919067215364 88.41328017832637,753.049875685871 89.81481481481478,758.7268518518518 91.41696673525371,764.1453403635117 93.20301783264745,769.3278463648834 95.15625,774.296875 97.25994513031549,779.0749314128943 99.49738511659808,783.6845207475994 101.85185185185179,788.1481481481482 104.30662722908102,792.4883187585734 106.84499314128942,796.727537722908 109.45023148148155,800.8883101851852 112.10562414266116,804.9931412894375 114.79445301783264,809.0645361796982 117.5,813.125 120.20554698216736,817.1970378943759 122.89437585733879,821.3031550068587 125.5497685185185,825.4658564814815 128.15500685871058,829.7076474622771 130.69337277091907,834.0510330932784 133.14814814814815,838.5185185185185 135.50261488340192,843.1326088820301 137.7400548696845,847.9158093278463 139.84375,852.890625 141.7969821673525,858.079561042524 143.58303326474623,863.5051225994513 145.1851851851852,869.1898148148148 146.5867198216735,875.1561428326474 147.77091906721535,881.4266117969821 148.7210648148148,888.0237268518518 149.420438957476,894.9699931412895 149.85232338820302,902.2879158093278 150,910 150.2032274963557,921.0873155065598 150.80311588921282,931.8490342565598 151.78497403425658,942.2848145954811 153.134110787172,952.3943148688047 154.83583500364435,962.1771934220117 156.87545553935854,971.6331086005831 159.23828125,980.76171875 161.9096209912536,989.5626822157434 164.87478361880466,998.0356573432945 168.11907798833823,1006.1803024781341 171.62781295553935,1013.9962759657434 175.3862973760933,1021.4832361516035 179.37984010568516,1028.6408413811953 183.59375,1035.46875 188.01333591472297,1041.9666203534985 192.62390670553935,1048.134110787172 197.41077122813414,1053.9708796465015 202.35923833819243,1059.4765852769679 207.4546168913994,1064.6508860240524 212.68221574344028,1069.4934402332362 218.02734375,1074.00390625 223.47530976676384,1078.1819424198252 229.01142264941691,1082.0272070881924 234.62099125364435,1085.539358600583 240.28932443513116,1088.7180553024782 246.0017310495627,1091.5629555393587 251.74351995262396,1094.0737176567054 257.5,1096.25 263.2564800473761,1098.091460914723 268.99826895043736,1099.5977587463558 274.7106755648688,1100.7685518403791 280.3790087463557,1101.603498542274 285.9885773505831,1102.1022571975218 291.52469023323613,1102.2644861516035 296.97265625,1102.08984375 302.3177842565598,1101.5779883381924 307.5453831086006,1100.7285782616618 312.6407616618076,1099.5412718658893 317.58922877186586,1098.0157274963558 322.37609329446065,1096.1516034985423 326.98666408527697,1093.94855821793 331.40625,1091.40625 335.6201598943149,1088.5243371902332 339.6137026239067,1085.3024781341107 343.37218704446065,1081.7403311771136 346.8809220116618,1077.837554664723 350.12521638119534,1073.5938069424199 353.09037900874637,1069.0087463556852 355.76171875,1064.08203125 358.1245444606414,1058.8133199708454 360.1641649963557,1053.2022708637026 361.865889212828,1047.2485422740524 363.21502596574345,1040.951792547376 364.19688411078715,1034.3116800291546 364.7967725036443,1027.3278630648688" fill="none" stroke="#a79c87" stroke-width="21"/><polygon points="365,1020 365,1010 365,1000 365,990 365,980 365,970 365,960 365,950 365,940 365,930 365,920 365,910 365,900 365,890 365,880 365,870 365,860 365,850 365,840 365,830 365,820 365,810 365,800 365,790 365,780 365,770 365,760 365,750 365,740 365,730 365,720 365,710 365,700 365,690 365,680 365,670 365,660 365,650 365,640 365,630 365,620 365,610 365,600 365,590 365,580 365,570 365,560 365,550 365,540 365,530 365,520 365,510 365,500 365,490 365,480 365,470 365,460 365,450 365,440 365,430 365,420 365,410 365,400 365,390 365,380 365,370 365,360 365,350 365,340 365,330 365,320 365,310 365,300 365,290 365,280 365,270 365,260 365,250 365,240 365,230 365,220 364.79705810546875,212.15576171875 364.19677734375,204.560546875 363.21197509765625,197.21435546875 361.85546875,190.1171875 360.14007568359375,183.26904296875 358.07861328125,176.669921875 355.68389892578125,170.31982421875 352.96875,164.21875 349.94598388671875,158.36669921875 346.62841796875,152.763671875 343.02886962890625,147.40966796875 339.16015625,142.3046875 335.03509521484375,137.44873046875 330.66650390625,132.841796875 326.06719970703125,128.48388671875 321.25,124.375 316.22772216796875,120.51513671875 311.01318359375,116.904296875 305.61920166015625,113.54248046875 300.05859375,110.4296875 294.34417724609375,107.56591796875 288.48876953125,104.951171875 282.50518798828125,102.58544921875 276.40625,100.46875 270.20477294921875,98.60107421875 263.91357421875,96.982421875 257.54547119140625,95.61279296875 251.11328125,94.4921875 244.62982177734375,93.62060546875 238.10791015625,92.998046875 231.56036376953125,92.62451171875 225,92.5 218.43963623046875,92.62451171875 211.89208984375,92.998046875 205.37017822265625,93.62060546875 198.88671875,94.4921875 192.45452880859375,95.61279296875 186.08642578125,96.982421875 179.79522705078125,98.60107421875 173.59375,100.46875 167.49481201171875,102.58544921875 161.51123046875,104.951171875 155.65582275390625,107.56591796875 149.94140625,110.4296875 144.38079833984375,113.54248046875 138.98681640625,116.904296875 133.77227783203125,120.51513671875 128.75,124.375 123.93280029296875,128.48388671875 119.33349609375,132.841796875 114.96490478515625,137.44873046875 110.83984375,142.3046875 106.97113037109375,147.40966796875 103.37158203125,152.763671875 100.05401611328125,158.36669921875 97.03125,164.21875 94.31610107421875,170.31982421875 91.92138671875,176.669921875 89.85992431640625,183.26904296875 88.14453125,190.1171875 86.78802490234375,197.21435546875 85.80322265625,204.560546875 85.20294189453125,212.15576171875 85,220 85,230 85,240 85,250 85,260 85,270 85,280 85,290 85,300 85,310 85,320 85,330 85,340 85,350 85,360 85,370 85,380 85,390 85,400 85,410 85,420 85,430 85,440 85,450 85,460 85,470 85,480 85,490 85,500 85,510 85,520 85,530 85,540 85,550 85,560 85,570 85,580 85,590 85,600 85,610 85,620 85,630 85,640 85,650 85,660 85,670 85,680 85,690 85,700 85,710 85,720 85.14767661179707,727.3069915980795 85.579561042524,734.2429698216736 86.27893518518522,740.8304398148149 87.22908093278465,747.0919067215364 88.41328017832637,753.049875685871 89.81481481481478,758.7268518518518 91.41696673525371,764.1453403635117 93.20301783264745,769.3278463648834 95.15625,774.296875 97.25994513031549,779.0749314128943 99.49738511659808,783.6845207475994 101.85185185185179,788.1481481481482 104.30662722908102,792.4883187585734 106.84499314128942,796.727537722908 109.45023148148155,800.8883101851852 112.10562414266116,804.9931412894375 114.79445301783264,809.0645361796982 117.5,813.125 120.20554698216736,817.1970378943759 122.89437585733879,821.3031550068587 125.5497685185185,825.4658564814815 128.15500685871058,829.7076474622771 130.69337277091907,834.0510330932784 133.14814814814815,838.5185185185185 135.50261488340192,843.1326088820301 137.7400548696845,847.9158093278463 139.84375,852.890625 141.7969821673525,858.079561042524 143.58303326474623,863.5051225994513 145.1851851851852,869.1898148148148 146.5867198216735,875.1561428326474 147.77091906721535,881.4266117969821 148.7210648148148,888.0237268518518 149.420438957476,894.9699931412895 149.85232338820302,902.2879158093278 150,910 150.2032274963557,921.0873155065598 150.80311588921282,931.8490342565598 151.78497403425658,942.2848145954811 153.134110787172,952.3943148688047 154.83583500364435,962.1771934220117 156.87545553935854,971.6331086005831 159.23828125,980.76171875 161.9096209912536,989.5626822157434 164.87478361880466,998.0356573432945 168.11907798833823,1006.1803024781341 171.62781295553935,1013.9962759657434 175.3862973760933,1021.4832361516035 179.37984010568516,1028.6408413811953 183.59375,1035.46875 188.01333591472297,1041.9666203534985 192.62390670553935,1048.134110787172 197.41077122813414,1053.9708796465015 202.35923833819243,1059.4765852769679 207.4546168913994,1064.6508860240524 212.68221574344028,1069.4934402332362 218.02734375,1074.00390625 223.47530976676384,1078.1819424198252 229.01142264941691,1082.0272070881924 234.62099125364435,1085.539358600583 240.28932443513116,1088.7180553024782 246.0017310495627,1091.5629555393587 251.74351995262396,1094.0737176567054 257.5,1096.25 263.2564800473761,1098.091460914723 268.99826895043736,1099.5977587463558 274.7106755648688,1100.7685518403791 280.3790087463557,1101.603498542274 285.9885773505831,1102.1022571975218 291.52469023323613,1102.2644861516035 296.97265625,1102.08984375 302.3177842565598,1101.5779883381924 307.5453831086006,1100.7285782616618 312.6407616618076,1099.5412718658893 317.58922877186586,1098.0157274963558 322.37609329446065,1096.1516034985423 326.98666408527697,1093.94855821793 331.40625,1091.40625 335.6201598943149,1088.5243371902332 339.6137026239067,1085.3024781341107 343.37218704446065,1081.7403311771136 346.8809220116618,1077.837554664723 350.12521638119534,1073.5938069424199 353.09037900874637,1069.0087463556852 355.76171875,1064.08203125 358.1245444606414,1058.8133199708454 360.1641649963557,1053.2022708637026 361.865889212828,1047.2485422740524 363.21502596574345,1040.951792547376 364.19688411078715,1034.3116800291546 364.7967725036443,1027.3278630648688" fill="none" stroke="#343b40" stroke-width="15"/><line x1="365" y1="1020" x2="365" y2="220" stroke="#ed6843" stroke-width="3"/><line x1="365" y1="420" x2="365" y2="220" stroke="#ffda72" stroke-width="8"/><text x="440" y="720" font-family="sans-serif" font-size="21">800m QUAY STRAIGHT</text><text x="440" y="350" font-family="sans-serif" font-size="18">200m BRAKING ZONE</text><text x="30" y="1195" font-family="sans-serif" font-size="18">15m road · 3m runoff each side · 16 ordered checkpoints</text><text x="30" y="1225" font-family="sans-serif" font-size="16">Road and visible/physical rails share the editable route definition.</text><text x="30" y="1250" font-family="sans-serif" font-size="14">Plan view in metres. Scene contains current-kit docks, frontage and palms.</text><circle cx="365" cy="1020" r="5" fill="#f8eacb" stroke="#23313b"/><text x="340" y="1025" font-family="sans-serif" font-size="13">0</text><circle cx="365" cy="875.1774502079147" r="5" fill="#f8eacb" stroke="#23313b"/><text x="340" y="880.1774502079147" font-family="sans-serif" font-size="13">1</text><circle cx="365" cy="730.3549004158294" r="5" fill="#f8eacb" stroke="#23313b"/><text x="340" y="735.3549004158294" font-family="sans-serif" font-size="13">2</text><circle cx="365" cy="585.5323506237442" r="5" fill="#f8eacb" stroke="#23313b"/><text x="340" y="590.5323506237442" font-family="sans-serif" font-size="13">3</text><circle cx="365" cy="440.70980083165887" r="5" fill="#f8eacb" stroke="#23313b"/><text x="340" y="445.70980083165887" font-family="sans-serif" font-size="13">4</text><circle cx="365" cy="295.8872510395736" r="5" fill="#f8eacb" stroke="#23313b"/><text x="340" y="300.8872510395736" font-family="sans-serif" font-size="13">5</text><circle cx="347.4966412627037" cy="154.230011648433" r="5" fill="#f8eacb" stroke="#23313b"/><text x="322.4966412627037" y="159.230011648433" font-family="sans-serif" font-size="13">6</text><circle cx="223.45512099433228" cy="92.52932086497242" r="5" fill="#f8eacb" stroke="#23313b"/><text x="198.45512099433228" y="97.52932086497242" font-family="sans-serif" font-size="13">7</text><circle cx="100.92887386925372" cy="156.88915452188178" r="5" fill="#f8eacb" stroke="#23313b"/><text x="75.92887386925372" y="161.88915452188178" font-family="sans-serif" font-size="13">8</text><circle cx="85" cy="298.97756549300755" r="5" fill="#f8eacb" stroke="#23313b"/><text x="60" y="303.97756549300755" font-family="sans-serif" font-size="13">9</text><circle cx="85" cy="443.80011528509317" r="5" fill="#f8eacb" stroke="#23313b"/><text x="60" y="448.80011528509317" font-family="sans-serif" font-size="13">10</text><circle cx="85" cy="588.6226650771782" r="5" fill="#f8eacb" stroke="#23313b"/><text x="60" y="593.6226650771782" font-family="sans-serif" font-size="13">11</text><circle cx="85.52905547932102" cy="733.4318605025521" r="5" fill="#f8eacb" stroke="#23313b"/><text x="60.529055479321016" y="738.4318605025521" font-family="sans-serif" font-size="13">12</text><circle cx="143.80685794360303" cy="864.2992884917562" r="5" fill="#f8eacb" stroke="#23313b"/><text x="118.80685794360303" y="869.2992884917562" font-family="sans-serif" font-size="13">13</text><circle cx="168.12654149729815" cy="1006.1969280108975" r="5" fill="#f8eacb" stroke="#23313b"/><text x="143.12654149729815" y="1011.1969280108975" font-family="sans-serif" font-size="13">14</text><circle cx="271.2304231166957" cy="1100.055252559217" r="5" fill="#f8eacb" stroke="#23313b"/><text x="246.2304231166957" y="1105.055252559217" font-family="sans-serif" font-size="13">15</text></svg>